<?xml version="1.0" encoding="utf-8"?>
<!-- Generator: Adobe Illustrator 26.0.2, SVG Export Plug-In . SVG Version: 6.00 Build 0)  -->
<svg version="1.1" id="Layer_1" xmlns="http://www.w3.org/2000/svg" xmlns:xlink="http://www.w3.org/1999/xlink" x="0px" y="0px"
	 viewBox="0 0 1440 197" style="enable-background:new 0 0 1440 197;" xml:space="preserve">
<style type="text/css">
	.st0{fill-rule:evenodd;clip-rule:evenodd;fill:#222222;}
</style>
<path class="st0" d="M-1186.1-285.5l50,302.9l0.8-0.3c3.7,11.9,11.4,26.3,17.8,35.6c16,23.1,42.6,42.1,74.7,56.9
	c72.5,33.4,173,45,271.1,36.3c-0.1-0.3-0.1-0.6-0.2-0.9c15.4-1.3,30.9-3,46.5-5.3C-603.8,122-523.1,73.8-473.9,3.5
	c32.5-45.9,39-94.5,46.4-141.9c6.4-41.4,6.7-87.7,64.9-120c37.6-20.8,90.9-30.2,135.1-22.7c39.7,6.7,85.2,32.6,77.1,61.3
	c-8.2,29.2-41.8,56.8-59.9,84.5c-32.2,49.1-41.2,102.4-24.3,150.7C-216,68.8-158.4,119.7-90,151.7c59.7,27.9,140.7,42.1,219.8,28.7
	c72.1-12.3,132.7-45.2,183.2-79.7c47.6-32.6,96.7-75.8,167.6-87.4C550.9,1.9,614.3,23.4,663,47.7c34.1,17,66.1,35.7,99.7,53.1
	c0.2-0.3-0.2,0.3,0,0c15.9,8,32.4,15.9,51.2,21.5c150.2,54.4,381,72.3,506.2,63.2c168.6-12.2,111.9-102.6,136.1-105.4
	c68.6-8,137.8-9.3,193.3,13.9c0.3,0.1,0.5,0.2,0.8,0.3c22-16.4,46.6-33.5,68.7-49.9l-120.5-675.1L-1186.1-285.5z"/>
</svg>
