<?xml version="1.0" encoding="utf-8"?>
<!-- Generator: Adobe Illustrator 26.0.2, SVG Export Plug-In . SVG Version: 6.00 Build 0)  -->
<svg version="1.1" id="Layer_1" xmlns="http://www.w3.org/2000/svg" xmlns:xlink="http://www.w3.org/1999/xlink" x="0px" y="0px"
	 viewBox="0 0 1440 301.3" style="enable-background:new 0 0 1440 301.3;" xml:space="preserve">
<style type="text/css">
	.st0{fill-rule:evenodd;clip-rule:evenodd;fill:#222222;}
</style>
<g>
	<path class="st0" d="M-82.8,81c0,2.2,1.8,4,4,4h1612.6c2.2,0,4-1.8,4-4v-195.5c0-2.2-1.8-4-4-4H-78.8c-2.2,0-4,1.8-4,4V81z"/>
</g>
<g>
	<path class="st0" d="M72.7,116.6c0,2.2,1.8,4,4,4h158.7c2.2,0,4-1.8,4-4V49.3c0-2.2-1.8-4-4-4H76.7c-2.2,0-4,1.8-4,4V116.6z"/>
</g>
<g>
	<path class="st0" d="M413.3,164.1c0,2.2,1.8,4,4,4H474c2.2,0,4-1.8,4-4V55.2c0-2.2-1.8-4-4-4h-56.7c-2.2,0-4,1.8-4,4V164.1z"/>
</g>
<g>
	<path class="st0" d="M202.1,92.9c0,2.2,1.8,4,4,4h243.6c2.2,0,4-1.8,4-4V55.2c0-2.2-1.8-4-4-4H206.1c-2.2,0-4,1.8-4,4V92.9z"/>
</g>
<g>
	<path class="st0" d="M664.9,122.6c0,2.2,1.8,4,4,4h394.9c2.2,0,4-1.8,4-4V49.3c0-2.2-1.8-4-4-4H668.9c-2.2,0-4,1.8-4,4V122.6z"/>
</g>
<g>
	<path class="st0" d="M1044.7,153.4c0,2.2,1.8,4,4,4h233.5c2.2,0,4-1.8,4-4V30.3c0-2.2-1.8-4-4-4h-233.5c-2.2,0-4,1.8-4,4V153.4z"/>
</g>
<g>
	<path class="st0" d="M1258.3,92.9c0,2.2,1.8,4,4,4h161.1c2.2,0,4-1.8,4-4V55.2c0-2.2-1.8-4-4-4h-161.1c-2.2,0-4,1.8-4,4V92.9z"/>
</g>
<g>
	<path class="st0" d="M529.6,63.2c0,2.2,1.8,4,4,4h8c2.2,0,4-1.8,4-4v-8c0-2.2-1.8-4-4-4h-8c-2.2,0-4,1.8-4,4V63.2z"/>
</g>
<g>
	<path class="st0" d="M517.7,133.2c0,2.2,1.8,4,4,4h8c2.2,0,4-1.8,4-4v-8c0-2.2-1.8-4-4-4h-8c-2.2,0-4,1.8-4,4V133.2z"/>
</g>
<g>
	<path class="st0" d="M517.7,153.4c0,2.2,1.8,4,4,4h53.1c2.2,0,4-1.8,4-4v-53.1c0-2.2-1.8-4-4-4h-53.1c-2.2,0-4,1.8-4,4V153.4z"/>
</g>
<g>
	<path class="st0" d="M1334.3,153.4c0,2.2,1.8,4,4,4h38.9c2.2,0,4-1.8,4-4v-44.8c0-2.2-1.8-4-4-4h-38.9c-2.2,0-4,1.8-4,4V153.4z"/>
</g>
<g>
	<path class="st0" d="M261.4,211.6c0,2.2,1.8,4,4,4h66.5c2.2,0,4-1.8,4-4v-55.5c0-2.2-1.8-4-4-4h-66.5c-2.2,0-4,1.8-4,4V211.6z"/>
</g>
<g>
	<path class="st0" d="M729,201.5c0,2.2,1.8,4,4,4h30c2.2,0,4-1.8,4-4v-30c0-2.2-1.8-4-4-4h-30c-2.2,0-4,1.8-4,4V201.5z"/>
</g>
<g>
	<path class="st0" d="M35.9,179.5c0,2.2,1.8,4,4,4h29.4c2.2,0,4-1.8,4-4v-29.4c0-2.2-1.8-4-4-4H39.9c-2.2,0-4,1.8-4,4V179.5z"/>
</g>
<g>
	<path class="st0" d="M983,241.2c0,2.2,1.8,4,4,4h37.7c2.2,0,4-1.8,4-4v-37.7c0-2.2-1.8-4-4-4H987c-2.2,0-4,1.8-4,4V241.2z"/>
</g>
<g>
	<path class="st0" d="M583,290.5c0,2.2,1.8,4,4,4h27.6c2.2,0,4-1.8,4-4v-27.6c0-2.2-1.8-4-4-4H587c-2.2,0-4,1.8-4,4V290.5z"/>
</g>
<g>
	<path class="st0" d="M1246.5,254.3c0,2.2,1.8,4,4,4h25.8c2.2,0,4-1.8,4-4v-25.8c0-2.2-1.8-4-4-4h-25.8c-2.2,0-4,1.8-4,4V254.3z"/>
</g>
<g>
	<path class="st0" d="M853.6,153.4c0,2.2,1.8,4,4,4h36.5c2.2,0,4-1.8,4-4V95.6c0-2.2-1.8-4-4-4h-36.5c-2.2,0-4,1.8-4,4V153.4z"/>
</g>
</svg>
