<?xml version="1.0" encoding="utf-8"?>
<!-- Generator: Adobe Illustrator 26.0.2, SVG Export Plug-In . SVG Version: 6.00 Build 0)  -->
<svg version="1.1" id="Layer_1" xmlns="http://www.w3.org/2000/svg" xmlns:xlink="http://www.w3.org/1999/xlink" x="0px" y="0px"
	 viewBox="0 0 1920 647" style="enable-background:new 0 0 1920 647;" xml:space="preserve">
<style type="text/css">
	.st0{fill:#C6CCFB;}
	.st1{fill:#F3DF4C;}
	.st2{fill:#8D99F7;}
</style>
<path class="st0" d="M-247.2,189.7c119.4,123.3,308.6,276.5,424.1,294.1c111.9,17.1,241-38.4,438.6-25
	c195.6,13.3,282.9,86.2,409.6,54.6c195.2-48.8,276.8-116.3,461.6-115.2c266.1,1.7,386.3,46.2,443.8,85.1
	c57.5,38.8,220.5-471.6,220.5-471.6L-229-188.3L-247.2,189.7z"/>
<polygon class="st1" points="-231.6,31.5 192.5,325.6 631.1,300.7 1040.7,355.2 1482.9,213 1946.1,325.1 2166.6,-146.5 
	-213.3,-346.6 -231.6,31.5 "/>
<path class="st2" d="M-214.3-143.7C-94.8-20.3,97.2,181.6,209.8,150.5s370.6-89,438.6-25s299.6,79.9,409.6,54.6
	S1236.6-10.3,1502,8.9s403.9,102.2,461.4,141.1c57.5,38.8,220.5-471.6,220.5-471.6L-196-521.7L-214.3-143.7z"/>
</svg>
