<?xml version="1.0" encoding="utf-8"?>
<!-- Generator: Adobe Illustrator 26.0.2, SVG Export Plug-In . SVG Version: 6.00 Build 0)  -->
<svg version="1.1" id="Layer_1" xmlns="http://www.w3.org/2000/svg" xmlns:xlink="http://www.w3.org/1999/xlink" x="0px" y="0px"
	 viewBox="0 0 1920 660.4" style="enable-background:new 0 0 1920 660.4;" xml:space="preserve">
<style type="text/css">
	.st0{fill:#C6CCFB;}
	.st1{fill:#F3DF4C;}
	.st2{fill:#8D99F7;}
	.st3{fill:#4C60F3;}
</style>
<path class="st0" d="M-237.9,277c119.4,123.3,274.7,316,390.2,333.6c111.9,17.1,274.9-77.9,472.5-64.5
	c195.6,13.3,298.1,119.8,424.8,88.2c195.2-48.8,270.9-192.9,455.7-191.8c266.1,1.7,377,89.2,434.5,128.1
	C1997.3,609.4,2160.3,99,2160.3,99l-2380-200L-237.9,277z"/>
<polygon class="st1" points="-222.3,159.2 201.8,453.3 640.4,428.4 1050,482.9 1492.2,340.7 1955.4,452.8 2175.9,-18.8 -204,-218.9 
	"/>
<path class="st2" d="M-205,21.4c119.5,123.4,311.5,325.3,424.1,294.2s370.6-89,438.6-25s299.6,79.9,409.6,54.6
	s178.6-190.4,444-171.2s403.9,102.2,461.4,141.1c57.5,38.8,220.5-471.6,220.5-471.6L-186.7-356.6L-205,21.4z"/>
<path class="st3" d="M-317.6-82.5c119.5,123.4,438.4,263.6,551,232.5S574.2,96.5,672,125c89.6,26.1,285.9,38.8,394.2,7
	c111.2-32.7,323.6-86.9,458.1-88.7c265.4,19.2,405.2,67.3,462.7,106.2c57.5,38.8,220.5-471.6,220.5-471.6L-172.4-522.2L-317.6-82.5z
	"/>
</svg>
