<?xml version="1.0" encoding="utf-8"?>
<!-- Generator: Adobe Illustrator 26.0.2, SVG Export Plug-In . SVG Version: 6.00 Build 0)  -->
<svg version="1.1" id="Layer_1" xmlns="http://www.w3.org/2000/svg" xmlns:xlink="http://www.w3.org/1999/xlink" x="0px" y="0px"
	 viewBox="0 0 1440 197" style="enable-background:new 0 0 1440 197;" xml:space="preserve">
<style type="text/css">
	.st0{fill-rule:evenodd;clip-rule:evenodd;}
</style>
<path class="st0" d="M-990.7-285.5l50,302.9l0.8-0.3c3.7,11.9,11.4,26.3,17.8,35.6c16,23.1,42.6,42.1,74.7,56.9
	c72.5,33.4,173,45,271.1,36.3c-0.1-0.3-0.1-0.6-0.2-0.9c15.4-1.3,30.9-3,46.5-5.3C-408.4,122-327.7,73.8-278.5,3.5
	c32.5-45.9,39-94.5,46.4-141.9c6.4-41.4,6.7-87.7,64.9-120c37.6-20.8,90.9-30.2,135.1-22.7c39.7,6.7,85.2,32.6,77.1,61.3
	c-8.2,29.2-41.8,56.8-59.9,84.5C-47.1-86.2-56.1-32.9-39.2,15.4C-20.6,68.8,37,119.7,105.4,151.7c59.7,27.9,140.7,42.1,219.8,28.7
	c72.1-12.3,132.7-45.2,183.2-79.7C556,68.1,605.1,24.9,676,13.3c70.3-11.4,133.7,10.1,182.4,34.4c34.1,17,66.1,35.7,99.7,53.1
	c0.2-0.3-0.2,0.3,0,0c15.9,8,32.4,15.9,51.2,21.5c113.2,33.7,249.4,22.9,376.8,1.8c18.3-3,36.5-6.2,54.7-9.5
	c70-12.6,139.9-26.2,210.8-34.5c68.6-8,137.8-9.3,193.3,13.9c0.3,0.1,0.5,0.2,0.8,0.3c22-16.4,46.6-33.5,68.7-49.9l-120.5-675.1
	L-990.7-285.5z"/>
</svg>
