<?xml version="1.0" encoding="utf-8"?>
<!-- Generator: Adobe Illustrator 26.0.2, SVG Export Plug-In . SVG Version: 6.00 Build 0)  -->
<svg version="1.1" id="Layer_1" xmlns="http://www.w3.org/2000/svg" xmlns:xlink="http://www.w3.org/1999/xlink" x="0px" y="0px"
	 viewBox="0 0 1440 301.3" style="enable-background:new 0 0 1440 301.3;" xml:space="preserve">
<style type="text/css">
	.st0{fill-rule:evenodd;clip-rule:evenodd;fill:#FFFFFF;}
</style>
<g>
	<path class="st0" d="M-73.3,77.5c0,2.2,1.8,4,4,4h1612.6c2.2,0,4-1.8,4-4v-195.5c0-2.2-1.8-4-4-4H-69.3c-2.2,0-4,1.8-4,4V77.5z"/>
</g>
<g>
	<path class="st0" d="M82.2,113.1c0,2.2,1.8,4,4,4h158.7c2.2,0,4-1.8,4-4V45.7c0-2.2-1.8-4-4-4H86.2c-2.2,0-4,1.8-4,4V113.1z"/>
</g>
<g>
	<path class="st0" d="M1093.4,180.1c0,2.2,1.8,4,4,4h56.7c2.2,0,4-1.8,4-4V71.2c0-2.2-1.8-4-4-4h-56.7c-2.2,0-4,1.8-4,4V180.1z"/>
</g>
<g>
	<path class="st0" d="M211.5,89.3c0,2.2,1.8,4,4,4h243.6c2.2,0,4-1.8,4-4V51.7c0-2.2-1.8-4-4-4H215.5c-2.2,0-4,1.8-4,4V89.3z"/>
</g>
<g>
	<path class="st0" d="M676.8,119c0,2.2,1.8,4,4,4h428.1c2.2,0,4-1.8,4-4V45.7c0-2.2-1.8-4-4-4H680.8c-2.2,0-4,1.8-4,4V119z"/>
</g>
<g>
	<path class="st0" d="M457.2,141c0,2.2,1.8,4,4,4h233.5c2.2,0,4-1.8,4-4V17.8c0-2.2-1.8-4-4-4H461.2c-2.2,0-4,1.8-4,4V141z"/>
</g>
<g>
	<path class="st0" d="M1267.8,89.3c0,2.2,1.8,4,4,4h161.1c2.2,0,4-1.8,4-4V51.7c0-2.2-1.8-4-4-4h-161.1c-2.2,0-4,1.8-4,4V89.3z"/>
</g>
<g>
	<path class="st0" d="M539.1,59.7c0,2.2,1.8,4,4,4h8c2.2,0,4-1.8,4-4v-8c0-2.2-1.8-4-4-4h-8c-2.2,0-4,1.8-4,4V59.7z"/>
</g>
<g>
	<path class="st0" d="M527.2,129.7c0,2.2,1.8,4,4,4h8c2.2,0,4-1.8,4-4v-8c0-2.2-1.8-4-4-4h-8c-2.2,0-4,1.8-4,4V129.7z"/>
</g>
<g>
	<path class="st0" d="M482.1,255.8c0,2.2,1.8,4,4,4h53.1c2.2,0,4-1.8,4-4v-53.1c0-2.2-1.8-4-4-4h-53.1c-2.2,0-4,1.8-4,4V255.8z"/>
</g>
<g>
	<path class="st0" d="M1318.8,183.7c0,2.2,1.8,4,4,4h38.9c2.2,0,4-1.8,4-4v-44.8c0-2.2-1.8-4-4-4h-38.9c-2.2,0-4,1.8-4,4V183.7z"/>
</g>
<g>
	<path class="st0" d="M306.2,199.7c0,2.2,1.8,4,4,4h54.3c2.2,0,4-1.8,4-4v-55.5c0-2.2-1.8-4-4-4h-54.3c-2.2,0-4,1.8-4,4V199.7z"/>
</g>
<g>
	<path class="st0" d="M738.5,197.9c0,2.2,1.8,4,4,4h30c2.2,0,4-1.8,4-4v-30c0-2.2-1.8-4-4-4h-30c-2.2,0-4,1.8-4,4V197.9z"/>
</g>
<g>
	<path class="st0" d="M45.4,176c0,2.2,1.8,4,4,4h29.4c2.2,0,4-1.8,4-4v-29.4c0-2.2-1.8-4-4-4H49.4c-2.2,0-4,1.8-4,4V176z"/>
</g>
<g>
	<path class="st0" d="M1102.8,274.5c0,2.2,1.8,4,4,4h37.7c2.2,0,4-1.8,4-4v-37.7c0-2.2-1.8-4-4-4h-37.7c-2.2,0-4,1.8-4,4V274.5z"/>
</g>
<g>
	<path class="st0" d="M633.8,269.4c0,2.2,1.8,4,4,4h27.6c2.2,0,4-1.8,4-4v-27.6c0-2.2-1.8-4-4-4h-27.6c-2.2,0-4,1.8-4,4V269.4z"/>
</g>
<g>
	<path class="st0" d="M163.8,243c0,2.2,1.8,4,4,4h27.6c2.2,0,4-1.8,4-4v-27.6c0-2.2-1.8-4-4-4h-27.6c-2.2,0-4,1.8-4,4V243z"/>
</g>
<g>
	<path class="st0" d="M873.8,259.6c0,2.2,1.8,4,4,4h25.8c2.2,0,4-1.8,4-4v-25.8c0-2.2-1.8-4-4-4h-25.8c-2.2,0-4,1.8-4,4V259.6z"/>
</g>
<g>
	<path class="st0" d="M863.1,149.9c0,2.2,1.8,4,4,4h36.5c2.2,0,4-1.8,4-4V92c0-2.2-1.8-4-4-4h-36.5c-2.2,0-4,1.8-4,4V149.9z"/>
</g>
</svg>
