<?xml version="1.0" encoding="utf-8"?>
<!-- Generator: Adobe Illustrator 26.0.2, SVG Export Plug-In . SVG Version: 6.00 Build 0)  -->
<svg version="1.1" id="Layer_1" xmlns="http://www.w3.org/2000/svg" xmlns:xlink="http://www.w3.org/1999/xlink" x="0px" y="0px"
	 viewBox="0 0 1175 113.1" style="enable-background:new 0 0 1175 113.1;" xml:space="preserve">
<style type="text/css">
	.st0{fill:#F3DF4C;}
</style>
<desc>Created with Sketch.</desc>
<g id="Page-1">
	<g id="Wavy-Edge-2">
		<path id="path1531" class="st0" d="M2568,98.6c39.8-11.2,65.5-22.3,142.1-60.9c38.8-19.5,100.4-47.5,158.3-60.1
			c51.2-11.2,103.5-19.4,160.5-20.2v-272.2H0V9.5c3,1.6,5.7,3,9.2,4.9C54.7,38,106.1,55.5,164.6,67.3c28.5,5.7,63,10.4,95.4,13.3
			c30.9,2.9,74.9,3.1,99.1,0.4c50.5-5.5,122.1-17.9,181.7-35.2C594.6,31.6,658,15.7,719.2,10.6c36.4-3.1,72.7-6.2,109.4-6
			c60.2,0.4,130.1,5.7,193.6,19.9c20.2,4,35.1,8.1,98.9,27.5c45.4,13.8,96.9,26.1,125,29.8c57.2,7.6,111.6,12.4,170.8,2.5
			c39.8-6.8,58.4-12,144.7-40.2c84.5-26.1,198.3-46.2,297.9-45.8c59.9,0,48.9-0.6,112.1,6.3c57.3,6.4,130.4,23.3,193,45.9
			c32.5,10.6,70.4,22.9,117.3,37.3c46.2,15.4,113.6,25.1,168.6,25.3C2478.7,113.1,2526.8,110.6,2568,98.6z"/>
	</g>
</g>
</svg>
