<?xml version="1.0" encoding="UTF-8"?><svg id="b" xmlns="http://www.w3.org/2000/svg" xmlns:xlink="http://www.w3.org/1999/xlink" viewBox="0 0 189 184"><defs><style>.v{filter:url(#f);}.v,.w,.x,.y{fill:#049efe;}.w{filter:url(#d);}.z{filter:url(#n);}.z,.aa,.ab,.ac{fill:#e2d105;}.ad{fill:#f95383;}.ae{filter:url(#t);}.x{filter:url(#j);}.aa{filter:url(#r);}.af{fill:#262626;stroke:#445efb;stroke-miterlimit:10;stroke-width:5px;}.ab{filter:url(#p);}.ac{filter:url(#l);}.y{filter:url(#h);}</style><filter id="d" filterUnits="userSpaceOnUse"><feOffset dx="1.5" dy="1.5"/><feGaussianBlur result="e" stdDeviation="0"/><feFlood flood-color="#5bafc9" flood-opacity="1"/><feComposite in2="e" operator="in"/><feComposite in="SourceGraphic"/></filter><filter id="f" filterUnits="userSpaceOnUse"><feOffset dx="1.5" dy="1.5"/><feGaussianBlur result="g" stdDeviation="0"/><feFlood flood-color="#5bafc9" flood-opacity="1"/><feComposite in2="g" operator="in"/><feComposite in="SourceGraphic"/></filter><filter id="h" filterUnits="userSpaceOnUse"><feOffset dx="1.5" dy="1.5"/><feGaussianBlur result="i" stdDeviation="0"/><feFlood flood-color="#5bafc9" flood-opacity="1"/><feComposite in2="i" operator="in"/><feComposite in="SourceGraphic"/></filter><filter id="j" filterUnits="userSpaceOnUse"><feOffset dx="1.5" dy="1.5"/><feGaussianBlur result="k" stdDeviation="0"/><feFlood flood-color="#5bafc9" flood-opacity="1"/><feComposite in2="k" operator="in"/><feComposite in="SourceGraphic"/></filter><filter id="l" filterUnits="userSpaceOnUse"><feOffset dx="1.5" dy="1.5"/><feGaussianBlur result="m" stdDeviation="0"/><feFlood flood-color="#ea4c15" flood-opacity="1"/><feComposite in2="m" operator="in"/><feComposite in="SourceGraphic"/></filter><filter id="n" filterUnits="userSpaceOnUse"><feOffset dx="1.5" dy="1.5"/><feGaussianBlur result="o" stdDeviation="0"/><feFlood flood-color="#ea4c15" flood-opacity="1"/><feComposite in2="o" operator="in"/><feComposite in="SourceGraphic"/></filter><filter id="p" filterUnits="userSpaceOnUse"><feOffset dx="1.5" dy="1.5"/><feGaussianBlur result="q" stdDeviation="0"/><feFlood flood-color="#ea4c15" flood-opacity="1"/><feComposite in2="q" operator="in"/><feComposite in="SourceGraphic"/></filter><filter id="r" filterUnits="userSpaceOnUse"><feOffset dx="1.5" dy="1.5"/><feGaussianBlur result="s" stdDeviation="0"/><feFlood flood-color="#ea4c15" flood-opacity="1"/><feComposite in2="s" operator="in"/><feComposite in="SourceGraphic"/></filter><filter id="t" filterUnits="userSpaceOnUse"><feOffset dx="1" dy="1"/><feGaussianBlur result="u" stdDeviation="0"/><feFlood flood-color="#9b1552" flood-opacity="1"/><feComposite in2="u" operator="in"/><feComposite in="SourceGraphic"/></filter></defs><g id="c"><g><circle class="af" cx="92" cy="92" r="89.5"/><path class="w" d="M41.82715,57.84766c-1.20996,5.38965-2.42041,10.78027-3.95996,16.06055l-.88037,2.85938h-.33008l-1.75977-2.30957c-2.41992-3.08008-4.62012-6.93066-6.37988-10.4502-2.53027-4.62012-4.84033-9.45996-6.93018-14.41016-2.2002-4.83984-4.18018-9.90039-5.93994-14.95996-1.20996-3.74023-2.64014-8.03027-3.08008-11.99023l-.22021-1.75977,9.45996-.11035,.22021,1.20996c1.43018,5.83008,3.41016,11.77051,5.39014,17.37988,1.31982,3.63086,2.85986,7.37012,4.3999,11,.66016,1.54004,1.43018,3.08008,2.08984,4.62012,2.53027-10.88965,5.28027-21.66992,8.69043-32.22949l1.6499-4.73047h.21973l1.43018,4.73047c2.85986,10.12012,5.83008,19.91016,9.45996,29.7002,.33008-1.10059,.66016-2.31055,1.1001-3.52051,1.1001-3.62988,2.31006-7.14941,3.52002-10.66992,2.2002-6.37988,4.3999-12.87012,7.04004-19.13965l.5498-1.20996,8.91016,1.86914-.77002,1.76074c-6.92969,16.60938-12.54004,33.99023-17.6001,51.15039l-.87988,3.18945-.10986,.11035-2.09033-2.64062c-1.6499-2.30957-3.18994-5.60938-4.3999-8.25-1.6499-3.95996-3.18994-7.91992-4.62012-11.98926-.5498-1.76074-1.20996-3.41016-1.75977-5.1709-.87988,3.30078-1.6499,6.70996-2.41992,9.90039Z"/><path class="v" d="M77.34795,71.49821l-.11567,1.31884-9.64342,.90657,.37346-2.16827c.638-4.35431,1.38492-8.69084,2.13183-13.02738,2.1471-12.46586,4.49265-24.78655,7.07346-37.1787l.24267-1.40894,8.75065,.3904-.33616,1.95173c-1.72563,8.07426-3.25298,16.29465-4.65332,24.42493,5.70033-.69288,11.40065-1.38576,17.13449-1.62595,1.45307-7.78627,2.90565-15.57261,4.57526-23.32158l.24267-1.40894,8.75065,.3904-.33616,1.95173c-1.7069,7.96551-3.19695,15.96936-4.57856,23.99089-1.5124,8.78086-2.91653,17.58037-4.1222,26.52505l-.09711,1.21105-9.66264,1.01523,.37346-2.16827c1.01194-6.52249,2.13232-13.0273,3.25252-19.53114-5.62557,.25884-11.47146,1.14961-16.99254,2.09632-.78735,5.22142-1.57535,10.44372-2.36335,15.66602Z"/><path class="y" d="M124.98535,63.56738c-3.52002,.99023-6.93018,2.2002-10.33984,3.41016-.77002,2.53027-1.65039,5.06055-2.31006,7.58984l-.22021,1.10059-9.56982,1.09961,.33008-2.08984c.5498-4.07031,2.19971-8.7998,3.62988-12.75977,1.97998-5.5,4.29004-11,6.81982-16.28027,2.31006-5.06055,4.84033-10.12012,7.59033-14.95996,1.97998-3.74023,4.29004-7.7002,6.92969-11l1.76025-2.31055,.21973,.11035,.99023,2.75c5.60986,16.38965,11.99023,33,19.80029,48.50977l.77002,1.65039-8.58008,2.86035-.55029-1.20996c-1.87012-3.74023-3.62988-7.59082-5.27979-11.44043-3.95996,.66016-8.14014,1.75977-11.99023,2.96973Zm8.58008-11.10938c-1.54004-3.62988-2.97021-7.26074-4.29004-10.89062-.66016-1.64941-1.20996-3.2998-1.87012-4.9502-.98975,1.87012-1.87012,3.85059-2.75,5.7207-1.87012,3.95996-3.62988,8.0293-5.27979,11.99023-.33008,.76953-.55029,1.42969-.88037,2.19922,4.9502-1.54004,10.01025-2.96973,15.07031-4.06934Z"/><path class="x" d="M159.05265,40.81139c1.18134,9.52403,2.60049,19.01856,4.02017,28.51302l.29615,1.41423-9.79474,3.8743-.28055-2.26184c-.75395-5.10504-1.38887-10.22377-2.02392-15.34355-1.26996-10.23852-2.43571-20.61016-3.36324-31.01242-3.24494,1.12798-6.47521,2.37433-9.70534,3.62174l-.69928,.20693-1.43449-9.6139,1.16114-.38549c9.63022-3.24968,19.30527-6.14218,28.90521-8.66263l.81871-.22175,.66035,9.22591-1.17542,.26599c-3.05145,.74123-6.20646,1.61659-9.34731,2.61038,.50054,5.98215,1.22422,11.81642,1.96257,17.76907Z"/><path class="ac" d="M187.5,87.93684l-1.94208,15.81888c-6.30654-.80331-12.94175-1.66924-19.26308-.88319-.84837,2.62557-1.56718,5.14223-2.06671,7.70067,6.59144-.33624,15.09741,.09067,20.39793,.83467-.50261,4.81435-.91062,11.23889-1.41323,16.05324-5.55874-.52844-14.45195-.63079-21.12195,.22121-.03443,1.7192-.19754,3.54506-.25196,5.39283,6.85036-.55287,15.03955,.47678,22.17173,1.04027l-1.81993,16.50647c-11.31713-1.22852-25.50673-.61427-37.27222,1.12496-.09847-9.0423,.92621-18.79966,2.44803-28.86064,1.8534-12.25308,4.57173-25.00567,7.28265-36.96177,10.42376-1.06703,23.57238-.02148,32.85081,2.01241Z"/><path class="z" d="M117.96398,96.99576c5.35694,12.10218,10.57897,26.64438,15.45736,37.18359,2.95228-9.97253,5.1935-16.74834,7.55512-24.72568l1.21779-4.11358c4.52238,1.41035,9.97096,2.4732,14.56308,4.04636-1.76202,5.15706-3.78626,11.59831-5.88987,18.70411-5.0184,16.95171-10.61427,37.84031-14.44847,53.57298l-.42384-.15806c-8.61493-18.57649-12.01396-31.33176-17.43963-43.59637-2.30557,6.19826-4.84736,14.38582-7.02425,21.73917l-2.47239,8.35151c-4.87716-1.40331-9.15132-2.85916-14.02898-4.26266,6.85403-22.35746,15.80171-50.99221,22.51022-66.89943l.42384,.15806Z"/><path class="ab" d="M76.34971,164.8825c-12.86148,0-22.81886-12.3274-22.81886-29.16977,0-18.18615,11.51343-34.54151,25.82697-36.73756,1.03754-.12287,2.07458-.24463,3.00811-.24463,12.86148,0,22.81886,12.3274,22.81886,29.17089,0,18.18503-11.61694,34.54039-25.82697,36.73644-1.03704,.12287-2.07458,.24463-3.00811,.24463Zm15.04006-36.98107c0-7.20141-3.52663-13.7918-10.26839-12.81553-8.0908,1.21978-13.89902,11.59463-13.89902,20.62683,0,7.20029,3.63014,13.7918,10.37239,12.81442,7.9863-1.21978,13.79502-11.59463,13.79502-20.62571Z"/><path class="aa" d="M11.14502,128.61822c0-12.82491,.70335-24.54553,1.17225-36.40498,7.50013-2.34488,14.06247-3.44791,19.80508-3.44791,19.45312,0,28.82829,12.41096,28.82829,27.30437,0,19.71947-16.52335,43.71349-47.69613,48.26443-1.64058-13.37643-2.10948-24.95949-2.10948-35.7159Zm27.65717,2.34362c3.04672-3.8606,5.74204-8.27271,5.74204-13.10004,0-1.37815-.23445-2.75757-.70335-4.13699-1.87503-5.65397-7.26569-7.17095-12.77328-7.17095-1.52364,0-3.16422,.13883-4.68787,.27639-.23445,6.34304-.4689,12.96248-.4689,19.58191,0,5.10245,.11751,10.20364,.35196,15.16853,5.27371-2.34488,8.20292-4.6885,12.53939-10.61886Z"/><g class="ae"><path class="ad" d="M51.41797,80.69141l-4.24902,.20312-.04932-1.0293,1.16797-.19336c1.41895-.25195,2.69385-.61523,3.8252-1.09375,1.13086-.47852,2.22314-1.29199,3.27637-2.44238l.49316-.54004,.61035,.45215c-.4043,.70703-.69043,1.37305-.85645,2.00098-.16602,.62695-.26123,1.28418-.28613,1.97266-.0249,.68945-.01611,1.47949,.02686,2.37109l.42334,8.84766c.90088-1.44043,1.8125-2.51562,2.73682-3.22363,.92383-.70898,1.88086-1.08789,2.87109-1.13574,1.40479-.06641,2.5293,.27441,3.37305,1.02539,.84424,.75,1.4917,1.98535,1.94385,3.7041l1.72461,6.38086c.30713,1.1084,.64062,1.92773,1.00098,2.46191,.35938,.53125,.78076,.90234,1.26465,1.10742,.48242,.20605,1.0498,.3623,1.70166,.46875l1.18604,.18359,.04443,.92578c-1.08643-.0166-2.13037-.02344-3.13477-.02148-1.00391,.00195-1.97803,.02637-2.92236,.07129-.92139,.04395-1.84668,.11133-2.77734,.20215-.93018,.08984-1.87793,.19238-2.8418,.30664l-.04443-.92578,.85547-.21191c.72949-.19531,1.2373-.43262,1.52393-.70898,.28662-.27734,.41504-.73633,.38428-1.37598-.01514-.32031-.06299-.70215-.14111-1.14551-.0791-.44238-.19043-.95898-.3335-1.54785l-1.0874-4.62305c-.31982-1.38281-.72217-2.30859-1.20605-2.77832-.48438-.46875-1.14062-.68359-1.96973-.64453-.69043,.0332-1.36719,.2666-2.02686,.69824-.65967,.43359-1.34668,1.16016-2.05957,2.17871l.28418,5.93359c.05469,1.14258,.15381,2.01465,.29834,2.61523,.14355,.60059,.38867,1.01172,.73389,1.23633s.84229,.35547,1.49121,.39258l1.1792,.04785,.0459,.95898c-.99414-.02148-1.9751-.03125-2.94482-.03027-.96924,0-1.92676,.02344-2.87061,.06836-.94434,.0459-1.89307,.11328-2.84619,.20508-.95361,.0918-1.93555,.19531-2.94531,.3125l-.0459-.95898,1.5791-.28223c.66357-.12402,1.18555-.30371,1.56689-.54004,.38086-.23438,.63818-.64355,.77246-1.22266,.1333-.5791,.17285-1.45215,.11719-2.61719l-.86377-18.04004Z"/><path class="ad" d="M88.66748,103.00488c-.46094,.02148-.89844-.07227-1.31201-.28223-.41406-.20898-.82568-.62402-1.23682-1.24609-.41064-.62207-.8418-1.54004-1.29199-2.75684l-.87646-2.39844c-.0791,1.24121-.3457,2.30762-.79932,3.2002-.45361,.89355-1.01807,1.62988-1.69434,2.21289-.67627,.58203-1.38232,1.01758-2.11865,1.30371-.73682,.28809-1.41504,.44727-2.03711,.47656-1.31299,.0625-2.34912-.25-3.10889-.93457-.76025-.68555-1.16504-1.55371-1.21533-2.60645-.04932-1.0293,.28271-2.05176,.99512-3.07227,.71289-1.01855,1.70068-2.08691,2.96289-3.20117,1.2627-1.11426,2.67139-2.29297,4.22803-3.53613-.30469-.58203-.67041-.9834-1.09668-1.20215-.42529-.2207-.96143-.31543-1.60596-.28418-.75977,.03613-1.5,.26074-2.21826,.67285-.71924,.41309-1.46484,.98145-2.23779,1.70508l-.63037,.58105-.76318-.75391,.72021-.85938c1.2666-1.50586,2.43457-2.54004,3.50439-3.10742,1.06885-.56641,2.09863-.87402,3.08887-.9209,1.42822-.06836,2.55078,.23926,3.36816,.9209,.81787,.68359,1.53955,1.77832,2.16553,3.2832l3.0918,7.44824c.33838,.80859,.64209,1.36133,.91016,1.65723,.26807,.29785,.57471,.43652,.91992,.41992,.2998-.01367,.66943-.24902,1.10938-.70508s1.05518-1.33301,1.84766-2.63281l.92578,.54102c-.79785,1.66504-1.53906,2.93164-2.22412,3.80176-.68555,.86816-1.30957,1.45996-1.87158,1.77246-.5625,.31445-1.06201,.48145-1.49902,.50293Zm-11.26074-3.43164c.4502,.49414,1.05518,.72266,1.81494,.68555,.46045-.02148,.99512-.18945,1.60352-.50586,.60791-.31543,1.13281-.80371,1.57471-1.4668,.44092-.66309,.63525-1.54297,.58301-2.64062-.04053-.84473-.27051-1.79688-.69092-2.85449l-.70508-1.71973c-1.81885,1.55371-3.10059,2.86426-3.8457,3.93164-.74512,1.06641-1.09961,1.97656-1.06299,2.73242,.03467,.73145,.27734,1.34473,.72852,1.83789Z"/><path class="ad" d="M100.86328,97.40234l2.71143-6.2832c.22998-.49219,.3877-.95215,.47021-1.38086,.08398-.42676,.11816-.80176,.10254-1.12207-.05908-1.23438-.74951-1.91211-2.07031-2.03125l-.97412-.0918-.0459-.96094c.74072,.05664,1.49756,.08398,2.27197,.08105,.77246-.00293,1.53906-.02148,2.29932-.05859,.78223-.03711,1.55371-.0918,2.31201-.16211,.75781-.07031,1.50293-.16992,2.23584-.29688l.04297,.89258-.92285,.25098c-.91162,.25-1.67969,.7041-2.30664,1.36523-.62598,.66016-1.2627,1.71582-1.9082,3.16699l-2.03369,4.53125c-.58252,1.33398-1.10205,2.64941-1.56006,3.94238-.45654,1.29395-.75781,2.36914-.90137,3.22363l-1.06787,.11914c-.27783-.99512-.74902-2.03223-1.4126-3.1123-.66357-1.0791-1.34521-2.1748-2.04395-3.28809l-3.11377-5.00684c-.57568-.93555-1.08398-1.66699-1.52393-2.19629-.44092-.52734-.89893-.9248-1.37305-1.18848-.47461-.26367-1.0376-.44922-1.68848-.55469l-.97754-.16016-.04248-.89258c1.01758,.04395,2.01611,.05957,2.99756,.04688,.97998-.0127,1.96533-.04199,2.95557-.08984,.99023-.04688,1.97363-.1123,2.95117-.19336,.97705-.08105,1.95801-.19141,2.94434-.33105l.0459,.96094-1.16455,.2627c-1.21094,.26465-1.79248,.88867-1.74561,1.87109,.021,.43457,.20898,.9873,.56445,1.65723l3.97168,7.0293Z"/><path class="ad" d="M117.37256,101.59668c-1.49756,.07129-2.89111-.22461-4.18018-.88379-1.29004-.65918-2.3457-1.62305-3.16797-2.88965-.82275-1.26855-1.27588-2.78125-1.35986-4.54199-.07812-1.62305,.23193-3.10449,.92969-4.44434,.69727-1.33887,1.68994-2.42383,2.97754-3.25293s2.78271-1.28516,4.4873-1.36719c1.86572-.08887,3.43164,.32812,4.7002,1.25293,1.26709,.9248,2.03467,2.25293,2.30225,3.98145l-.0957,.89844-10.5708,4.83594c.5332,1.00586,1.26807,1.79004,2.20752,2.35352,.93848,.56152,2.06494,.8125,3.37695,.74902,1.47363-.07031,2.75049-.52148,3.83008-1.35254,1.08008-.83008,2.02197-1.75781,2.82715-2.78223l.71777-.92773,.64795,.51758-.9292,1.55762c-1.02637,1.72363-2.28369,3.18066-3.77246,4.375-1.48975,1.19336-3.13232,1.83496-4.92822,1.9209Zm-.83203-9.41406c1.18994-.69824,1.979-1.33301,2.36719-1.90137,.38818-.56738,.56592-1.19531,.5332-1.88086-.04736-.9834-.38916-1.73535-1.02588-2.25488-.63623-.51953-1.39209-.75781-2.26709-.71582-1.05957,.05078-1.98291,.52441-2.771,1.4209-.78809,.89746-1.13623,2.30664-1.04443,4.22656,.05615,1.16602,.26855,2.23438,.63818,3.20215l3.56982-2.09668Z"/><path class="ad" d="M137.49658,82.27539c-.55371-.47656-.84912-1.10352-.88623-1.88184-.03857-.80078,.19531-1.45898,.70166-1.97559,.50635-.51758,1.13965-.79395,1.89941-.83008s1.4165,.17773,1.96973,.64453c.55273,.46582,.84912,1.09863,.8877,1.89941,.03711,.77832-.19775,1.43066-.70312,1.95801-.50586,.5293-1.13867,.81152-1.89844,.84766s-1.41699-.18359-1.9707-.66211Zm3.74023,5.80273l-4.21436,.20117-.04736-.99414,.99512-.18457c1.46338-.27637,2.76904-.74023,3.91504-1.3916,1.146-.64941,2.15479-1.74023,3.02881-3.27148l.95898-1.66309,.77783,.3418c-.3916,.98145-.75781,2.13965-1.09717,3.47168-.34033,1.33496-.46826,2.88281-.38428,4.64258l.24463,5.11035c.05371,1.12012,.1748,1.96191,.36377,2.52637,.18799,.56348,.4834,.94629,.88574,1.14355,.40186,.19824,.92773,.32812,1.57666,.38867l1.59912,.12988,.0459,.95898c-1.04004-.01855-2.07324-.02539-3.1001-.02246s-2.05859,.03027-3.09521,.08008c-1.01367,.04785-2.03125,.11914-3.05371,.21387-1.02246,.0957-2.05029,.20117-3.0835,.31934l-.0459-.95898,1.6123-.31836c.66309-.12305,1.17969-.30273,1.54932-.53906,.36963-.23438,.62109-.64258,.75537-1.2207,.13379-.58008,.17334-1.44141,.11865-2.58398l-.30566-6.37988Z"/></g></g></g></svg>