<?xml version="1.0" encoding="UTF-8"?><svg id="b" xmlns="http://www.w3.org/2000/svg" viewBox="0 0 272.0736 126.43903"><defs><style>.d,.e{fill:#fff;}.f{stroke:#eaaaff;}.f,.g{stroke-width:7px;}.f,.g,.h{fill:none;stroke-linecap:round;stroke-linejoin:round;}.g{stroke:#ffd79f;}.i{fill:#61f4ff;}.j{fill:#201d1e;}.h{stroke:#ffc9db;stroke-width:6px;}.e{stroke:#201d1e;stroke-miterlimit:10;stroke-width:2px;}</style></defs><g id="c"><g><g><path class="i" d="M257.06528,31.33341c.51135-.6488,1.81165-.05664,1.90002,.56927,.41382-2.17889,1.45691-.82745-.11169-3.29529-.02441-1.77124,2.04968-.8476,1.80969,.81171l1.33154-3.22803-1.70654,.71045c-1.06775-2.2312,2.72803-1.13489,1.47192-3.72845l-2.44177,2.12311-.35376-.7406c-.06738,1.13373-1.42896,1.69958-2.02795,1.72498-.1759-.36853-.60291-.86035-.19031-1.25677-3.22339,2.17865,1.68762,4.03894-.46021,6.60999,.12988-.16797,.35461-.28876,.77905-.30035Z"/><path class="i" d="M250.88999,28.48038l.6792,3.26581-2.31531,.68567c.58936,.87018-.28467,2.52283,1.17395,2.62646,.0863-.2605,.26208-.76746,.6062-.89197,1.10754,1.99487-1.84192,2.68256,.03577,4.17072,1.14368-1.54187,1.66284-1.29846,1.50708-3.44385,1.47485-.80255,2.76025-1.09662,3.87866-.88531,.19995-.56989-.56274-1.7359-.21814-2.3288-.0918,.11017-.1748,.21252-.29407,.32086l-2.06433-2.71918c.00281,.88794-.59668,.90167-1.02124,1.29968l-.19214-4.78857c-2.57617-2.07806-3.56873,.96277-5.18408,.4953,2.71912,1.5766-.00122,1.7655,3.40845,2.19318Z"/><path class="i" d="M256.2374,31.67911l.04883-.04535c-.01526,.01349-.03821,.03021-.04883,.04535Z"/><path class="i" d="M95.05967,69.9686c-.09509-.35168-.8064,.34546-1.16113,.70361,.18445,1.42902,.32788,2.8667,.46936,4.30859,.77893-.83765,1.63232-3.15991,2.17981-2.69098,.83276-1.26239-.02563-1.86029-1.09277-.90344l1.22034-.89441c-.81482,.22858-.48645-.60541,.15234-1.59473,.6416-.98151,1.60583-2.08759,2.09583-2.16528l-.02686-.08875c-2.06287,.97766-4.10547,2.24152-6.14209,3.79425-.20312,1.37109,2.07996-1.70178,2.30518-.46887Z"/><path class="i" d="M14.7667,115.24448c.32336-.83459,.1488-1.12805-.16235-1.27618-.01282,.39154,.01404,.79742,.16235,1.27618Z"/><path class="i" d="M91.32993,71.57926c-.63599,.52783-1.26733,1.08344-1.89417,1.66681,.52173-.38562,1.20215-.98816,1.89417-1.66681Z"/><path class="i" d="M119.85056,50.24796c.09729-.0885,.18872-.15167,.30713-.32227l-1.13196,.11078,.005,.0202c.2771,.08807,.54932,.14929,.81982,.19128Z"/><path class="i" d="M78.44834,75.9058c-.05359,.10034-.09949,.1861-.16357,.30585,.04761-.05267,.10352-.16882,.16357-.30585Z"/><path class="i" d="M135.59727,73.92966l-1.50208-2.44366-1.28088-2.44781c.98938,.38849,.43384-2.25781,1.6217-1.50458-.18579-.38953-.73657-2.30127-1.15527-1.51587l.16492,1.14844c-1.47119-.9223-2.42175-.75195-3.31567-.87091-.89417-.10419-1.73218-.49689-2.97668-2.20612-1.29895,3.63879,.27747,4.0387,1.64526,5.04614,.23779,.43274,.36108,.83337,.51831,1.22125,1.42493,.93414,2.78894,2.00055,4.37866,3.06769,.63269,.1582,1.2666,.32672,1.90173,.50543Z"/><path class="i" d="M31.72544,74.84745l-.12573-.18042c.0304,.07581,.07629,.13196,.12573,.18042Z"/><path class="i" d="M31.07859,73.92588l.52112,.74115c-.19031-.43402-.03809-1.16913-.52112-.74115Z"/><path class="i" d="M92.90781,69.87241c-.44507,.54413-.9978,1.13611-1.57788,1.70685,.47485-.39648,.94739-.77673,1.42456-1.14178,.01526-.12183,.09155-.35474,.15332-.56506Z"/><path class="i" d="M98.33213,65.00266c.19714,.53583,.38,1.08331,.56445,1.64056,.44604-.20978,.88867-.40576,1.3335-.5885-.55518-.31262-.97095-.91064-1.89795-1.05206Z"/><path class="i" d="M78.93711,77.81052c-.72791,.66888-.37512-.60663,.15833-2.23279,.52954-1.61475,1.35046-3.57642,1.07019-3.9668-.66541,.89661-1.32385,3.38892-1.71729,4.29486,.80249-1.40778,.33313,.60638-.17029,2.70215-.48926,2.09564-.99365,4.26819-.47717,3.42926-1.23816,4.49115-1.47156,4.96851-1.41785,3.94006,.521-3.90106,.72729-3.10956,1.698-7.24603-.51807,.92316-.59534,1.63177-1.13892,3.98596-.14075-.30408-.56848,1.09076-.80762,1.8396-.25549,.76093-.35254,.89746-.29419-1.58167-.37817,1.06177-.43884,2.7851-.60486,4.76038-.11292,3.8399,.12683,1.8739-.1217,5.01971,.04016-.50702,.09094-1.14801,.12463-1.573-.00635,.2688-.02063,.54352-.04309,.82422,.06372-.70319,.1449-1.70294,.25525-2.59705,.10657-.89117,.24707-1.68011,.30627-1.87103,.0647-.12805,.20618-.39728,.01709,.78101l-.18933,.94928c-.05566,.63489,.08008-.15125,.23816-.84747,.15112-.69073,.32422-1.29309,.15015-.14398-.11841,.59845-.32556,1.64581-.40833,2.06451,.63318-3.03027,.71057-2.94208,1.5011-5.2674-.43335,1.53528-.83484,3.05737-1.20642,4.56201,.62073-2.5014,1.03113-3.49792,1.19165-3.49451,.16235-.00232,.03711,1.02911-.36523,2.40741,.26904-.79047,.40686-1.35242,.76172-2.24524,.29456-.54767,.19495,.00024-.14905,.97528-.33691,.97314-.90479,2.36407-1.40002,3.5744,.57092-1.38605,.62268-1.30164,.49463-.88885-.12292,.41693-.42981,1.13721-.39746,1.12921,.01306-.00116,.07581-.10217,.21924-.35004,.25317-.44281,.48621-.85046,.70239-1.22864,3.85144-6.75079,8.14441-12.19989,12.51868-16.26929-.33594,.24725-.62268,.4176-.76282,.383,2.03979-3.4054,1.71265-3.41547,3.87952-5.35608-1.28748,.71027-2.90784,3.5127-3.24487,2.53314,1.12842-1.19385,3.60803-4.59637,3.49866-6.34161-1.34253-.01721-3.39465,1.75269-5.52612,4.31189-2.57324,3.06152-5.38623,7.32526-7.23706,10.5058,.55664-1.57245,.46667-2.19128,.18945-2.39624-.27698-.21216-.69385-.02734-.85815-.27155,1.06689-3.39313,1.85718-4.57086,2.64612-5.34418-.29395-.16827-.87378-.06256-1.26306-.00616l-1.82031,6.54645Z"/><path class="i" d="M86.79844,68.34897c.09216-.31836,.12439-.52197,.15002-.71893-.09583,.27893-.14929,.5163-.15002,.71893Z"/><path class="i" d="M82.1627,71.34842l.11926-.34161-.26147,.26343c.05322,.01068,.11084,.04803,.14221,.07819Z"/><path class="i" d="M96.51389,64.11203c.51074-.39972,.67102-.39655,1.18616-.776-.18506,.05994-.34412,.04156-.51428,.05157-.2511,.12793-.48743,.35205-.67188,.72443Z"/><path class="i" d="M93.7208,68.68515l-.69678,.78192c-.06482,.18317-.07336,.26324-.11621,.40533,.37048-.45154,.67554-.87262,.81299-1.18726Z"/><path class="i" d="M72.82969,59.46598l-.27942,.76746c.18628-.18872,.25342-.46301,.27942-.76746Z"/><path class="i" d="M78.374,73.78708c.63196-.69885,.81531-4.38611,1.81958-5.08246l-.24255-.07379c1.11475-2.40802,2.39966-2.36523,3.50378-2.72009-.68396,1.87781-.09473,2.16376-1.17285,5.09607,.83423-.76038,1.67529-1.27185,3.19556-4.06696,.00269,.58728,.41504,.3064,.80798,.13129,.39319-.18237,.76807-.26556,.66296,.5589,.31641-.93549,1.10352-2.17511,1.59106-3.05542,.47815-.86823,.68506-1.48511-.33191-1.0553,.19397-.1369,.3125-.58496,.50854-.72577,.16663-1.5752-.3512-1.40802-.96326-.83801-.60986,.5495-1.32336,1.49078-1.75281,1.42206,.09412-1.84515,1.92346-2.5827,1.67957-3.39056-.87866,.60785-1.64038,.065-2.44189,.33197-.80029,.25922-1.56555,1.20605-2.40063,4.39819-.82019,.74445-.54297-.59509-.48267-1.63885-1.38916,3.65961-2.06799,3.4834-2.78247,3.61981-.70203,.11249-1.37622,.39856-1.82385,4.29181,.35645-.54401,.81079-.72614,1.59241-2.82794l-.96655,5.62506Z"/><path class="i" d="M95.86338,62.19284c.00427-.11469-.03625-.19916-.01196-.32587-.00623,.11108-.00122,.2298,.01196,.32587Z"/><path class="i" d="M83.33384,87.90635c-1.09973,.58783-2.19617,1.20264-3.28723,1.84424-.43066-.09821-.41235-.31293-.31995-.62701,.09448-.30499,.26819-.69885,.17981-.95038,.42786-.47174,.70886-.66064,.85303-.74829-.20532-.0741-.15698-.45459-.24939-.68079-.08997-.22052-.32068-.27222-1.04626,.49017,.01233-.12756,.9093-1.84412,1.82507-2.93347-.2843,.28003-.56091,.55664-.48291,.32495,1.07629-1.58588,.35229-.22015,1.24402-1.45984,.05542-.19165,.25842-.52808-.08679-.06384,.96179-1.12952,3.6416-5.47504,3.74963-4.28345-2.50317,3.7746-.41064-.30243-3.18469,3.78174,.02148,.27454,1.10999-1.21844,1.45801-1.65576,.00061,.47467-.72266,1.37762-1.37207,2.19995,.9043-.98987-.2749,.94989,1.09644-.48608,.15503,.2326-.3927,.83765-.9613,1.44763-.56982,.61005-1.16431,1.24005-1.13,1.39551,.98328-1.03406,1.9696-2.03766,2.95911-3.0108l-.48096,1.40796c.57068,.06146,1.85596-1.13318,3.21826-2.44519,1.36426-1.28973,2.80127-2.71509,3.74622-2.2804-.79419,.5177-1.82605,1.59247-2.73425,2.64166-.90796,1.05646-1.69019,2.07263-1.96997,2.68024-.07812-.18799-.62622-.10864-1.04468-.09082-.41833,.01031-.70776-.04095-.28735-.70776-2.27612,2.81891-.35913-.68225-2.98779,2.27875,1.27869-.99744,1.49768-.5575,.84375,.38409l-.28625,.11407c-.14343,.31964,.57605-.10175,1.19373-.34802,.61511-.25793,1.13501-.32806,.56152,.41248,.13562,.25427-.73486,.75012-1.45215,1.17419,.48157-.08167,1.11316-.21216,.43542,.19427Zm-.71069-.17065l.26428-.56177c-.4895,.44849-.46191,.55219-.26428,.56177Z"/><path class="i" d="M236.13084,39.26255c.15833,.00317,.33276-.00494,.48425,.00989-.16052-.08368-.32434-.05817-.48425-.00989Z"/><path class="i" d="M135.82407,86.65293l.57214,.05359c-.23169-.09363-.41162-.09003-.57214-.05359Z"/><path class="i" d="M145.58201,73.01529l.54968-1.02271c-.2998,.15381-.44556,.53687-.54968,1.02271Z"/><path class="i" d="M228.44688,44.00437l-.04431-.00055c-.02161,.08093-.02014,.17078-.04956,.24622l.09387-.24567Z"/><path class="i" d="M177.86094,67.51718c.27588,.18323,.55859,.33417,.87732,.40063-.17529-.28693-.48621-.40222-.87732-.40063Z"/><path class="i" d="M145.47983,73.20584l.06909,.04358,.03308-.23413-.10217,.19055Z"/><path class="i" d="M131.78086,76.88413c-.05457,.10565-.10352,.1828-.16772,.32629,.07275-.06189,.12366-.18445,.16772-.32629Z"/><path class="i" d="M131.62986,86.50376c-.10571,.08142-.21021,.18439-.2948,.3255l.2948-.3255Z"/><path class="i" d="M130.20212,79.36283l-.57031-.07404c.12134,.1189,.32739,.12268,.57031,.07404Z"/><path class="i" d="M130.44382,84.17929c-.04761,.16296-.09448,.32361-.13147,.45001,.07935-.09851,.13452-.29376,.13147-.45001Z"/><path class="i" d="M247.21287,43.96427c-.01953,.01343-.03406,.03735-.04553,.04529l.20142,.34003-.15588-.38531Z"/><path class="i" d="M246.4874,38.48001c.18384-.25287,.38354-.50385,.5802-.75031-.28662,.17627-.49243,.45312-.5802,.75031Z"/><path class="i" d="M193.48057,65.68674c.46814,.3078,1.30566,.53003,1.30493,1.16284,.12781-.86743-.70764-2.36646-1.30493-1.16284Z"/><path class="i" d="M254.84995,64.43808c-.11218-.47693-.12805-.88531-.1416-1.29108-.05688,.63287-.12378,1.16516,.1416,1.29108Z"/><path class="i" d="M254.70835,63.14701c.02661-.31512,.05945-.64465,.05688-.9646-.04834,.29657-.06714,.6228-.05688,.9646Z"/><path class="i" d="M200.16721,93.91922c-.16846-.17413-.35413-.29553-.5144-.28186,.24805,.39087,.39929,.42474,.5144,.28186Z"/><path class="i" d="M247.97617,37.75388c-.32471-.75824,1.86597-4.45123-1.06506-2.89221-1.33923-2.13129,1.05347-2.16541,1.40967-3.17816-.86011-.11572-.67676-1.49805-1.35596-2.12091-.17493,.49854-.17786,1.3833-.86536,1.64899-.93005-.75098-.4967-2.0105,.44067-2.14636-1.61646-.48621-.08069-2.38269-1.86792-2.36847-2.04541,2.52429-3.31628,4.55597-3.07837,8.82501,1.15295-1.50684,2.36633-3.27673,4.15149-3.3031l.74231,2.14093c-2.46313-.59918-2.49194,1.16071-3.97241,1.92004,1.23804-.37616,2.47632-.75702,3.70325-1.15924,2.46008,.48248,1.75024,1.49164,.84912,2.60931,.29248-.17236,.6178-.24164,.90857,.02417Z"/><path class="i" d="M256.76731,54.8989l.08875,.01398c.00317-.09564,.03296-.17609,.01001-.27283l-.09875,.25885Z"/><path class="i" d="M91.01206,99.45414l-.96692-.10602c.52722,.23505,.81433,.23798,.96692,.10602Z"/><path class="i" d="M248.90537,47.50571l.00232-.00159c-.00781,.03394-.01294,.03741-.00232,.00159Z"/><path class="i" d="M99.3104,111.27298c-.05505,.02344-.11633,.05304-.19092,.07202,.08679-.00659,.13245-.05206,.19092-.07202Z"/><path class="i" d="M129.00803,81.7695l.01587-.02008c.05054-.06262,.02612-.03271-.01587,.02008Z"/><path class="i" d="M99.46262,111.13797c-.04639,.04633-.08582,.09924-.15222,.13501,.05969-.04266,.12708-.07178,.15222-.13501Z"/><path class="i" d="M154.91672,112.37497s-.24426-.32025-.55872-.60175c-.02515,.21777,.12341,.42072,.55872,.60175Z"/><path class="i" d="M145.55955,111.39371c-.07031-.06732-.11633-.13184-.20337-.20349l.20337,.20349Z"/><path class="i" d="M187.34836,57.84067c-.3407,.14288-.55933,.31995-.72266,.51086,.2627-.07648,.5166-.2179,.72266-.51086Z"/><path class="i" d="M99.11948,111.345c-.27332,.04974-.59998,.05804-1.07227-.00818,.5127,.07953,.83484,.06348,1.07227,.00818Z"/><path class="i" d="M163.09556,97.78617c-.04651,.10864-.09009,.21063-.13379,.31299,.06006,.02063,.11218,.02039,.17432,.04669l-.04053-.35968Z"/><path class="i" d="M167.51267,97.67026c-.03125,.28326,.00977,.54364,.02502,.78021,.99792-1.41046,3.86023-1.60266,3.20801-3.84698-.4314,.25696-3.32776,.04651-3.46899-1.37598-.69678,.93939-2.7085,.03381-3.05615,.59161,2.01672,.51813,.93372,1.72803,.19116,2.88721-1.20654-.23389-.53943-1.79205-1.51404-1.85419l-2.07971,1.11987,2.01355-.48511,.26404,2.29926,.11523-.27765c2.84192-2.29547,1.53394,2.90192,4.30188,.16174Z"/><path class="i" d="M167.5377,98.45047c-.14917,.21503-.26111,.44818-.30774,.72565,.29431-.16412,.32471-.42303,.30774-.72565Z"/><path class="i" d="M182.18711,95.85306c.13196-.14642,.26538-.32495,.41553-.58704-.06958,.12891-.27161,.34119-.41553,.58704Z"/><path class="i" d="M100.04771,67.91233c-.5647,.65723-1.60657,3.44507-.10669,2.02252,.11169-.67194,.22424-1.34888,.3374-2.02924l-.23071,.00671Z"/><path class="i" d="M212.23679,69.11924c-.2218,.06531-.42749,.16016-.61121,.29401-.00085,.09692,.00525,.20325,.01611,.2959,.2439,.15173,.47791-.34021,.59509-.5899Z"/><path class="i" d="M167.52598,92.24137c-.23352,.38733-.27673,.70105-.24927,.98615,.16626-.21936,.27979-.51166,.24927-.98615Z"/><path class="i" d="M214.35435,72.59574c.49316,.28357,1.23352,.72253,1.60925,1.25964,.52466-.27917,.44299-1.26233,.80774-1.83752-.46765,.55237-1.24109,.78882-2.41699,.57788Z"/><path class="i" d="M216.79807,71.96616c-.00708,.02216-.01819,.0365-.02673,.0517,.01453-.00848,.01721-.03369,.02673-.0517Z"/><path class="i" d="M100.58567,66.20304c-.12817-.03638-.24573-.08673-.35559-.14832l.41907-.17157c.11035-.5838,.22009-1.164,.33008-1.74603-.11023-.04803-.21667-.11212-.28894-.25555,.05981,.02295,.22241-.08984,.38855-.2326l.13049-.60529c-1.63245,.69006-3.03198-.22736-4.02356,.34393-.76868,.02026-1.31201-.41919-1.32239-1.19476,.08752,.60004,.52209,.9375,1.29944-.4425,.31226-1.20203,1.04846-2.86591,1.35718-4.14172,.32739-1.26678,.21411-2.18097-1.09668-1.60168l.36719,1.22015c-1.27075,.66443-2.54663,1.46924-3.80847,2.41089,.4624-1.51379,.94897-1.8855,1.45862-2.01025,.49939-.12781,1.05054-.02966,1.64795-.73199-.90991,.13867-.79834-1.28107-.67151-2.7785,.15417-1.49121,.31396-3.03442-.32178-2.7746-.21387,.08643-.52014,.38361-.94177,.96069,.68103-1.51886,1.59985-3.55548,2.19897-5.36371,.60034-1.80316,.88904-3.41626,.23767-3.9212-.37073,2.18921-.80298,2.53418-1.24268,2.91602-.45178,.37878-.92126,.80273-1.4292,2.97821-.5697,.67212-.74841,.11102-.95935-.31763-.20447-.43457-.4436-.7063-.94788,.42395l.64954-1.21289c-.15723-3.11755-1.46301-2.50146-2.68958-.86005-1.25964,1.63739-2.55469,4.31854-3.43079,5.6886-1.54102,.96088-2.36914,1.22552-3.14014,1.39453-.75891,.17975-1.44604,.31104-2.41833,1.22076,.30859-1.91455,.68958-6.83569-.25281-5.96759-.81934,2.88647-2.78809,5.39087-3.23389,8.64636,1.14758,.37726,1.38403-3.47076,2.36267-4.87659,.17651,2.93738-.41772,3.34222,.11243,4.78467-.22876-.42804-1.08875,.60406-1.88574,1.37946-.80334,.78223-1.56079,1.3092-1.84644,.09772l.30139-.63165c-.55042-.45374-.82666-2.4856-1.32568-3.58386-.47888-1.11346-1.24951-1.24097-2.37964,1.8031-.35681,.86377-.69067,1.71967-1.00439,2.56445,.03223-.31769,.01672-.6463,.02832-.9173-1.7644,1.07806-1.71838-2.28241-3.41199,1.66803,.12585-.30127-.02136-.50812,.1106-.80896-.71021-.26257-1.26392,.5813-1.66418,1.61987-.40955,1.03979-.68127,2.26038-1.00989,2.87201-1.08398-1.56989-.45032-2.04541-.4856-3.78833-1.17773,.47925-2.12585,2.05896-2.698,3.82623-.57324,1.78876-.77124,3.76648-.77722,5.27509-.55652-.01874-1.12952-.02386-1.71887-.01526,.2832-1.25409,.30078-3.86975-.4574-4.72827-.57898,.97565,.01404,1.65057-1.20227,2.18829-.44995-1.20044-.58044-2.57208-.76025-4.39374-3.46826,.25421,1.69543,4.17041-1.91406,2.34467-.76526,.61908-.16138,2.43591,.62805,3.6814-.77502-.17456-1.57385-.32861-2.3999-.45923,.50232,.79462,.41736,1.5163,.07349,2.20038-.36011,.69891-.96436,1.34351-1.39758,1.9054,.39783,.71143,2.151,.76666,2.07703-.11963,.87964,1.17499,.21033,2.64423-.5105,3.25409-2.83728-2.698-4.26306,4.52979-6.48779,.35974-1.17151,1.90088-2.77808,3.95319-4.22913,5.89655-1.43152,1.96411-2.68054,3.84778-3.14282,5.39764-1.42236-.15424-2.81702,1.13025-3.26855-.98193-2.48071,2.40625-.98279,6.46185-4.11597,8.1134-.54395-.14783,1.06079-1.11108,.06018-1.95111-.45972,2.68817-4.0531,1.68134-5.72595,4.90143,.35486-.46698-.10291-1.15387-.33459-1.49524,.50317,.40967-.03076,1.95874-.20203,3.03735-.59106,.12683,.12988-.80725-.422-.95062-6.05896,3.48901-5.64136,10.87451-10.18176,15.62518,1.29272-1.37-.12817-3.62256-.90137-4.35278l-1.29041,1.34418c.48242,1.39838-.44421,2.44092-.49292,3.9538-.4585-.21594-1.22693-.13739-1.29932-.97516-4.42615,1.02618-.21277,7.41925-4.13452,9.91626l-.41333-7.51978-2.25812-.15729-.21271-3.39008c-2.0282,.16565-.34857,3.28235-1.94568,2.13556-.22021-.59393,.39642-1.03876-.38861-1.74799-1.49194,.56042-.45721,1.5965-.85022,2.63867-.61115-2.33783-.02551-4.55273,.89301-6.51263,.92377-1.95587,2.14703-3.68237,2.76031-5.11053,.07379-.55634,.45276,.93915,.70038,1.26947,.69336-.98987,2.10876-.67914,2.60913-2.25873-.61267-1.8244-1.3988-.30402-2.0332,.12714-1.01709-1.0567-.69849-1.27588-.29901-2.03748,1.57037,1.18451,3.58051-2.91858,6.06769-2.06378,2.58545-3.64435-4.1825-2.93323-.58533-5.51855l2.50989,.59155c.47632-3.01367,1.67126-6.42767,4.01355-8.14362l-.37476,.47809c.40002,.9566,1.28308,.89514,1.84058,1.03485,2.198-.84686,1.65234-4.138,4.15198-3.4751,.07227-3.41107,1.80432-7.55237,3.02063-10.39624,2.57361,1.60248-.94666,4.35767-.49609,6.50146l1.83008-1.79004c-1.11011,1.12903-.78015,2.37134-.28735,4.2298,1.98425-1.15369,.7041-3.53595,1.73718-5.5387,.43286,.69397,.97925,.85681,1.70667,.20251l-1.14172-1.61053c.12268,.10321,.30322,.13586,.60962,.0188l1.94409-3.46936c-1.15747-.06238-2.34778-1.27991-3.08105-.6203,1.03467,.59113,.5824,1.32843-.15466,1.98071-.24683-1.52087-1.43835-.12512-2.14929-.90564,1.4834-1.31512,3.06006-3.19171,3.66626-4.45404l1.53247,1.03894c1.69788-.93384,2.49023-3.01959,3.78674-3.49341l.34509,.98322c2.03577-1.10437,2.94336-3.43408,5.59778-3.44617,.06812-1.44312,.30896-2.89728,.51575-4.33081,.06934-.37445,.05957-.68207,.18396-1.10779,.12415-.43665,.24561-.86462,.36365-1.27991,.23071-.85193,.43286-1.69934,.57178-2.5285-.2002-1.34485,1.92664-2.2182,4.10364-3.18787,2.19092-1,4.36475-2.14386,4.97742-4.7514,.26318,.10559-1.03076,3.09412-1.43542,4.56195,.89392-.49927,1.34106-1.68134,1.79041-2.52802,.44482-.84308,.87598-1.33826,1.61096-.36414-2.00305,1.10999-1.74866,1.53088-1.16113,1.92352,.58777,.39246,1.46155,.79364,.82849,1.76141,1.58704-1.38617,3.15356-3.14575,3.69592-4.68604-1.35645,1.07343-1.42273,.04883-1.42468-.85797-.00012-.9082,.04272-1.68329-1.22217-.01978,.74341-1.88843,1.88623-3.69073,3.22656-5.1925,.66943-.75037,1.38684-1.4245,2.12183-1.99207,.36743-.28381,.73926-.54089,1.11169-.76746,.37427-.20709,.74951-.37958,1.12122-.52087,.18591,1.18219,.6311,1.47906,1.71484,1.24243l.57019-2.30835c.67383-.30774,.10876,.65625-.26331,1.52704-.37598,.87299-.55872,1.65277,.7356,1.05981,1.08911-2.37946,3.16565-3.4967,4.93262-4.52454,1.76562-.85248,3.30481-1.93353,3.95667-5.12103,.99854,.59656,.00183,1.68622-.81445,2.76862-.83118,1.08313-1.46655,2.15808-.03271,2.74011-.83484,1.50818-1.79382,1.99023-2.63245,2.49377-.82935,.44873-1.54651,1.19421-1.7063,2.77313,1.5282-1.94427,.72107,1.93939,1.68982,1.36066,.53003-.92834,1.07812-1.85767,1.64429-2.7879l-.38184,.11646c1.42175-2.21094,3.38123-3.67621,5.41248-4.91846,1.92944-.93756,3.91455-1.63971,5.74817-2.67175,1.77563-2.11975,3.32654-4.12299,5.03894-5.69073,1.70068-1.55011,3.47717-2.59656,5.55981-2.46539-.83606,.70386-.05542,1.05328,.49622,1.55212,.56665,.53015,.87341,1.15265-.8457,2.39697,.76917,.62659,1.75403,.63428,2.62097,.43793,.86182-.19598,1.59497-.65863,1.79797-1.14716-1.67273-.7688-.51477-.48895-1.85913-1.24689,.71521-.54602,1.67896-.68054,2.54858-.47253,.8667,.21954,1.62109,.75623,1.92261,1.36395-.39111-.29242-.32593,.02246-.56848,.34961,.8606,.86768,1.20813,.70697,1.56873,.34436,.35742-.36102,.73096-.93121,1.51672-.74323-.23022,1.57898,1.65649,2.23944,2.46533,3.47272,.18262,.27319,.31677,.56061,.38721,.88153,.82434-.33167,1.66724-.68298,2.50891-.99976-1.53662,.80072,.8501,1.94824,.12488,3.69403,.71216-.01544,1.55652-.30591,2.3136-.28351,.76978,.00647,1.49426,.28906,1.90454,1.42474-.51135,.0451-.45325,.76196-.42126,1.6745,.02368,.92554-.00171,2.06647-.56628,2.89252,.2533,2.38684,1.62256,2.70477,3.03064,3.17023,.69287,.23706,1.35999,.54077,1.84058,1.12146,.45459,.6181,.71179,1.53174,.50989,3.0163-.36731,.22888-1.49268,.47028-1.53223,1.94769,.63965,.44006,.89514,2.15662,1.28674,2.98303l-.04895,.00995,.05396,.01025c.19922,.39563,.45789,.52014,.81982,.19128,1.84436,.38373,3.61804-.15625,5.67529,2.73828,1.75391-1.72388,.34106-4.56146-.56738-5.3653-.6665,.12494-1.32666,.2605-1.98047,.40662,1.15918-1.76196,.80054-2.44714,.27051-2.89014-.53003-.45374-1.25525-.61682-.96631-1.42065,.88342-.26154,1.61511-.00305,2.26306,.56781,.66211,.54449,1.20703,1.45679,1.73315,2.46814,.53296,1.00024,.9906,2.19592,1.52576,3.2572,.49316,1.12823,1.08521,2.10107,1.7511,2.89331,.52905-1.16992,.84668-2.41541,1.02563-3.74249,.19116-1.34546,.19763-2.70038,.08569-4.05121-.08984-1.38763-.36584-2.6535-.67761-3.92877-.33191-1.23859-.75745-2.38629-1.20886-3.43805-.09424,.97839-.22034,1.9975-.33984,2.9798-.26721-.76617-.51306-1.57452-.80273-2.2937-.30859,1.30646-.67334,2.67792-1.03357,3.99188-.09009-.62036-.22351-1.17755-.38013-1.69366-.16821-.49323-.35901-.94714-.55322-1.38739-.37683-.90173-.81189-1.66699-1.12244-2.60229,.89771,2.02832-1.09802,5.2973-1.13684,3.6897,.66968-4.00238-1.89453-1.2569-2.47644-2.95953,.25281,1.06421,.70825,2.27124-.47815,2.53107,.13293-1.32495,.11914-2.29486,.04614-3.07916-.09204-.75531-.2428-1.32831-.38647-1.89825-.13831-.57922-.28906-1.12537-.38843-1.83954-.10461-.70746-.12-1.6394-.10657-2.8432-1.01294,1.70612-1.54309,1.00604-2.08008,.15991-.56824-.80377-1.14392-1.77411-2.08887-.65771,.19861,.43469,.37329,.8963,.55798,1.34302-.91199-.15796-1.84058-.25836-2.7373-.3634,.05054-2.26831,.73962-2.46674,1.33252-2.7157,.55359-.21814,1.0603-.5575,.30029-2.89868-1.93958-2.52002-3.49268-.38531-5.18286-.81494-.28723-.05383-.59741-.1853-.93127-.41632,.43945-.32916,.95239-.57495,1.50391-.71606,.69666-.18555,1.44788-.20966,2.17334-.04895,.71069,.1803,1.3949,.56464,1.95776,1.16895-.14612-.62683-.31189-1.23676-.47803-1.85364,1.14197-.59326,3.23865,1.96185,4.16211,3.36005-1.52734,.03485-1.41321,.43646-.99194,1.15533,.41626,.73059,1.13696,1.82947,.90747,3.16278,1.36414-1.59589,.15308-2.76691,2.32373-2.47473-.55676-.81897-.94763-1.17847-1.28857-1.72675-.34009-.55048-.68884-1.19891-1.28088-2.45532,.36768,.60175,.7511,1.00964,1.14697,1.28027,.38135,.29114,.78113,.43622,1.19507,.48444,.83545,.08362,1.69763-.17297,2.55383-.42426,.85266-.24542,1.72095-.52551,2.45276-.30756,.73279,.21301,1.41431,.78461,1.79443,2.32867-1.85132-1.31561-1.53357,3.26105-2.10938,4.33789,.35144,.38629,.84949,1.03809,1.3822,1.61884,.53528,.57471,1.03223,1.21124,1.42773,1.45477l1.77759-3.28009c.57495,.51263,.77039,1.26575,.75098,2.16986-.02612,.91827-.2373,1.93719-.41003,2.91791-.16638,.9693-.31543,1.94293-.19238,2.7619,.11987,.82745,.53979,1.44287,1.4314,1.93121,.77637-.36951,.65588-1.44977,.33606-2.255-.30798-.82587-.74426-1.48633-.49268-1.26196,.40808,.49811,.72119,1.02661,.95276,1.578,.2168,.57904,.34863,1.18768,.41833,1.80756,.15002,1.22284,.00037,2.57654-.27649,3.98431-.13599,.70001-.30212,1.41138-.48083,2.13391-.19458,.73651-.3927,1.48688-.59888,2.26721-.20056,.76752-.39612,1.54675-.56909,2.33942-.1875,.81311-.35486,1.64313-.48108,2.48926,.79724-.20862,2.40857-1.48273,4.03796-.31683-1.61377,.39777-2.1781,2.35864-3.61353,.92743-.3689,2.27551,1.03503,3.75208,1.81543,5.16333,.22681-2.30408,.82129-2.2486,1.4895-1.52533,.66992,.71405,1.40967,2.10498,1.89905,2.26953-.06616,2.39502-1.5835,.1062-2.18591-.92816-.10608,.98193-.6897,2.30341-.94189,3.32074-.25122,1.02051-.17114,1.74854,1.02942,1.68018-.80835,.42651-1.98999-.25836-3.05676-1.30798-1.07117-1.05481-2.04089-2.46234-2.43066-3.76483l-.02917,2.11298c-.97217-.85968-.77527-1.21503-.77209-3.28223-1.00256,2.6767-2.4115,3.31342-3.60901,3.65649,.20618-.37793,.39783-.11743,.60022-.48328,.22705-1.71533-.36731-2.51166-1.17139-1.58801-2.31396,.25848-1.08118,2.8266-2.05273,4.427,.22839,.61084,.45691,1.22186,.68103,1.82111,2.60864,1.03503,5.20386,2.48615,7.8374,4.27161,.61609,1.58881,.53528,2.97681,.35107,4.22308-.11182,.63379-.28833,1.25348-.47217,1.88507l-.07007,.23175-.09082,.09784-.17932,.19965c-.1178,.13495-.23083,.27344-.33264,.41534l1.9342-.38965c.01636,.25739,.00427,.43109-.06323,.60388-.06714,.17969-.1886,.36316-.38757,.54352-.39709,.34625-1.08972,.69269-2.33813,.92523,.60352-.26251,.42468-.30304,.45764-.49493-.25757,.07068-.4491,.09839-.61255,.10333l-.33569,.0777c.44177,.32129,.80566,.505,1.06531,.61908,.25659,.12268,.40808,.18933,.45337,.18115-1.52991,.01978-2.3988,.26825-3.23682,.77466-.84778,.48553-1.68811,1.20825-3.34192,1.76434,.28259,.22192,.58813,.37915,.87488,.54828,.28308,.17834,.57104,.32129,.85901,.43115,.54834-1.25623,1.51416-.79736,2.02783-.81946-.84045,.53046-.69434,.74078-.36963,.84869,.31799,.1496,.82825,.04517,.797,.27454l-.33264,.22314c-.19043,.35455-.1355,.52954-.00122,.68671,.15137,.10822,.40076,.1037,.66321-.00061,.21863-.24323,.93945-.91364,1.68848-1.7478l.56396-.64838c.03064-.03601,.12878-.15515,.10339-.1236l-.02881,.03717-.05017,.06573-.07812,.09357,.2373-.29663c-.00842,.00946-.08911,.11096-.06396,.07941-.08972,.11792-.13,.16364-.13,.16364-.02393,.02502,.02356-.0213,.07434-.09174,.17249-.22742,.32336-.38776,.51233-.5791,.26685-.30005,.53198-.55322,.77771-.76056,.30676-.29047,.64758-.59332,.91504-.79938,.13794-.10455,.26562-.20148,.38354-.29095-.23914,.17365-.45605,.33118-.65686,.47693-.48462,.40881-.2334,.2381,.03748,.00653l.10168-.08459c.0509-.04266-.03369,.02686-.04431,.0354l-.17212,.14429-.3772,.33807,.29382-.26617-.32178,.26147c-.18042,.13971-.29785,.21985-.36768,.20923-.07202,.0033-.1051-.02863-.13135-.06781-.02417-.05414-.03235-.16174-.0719-.23248,.44495-.3205,.89258-.61603,1.34839-.9245-.30212,.0246-.63525,.07764-.97705,.05505,.85291-.22693,2.3656-1.07886,2.74146-1.05719,.65381-.3894,.57227-.3772,.34937-.34351-.11084,.01611-.26111,.06525-.35864,.0451-.09583-.02838-.14392-.08447-.05457-.19513-.67639,.27142-1.35999,.53113-2.05066,.77881,1.12781-.45123,1.07336-1.21844,2.78918-1.38635,.31348,.02234,.63232-.06238,.92798-.11591,.1488-.03162,.29333-.06091,.43506-.09967l.41882-.18585c.43042-.24823,.86292-.46991,1.30005-.70062,.02576-.00372,.08789-.04987,.07959-.04706-.2959,.1543-.59045,.31598-.88342,.48505l-1.60168,.94385,.703-.41138c-1.18213,.65155-1.91699,1.24792-2.21558,1.41309-.34778,.23334-.48853,.34009-.63037,.44458-.14136,.10687-.28442,.21136-.62488,.49261-.14172,.10596-.31018,.22729-.54175,.41748l-.38843,.3338c-.13843,.12158-.32642,.31134-.43481,.39636-.71777,.66052-1.21277,1.2074-1.57605,1.78479,.22205-.336,.10901-.16504,.20398-.30865l-.08167,.12164-.18372,.27588,.00549-.00769,.01062-.01526,.02087-.03003,.03931-.05804,.07056-.10858,.22595-.383c.08899-.14923,.16125-.28113,.22717-.4101l.22705-.44934c.09021-.17871,.1582-.33075,.13635-.28259-.04089,.08197-.13989,.28003-.41333,.8277,.104-.20587,.18005-.35632,.34509-.68317,.11401-.23114,.19226-.43347,.28979-.65131,.07654-.17664,.125-.28876,.18384-.42444,.22107-.56335,.54126-1.42737,.53809-1.45898,.09253-.24982,.22375-.60315,.33191-1.00525,.27478-.8269,.51208-1.87579,.73425-2.83368,.19434-.94391,.35815-1.79297,.45911-2.15314,.1189-.36328,.19421-.24908,.57117,.70563l-.10022,1.20917c.59912-.73938,1.17737-.77612,1.87903-.78143,.7915-.02869,1.60864,.01587,2.57495-.63794,.70874,.93042,1.49121,1.82123,2.32483,2.69501-.29553,.54773-1.02454,3.0365-.21338,4.39496-.76599-1.45343-1.31323-1.87073-1.83716-2.11102-.50623-.26837-1.00159-.33563-1.54712-1.11316-.00208,.81836,.43738,1.35931,.67651,1.82336-.59229,.06201-.9967-1.33411-1.66541-.70575,.07947,.63483,.97351,1.31854,.38989,1.76263-.42273-.58917-.71899-1.23022-1.04871-1.83881-.50354,.47729-.6062,1.63519-.74377,2.55554-.13831,.92828-.354,1.63165-.98279,1.18335,.30164-1.70941,.71521-4.18091,1.12134-4.60046-.51257-.35699,.64941-1.06158,.14246-2.06824-.63452,2.5567-.99585,.55432-1.71729,2.09363,.10999-.35059,.14221-.83234,.32385-.98682-.29968-.37561-.51233-.75092-.5675-1.12756-.13904,1.47729-.55225,1.56567-1.00317,3.7074,.12854,.50232,.37695,.42902,.53979,.39374,.22412-.04675,.35291-.02301,1.14978,.63147-.47815,.4873-1.1908,2.66724-1.77979,4.67694-.00488-.08887-.02209-.16016-.07227-.20483-.56104,2.11444-.38428,2.74036-.87085,6.52008,.75525-1.27374,1.2052-1.35352,1.72839-1.29297,.52002,.04834,1.09924,.24207,1.84338-.54669,.2301-2.09064-.82104-2.64459-1.44263-2.15112,.38855-.43707,.78125-.89709,1.15405-1.35181l-.22839,.95581c.9906,.24084,2.05383,.43567,3.26855,.54517-.68176,.19086-.77173,1.38837-1.08093,2.33203,.46008,.05249,.96326,.56946,1.5625,1.10815-.30212-1.97235-.36401-3.37939,.09058-3.3866,2.37708,.20056,4.06323,1.70355,5.49951,3.72308,.09167-.0661,.19495-.14062,.2782-.20056-.83679-1.89844,1.05664-3.98291,1.27771-6.20435,.48657,2.04541,1.59253,.90656,2.63086,1.71301-.27698-2.44904-1.75757-5.48157-3.06116-7.18579-.97583,2.54437-.297,2.39844-.29749,5.62671-.71375,.89667-1.4425,1.76312-2.19958,2.62622l.21167-2.01605c-.73108-.27502-1.2655,.2442-1.68445,.5343-.41772,.29224-.70251,.35443-.84607-.89893,.38574-1.77124,1.62305-.93884,1.94495-2.73657l-.97314-.73712c.89587-2.72559,1.17981,2.21997,2.57178,.11237-1.12769-1.93268,.1228-.17743,.52002-1.75977-.95862-1.27209-2.83875,1.28064-3.07666-2.3924,.23303-.84644,1.13733,.03217,2.09058,.63971,.95178,.59351,1.94299,.91913,2.04382-.99695l.05469,.41254c.9397-.02563,1.43066-.59143,1.70911-1.34027,.27686-.74286,.32727-1.6366,.45837-2.37628,1.13171,.86395,1.66492-1.07867,2.45923-1.5119l.34521,.99976,1.06726-.87677c.08911,2.03412-1.45789,.49585-2.37561,1.12225l.78418,1.80334c-1.95337-1.78583-1.5636,1.82153-1.99548,3.72736,.41077-1.01239,1.40222-1.22131,2.19238-1.64758,.79456-.43665,1.37646-1.0929,.86731-2.9469,.51013,.51892,1.03577,1.02124,1.56079,1.53009l.16248-.82867c1.18787,1.1402,1.36511,3.57111,.21057,4.48096-.39465-.38428-.58899-.57568-.66296-.98401-.28149,1.02966-.33777,2.68573-1.91248,2.73682l.4231-1.24249c-1.81506,.48865-3.1134,1.65472-3.18567,3.68567,2.76404,.05267,5.45105-.69769,7.96094-1.75958-.84851-4.4201-.90491-7.08771-2.09216-11.04926,1.3241-1.35382,3.34204-2.82745,5.45996-2.11029l.18762,.80078c.90222,.07043,1.51379-.45038,1.89404-1.12805,1.23303,.63507,.34387,2.23145,1.13538,2.521l2.0011-2.42822c.61707,1.76465-1.56348,2.78271-2.51868,3.34009,.12866-.229,.38977-.68463,.16443-.85693-1.49536-.17468-2.39893,3.68756-3.95032,1.40588-.3634,.66461,.33008-2.30267-1.57593-1.64771-1.6178-.42108-1.07043,1.96521-.90015,2.77356,.37512,.99023,2.48901,.54102,2.29944,1.99701,.94214-.54822,.776-1.94568,2.46484-1.57196-.94421,.55475-1.43164,3.08508-2.58752,1.78937-1.14417,2.60303,.95837,7.10175,2.01013,6.96539-.81262-1.33539,2.86743-3.284-.50671-4.05725,.37952-2.33136,2.46729-3.23712,3.52478-5.0802l.09192,.39636,1.72693-1.32397c-.04602,.62927-.44031,1.32703-.0304,2.29718l1.52478-3.80682c-.72473,2.42181,1.48267,.77667,2.52319,1.2262-.38452-1.60175,.16345-3.15259-1.22534-3.53687-1.61475-.55475-.29077,1.09247-1.26538,1.67352l.38867-2.97925,.22815,.17084-.00513-2.29144c2.02356-.76453,1.18274,4.80615,2.83716,1.77954l-1.52649-2.42358c3.05615-.97729,8.17529,.14386,9.63501-2.05566,.15076,1.72729,1.03784,4.18982,2.49744,5.19019-1.10718-.0097-2.83618,.97662-4.00916,1.81464-.45642-.33038,.14331-3.78748,1.77979-3.91785-2.68933-3.85437-2.24805,4.22205-4.4574,.03345-4.21887,.16254-.69019,5.37292-4.87427,4.25031,.84167,1.93469-.42798,1.32666,.18701,3.08856,2.34546,2.72888,4.00391-1.98004,6.46753-1.82056-.12585,.22986-.37769,.69702-.28296,1.0929,1.66992-.10431,2.05176-.80316,2.69141-1.97272l-.23108-.16516c.80481-2.68317,1.73523,.90216,3.14746,1.24408,.25195-.4729,1.91797-.61133,1.01099-1.88934l2.70691,.90344-1.13452-2.06592c.96252-.62189,1.88196,.65417,2.16003-1.09729l-.90283-1.90308c-.94482,.21271-1.89551,.41022-2.84766,.60199,.97241-1.24725-.53748-1.97723,.6615-3.06934-.52734,2.84845,1.62317,.48724,2.65735,2.15234l.49243-1.58179-.00842,.63519c1.29773,.55627,.60535-1.18726,1.67029-1.41937-1.64563-.48059-3.03345-1.43713-3.76904,.6167,.49695-1.58075,1.92737-3.78003,2.39111-4.0946,.66907-1.32678,2.15222-.28088,3.2583-.60223-1.53516,1.74915,3.63794,5.33813-.96045,5.97858-.11145-.39563,.24585-.47534,.48145-.31689-1.74744-2.13214-2.25891,1.33521-2.64807,2.68909,.91724,1.27203,.19775,2.06958,2.09595,2.06427-.94055-.63464-.2937-3.72552,1.71594-3.32166l1.26245,3.07849,2.27551-.73169-.12341,.24133c1.77344,1.4809,2.03735-1.53784,4.06042-1.18347,.49512-1.57654,4.88623-2.89844,1.54004-5.02905,2.26221,1.13019,2.12219-1.80518,3.29004-2.94757l-2.37659-.24738c.89172-3.19147,1.052-1.52551,.83911-5.71716,.60181,.70203,1.32227,1.14978,1.45996,2.1698,2.78381-1.3689,7.1311-2.73553,7.32568-6.01758,1.94617-.98126,4.24548,2.23822,6.10229-.66888,.31433-.73566-2.02063-2.40277,.20557-2.63092,.24585,.13904-.41321,3.11829,1.39502,1.72467,.05786-3.01593,3.99011-.74524,4.61047-3.75293,1.4248,.19708,2.87634-1.11621,3.60779,.80811-1.74121,.54089-3.63635,2.21478-3.45483,3.24286-.42883-1.16406-1.68335-.349-1.06824-1.82886-3.06726,.07452-.82751,1.96179-3.41309,2.30371,.2749,.77954,2.20679,1.27838,2.27344,.39551,1.44141,2.34979-3.37,3.58588,.16272,5.31702,2.34094-1.13873,.01074-6.42352,3.41492-5.11664,.12268,1.91083-1.81836,1.40826-1.29224,4.47565l2.15491-.00366,.1001-2.39795,.14502,.38837c4.08789,.42993,1.0625-4.00574,2.77063-6.69366-2.43347-.74091-2.22253-4.24805-3.90552-4.58417,1.43579-1.2926,2.7926-1.75891,4.29175,.5658-1.82031,3.83374,1.41003,2.58405,.04102,6.68042,.99475,.54492,1.46191,3.84448,3.33435,3.03918,.86084-2.87738-1.79224-1.57434-.38354-3.55951,.24365,.13586,.4939,.27222,.64478,.65594,.10046-1.76825,1.29651-.21881,1.49536-2.22888l.04895,.62549c2.20874,.5722,.39172-2.50507,2.50024-1.69336-1.56116-1.4267-.16382-1.88617-.18433-3.41278-1.53882,.09918-3.75439-1.98492-5.86926-.4295,.6073,1.53424,1.25537,2.18677,.76416,3.43195l1.33862-1.09283c-.16809,.42346-.18079,.92603-.29224,1.38306l-1.8396,.18542c1.13611-2.10486-.60315-3.04584-.76831-4.93909,1.97827-.43018,1.07434-1.2193,2.36426-1.41925,1.19751,2.07275,5.27979,1.38202,7.97192,1.43164-.33728,.11212-.67249,.4071-.90527,.4884-.50977,2.13837,2.01697,1.03937,2.43127,1.54895l.31787-1.63495c-.0929,.2572-.03979,.88605,.56494,.88855,1.07898-1.24622-.32385-3.15918,.73071-4.41241,.83435,1.01215,.84253,3.41406,2.04211,3.42413,.91956,.7533,3.5332,2.64325,4.63708,.49091-.16052-.49835,.13391-1.04004,.53784-1.57611-.03308,.10779-.09497,.21405-.07568,.31183l1.9696,.3609c.29236,2.53528-2.60132,.5191-2.32825,3.05048l1.11426,1.80634c-.77783,.5412-1.32458,2.02527-1.19971,3.27075,1.40125-.52008,1.34131-1.15454,2.43005-2.43188,.94824,.97595,.56543,2.44287,.51001,2.6557l-.48218-1.13367c-2.59167-.3653-1.24011,3.32928-3.48096,4.34558-.35303,.12982-.25391-.12354-.41064-.5033-.49548,2.79303-3.64978,1.50446-3.75195,4.82471l-.09326-1.27924c-.58203,1.47723-1.59314,4.58521-2.66174,7.67584l.42664,.70868c.50671,.26459-.3197,.76135-.9342,.75653l-.00403-.01117c-.54346,1.5448-1.10925,2.97601-1.60205,4.10571,.54468,.25952,1.12585,.40295,1.59448,.25037-.16882-1.03021,2.26184-1.62152,.80652-3.30945,1.63208,.52942,2.08813-2.0274,3.21216-1.758-1.99341-.40198-.26917-2.29572-.71692-3.45087,1.16724,.90234,1.75378-1.25122,2.6123,.41296,.50684,.25165-1.27478-.64697-1.18701,.62366-.33691,2.29224,3.18774-.23706,2.49158,2.18823,1.30859-2.43939,4.29724-3.72504,5.41113-6.54718l-1.58606,.14453c1.08093-.37946,3.00403-2.21741,3.67737-1.57837-.55872,.64532-1.36731,1.17072-2.02954,2.07764,1.13684,1.77673,2.09033-1.44379,2.91858-.43341l.55676-4.60895-1.17151,.65765c-.02649-1.52399,3.15222-1.83337,5.01453-2.79962,.68201,3.05127-2.5127,1.87561-3.66431,4.05072-.69604,1.80176,2.39258,1.74078,1.53564,3.16364,.70422,.33264,1.47791-.29205,1.46704-1.16449l.79199,.09387c.37512,2.922-2.4696,4.15656-2.88281,7.17566-.01062-.33472-.0481-.66858-.17236-.95282-1.85718,.04504-3.16309,.93561-4.04688,2.36188,1.13062,.24561,1.08569-.40076,1.30115-.90771,.40723,.50653-.63818,1.53558-.69641,2.43738,1.60876-.1485,1.07629,1.1438,2.0686,1.00647-.42932,1.03448-1.16052,1.29865-2.25696,1.69427-1.03394-.505-.34521-1.40979-1.1582-2.42584-.54565,1.28967-2.67822-1.00488-3.28882,1.16351,2.19946-.76282,1.04248,2.69287,.85181,3.85156l.37012-.1297c.21985,1.66949-.26501,2.05597-1.43738,1.15155,.44653-1.02814,1.43701-1.15131,.37451-2.30963-.48022,.38629-.95874,.771-1.29126,1.54059l-.07251-1.28247-2.38708,1.91785c.32812,1.41718,.67175,3.47552,1.38306,5.40735-1.28528-.65887-1.60779,.75531-1.95264,1.5285l-.02344-.65338c-1.7688-.27704-3.80884,2.14606-3.40088,3.30865-1.36072-.41803,1.74536-10.14362-3.43127-5.61224-2.19995,1.33899,.6311,4.12756,.05005,6.03485,0,0-.13269-.3819-.38843-.52063-1.11865,.34546-.46082,1.6615-.94495,2.67993,.88623,.14954,1.7511-.34088,1.73645-.98395,.53711,1.56116-2.10962,1.10419-2.20764,2.64917-.29553-2.71802-2.38,.31073-2.27563-1.2417-2.76685-.23962-3.85583,2.67517-3.97681,4.8681-2.88208-1.92749-2.14551,1.69714-5.03711,1.67419,.38049-.10797,.75684-.85834,1.39038-.8299,.26013-2.42157-2.7616,.36414-1.7489-2.2843-.25403,.49866,.48914,.93195,.75256,.42426,.62061-.60529,.87561-1.74792,.24512-2.42841l-2.6228-.53223,.37585-.76257-3.8446-.61609c.12219,.38757,.61304,.68024,.86194,.82458-3.58862,.8114-6.49683,3.89929-9.37695,5.09009,2.11023,5.20239-5.63708,5.69653-6.33716,9.86499-.12207-1.73688-1.08386-4.42175-1.98254-5.26935,.39209-.46411,.37659-2.98859,1.71326-3.14233,.58923,.70416,2.44141,.87689,2.02454,2.25714,2.80176-2.19678-1.55127-1.95343-1.59753-4.27966-3.15625,2.25897-3.70557,6.17853-5.30408,8.47614l-.3501-.56152-1.1062,1.93561c1.52539-.33478,2.87329,2.53259,.61694,2.40576l.1449-.24487c-1.59253-.70148-2.99048,1.72644-4.65247,2.31244l-.27734,2.16327c-1.68005,.56354-3.2124-2.48535-4.59827-4.08893-2.56311,.94397-2.79724,4.16113-3.88635,6.47064-1.42712-.98547-5.29736,.38922-4.06677-2.15356-1.70129,2.20972,2.03223,9.29437-3.74731,7.0036l.46484-1.7688c-1.83691,.96899-3.88171,2.70184-5.84595,4.10828-1.97009,1.40283-3.84412,2.47357-5.08325,2.12341-.11279-2.70148-1.8927-3.4472-3.88879-4.11316-2.01843-.67023-4.29419-1.28992-5.41113-3.59528,.55579,1.04144-.89111,1.89307-.95813,2.54584-.5199-.46643-1.24707-.85254-1.58118,.32947,1.94666,.49084,.23132,5.39984,2.92004,2.48993-.63708,3.79163-2.17725,7.09631-6.28662,7.82019l-.3833-2.07452c1.09204-.01459,2.16565-.06006,3.25635-.09845-.68237-1.42999,.89709-1.72394,1.33789-2.58362-2.92285,.16785-3.03894-1.11621-3.12036-2.16632-.08984-1.06628-.14368-1.92346-2.8761-1.16809-.26001,1.44818-.02087,.82501-1.38989,1.65637,.68481-.21136,.51282-1.65826-.58984-1.46185l-.7793,1.84552c-1.30493-1.55811-.56213-2.26562,.19531-2.84564,.76245-.58966,1.54333-1.07849,.49854-2.1225,1.79346-2.00659,4.95227-3.75555,3.6366-6.19641-3.32153-.1864-1.70349,5.63354-5.48816,5.10028l-.5675-1.06476c-1.09009,.98553-1.02673,2.83594-1.58191,4.04498-.15479-.63531-.54932-1.07355-1.39282-1.14905-1.87927,2.93152-3.33826,3.62384-5.55322,6.64862,3.05884-1.21973,4.24719-.88617,5.5918-.46539,1.30957,.38947,2.73901,.81573,5.48926-.68146-.38391,.50256-1.56604,1.11841-2.69214,1.91254-1.12219,.79645-2.16309,1.83569-2.14575,3.28662l-.18286-2.10468c-.96008,.64539-1.89099,1.30927-3.02063,1.70984-1.12,.40479-2.36377,.57159-3.7832,.24432,.5697-.40204,1.12097-.81396,1.65283-1.23743-1.77588,.81549-3.36658,.00653-4.79272-.58777-1.4552-.60529-2.72974-.97217-4.49878,.58252,1.09656,.32397,1.98376,.31665,2.67627,.04993-2.04529,.82117-4.69995,.27972-6.94836-.55682-1.83215,.81616-3.82581,1.4978-5.96399,2.03619,.34119-.96936-2.92639-2.20709-.76062-3.20477-.77356-.71179-1.51575-1.14093-2.24487-1.35974-.73535-.25049-1.46313-.30798-2.18494-.29584-1.44116-.01654-2.87976,.2677-4.10168-.19727-1.29712-2.14282-.30981-1.80536,1.1521-1.29004,1.47729,.5199,3.50488,1.07648,4.302-.17346-2.25232-1.61755-4.63635-3.18634-6.86658-4.49365-1.09839-.664-2.16614-1.26721-3.20251-1.75671-.99231-.50891-1.95776-.9101-2.85962-1.16919,.48669,1.12665,.64258,1.79272,.23511,2.11285,.17285-.29895-.1814-.83179-.6803-1.41522-.5083-.58148-1.07788-1.23145-1.48694-1.72174l-1.62537,.18982c-.32947-1.1286-.19702-1.74078,.16675-1.98242,.3894-.24182,1.01819-.11011,1.98145,.2359-.51599-.83124-1.5636-1.30426-2.5061-1.95721-.92395-.64539-1.60107-1.45685-1.26685-2.77893,.76758,.45612,1.39514,1.0368,1.94104,1.67047,.58582,.63721,1.09729,1.328,1.57117,1.98798,.98682,1.31476,1.89233,2.51959,2.86133,2.80084-2.83105-2.12585-2.97803-4.20337-3.14624-6.2193-.12109-2.05823-.34106-4.08667-2.60254-6.95886,.56409-.33936,2.22424,.19342,1.66956-1.02704-1.6394-2.60358-2.91284,.36072-4.69946,.03479,.86987,1.00464,1.23389,1.83582,1.31274,2.716,.07129,.8764-.23401,1.76721-.5968,2.88904l-1.34399-.14795c.46252-.36273-.25269-1.92047,.04517-2.60388l-2.25415,.53094c2.36548-.88037,3.05859-3.98285,1.57715-5.44849-1.02869,2.49585-1.12,1.96906-3.56409,3.55176-1.81641-.91852-1.46387-1.96497-1.15173-2.99701,.17566-.4964,.35852-.97888,.2627-1.47284-.04712-.24615-.16223-.49329-.37939-.7439-.10852-.12537-.24255-.25165-.40637-.37946-.1416-.05823-.27979-.01361-.46558-.01202,.19666-.04547,.38623-.06622,.57678-.05157,.24377,.18127,.48901,.39783,.70544,.54022,.43372,.2854,.74719,.27228,.71118-.88495-.05029-.37146-.49036-.24823-1.04407-.17273-.54468,.10077-1.17175,.25909-1.4967,.24054,2.05212-.39783,3.49927-1.00323,5.99683-1.26392,.01855,.01593,.10291,.23615,.15881,.37439,.05896,.14783,.11145,.27979,.15857,.39807,.09387,.23645,.16614,.41827,.22388,.56366,.11658,.2901,.17944,.43262,.26086,.56659,.15515,.25604,.40515,.51685,1.38965,1.88477,.24231-1.06018,.47656-2.11896,.80786-3.07098,1.14111,2.37048,2.88904,1.01685,3.69373,.93646,.1134-1.21826-.02356-1.89795-.35913-2.34131-.33203-.42737-.87939-.6778-1.41797-.75146-1.03027-.01971-2.21411,.17261-2.11255-.526-1.49683-.06879,.00281,1.20026-1.64661,.82562,.04309-1.13678-1.36072,.20917-2.42688-.46759l.92566-.21686c1.08569-.8548-.40796-.55786-.65588-.81573-.32446-.05493-1.96704,.93109-3.57935,1.73218-1.61157,.80084-3.18433,1.50085-3.30371,1.1203,.53394-.27856,.87158-.45978,1.09167-.59259,5.34167-2.85577,10.77612-5.07477,16.35938-6.66736-.62292-2.97461-.47595-6.63654,.25024-11.30646,2.93311-3.75635,2.73193,.60815,4.08386-.74402l-.44446,2.42584c-1.31726,.84546-.75244-3.60156-2.88318-.05981,.5968,1.1593,.57068,2.41632,.77039,3.46326,.20947,1.06708,.62488,1.91467,2.25342,2.73462,1.48328-1.31244,1.18188-2.35974,.80029-3.42554-.36755-1.0929-.84082-2.13776,.27808-4.14868-.1189,1.07007,.31287,1.5705,.86267,2.0238,.18713-2.43909,.38745-5.04913,.60046-7.82471l-.78784,.13483c-.17261,1.91748-.33923,3.237-.43762,3.47083,.05371-2.36407-1.75842-2.57367-3.96753-.49432l-.052,.40674c-.24768-.0025-.49487,.00092-.74158,.01025,.10254-.56848,.20508-1.13684,.30725-1.70258ZM15.06614,109.91086c-.09497-.25244-.23804-.51288-.45044-.80157,.2218,.30042,.45361,.39655,.45044,.80157Zm104.78149-14.54144c-1.54199-1.49567-2.48511-3.46118-3.38708-5.24866-.50085,1.46576-.80432,2.89307-1.06982,4.17181-.23853,1.24402-.47705,2.36969-.82983,3.07239-.35168,.70471-.92297,1.08356-1.75928,.81189-.84033-.25525-2.02832-1.11523-3.27197-2.89447l-.62952-.25378c.16272,1.26886,1.33643,3.00513,2.99243,4.0683,.56946-.02802,1.52344-.16779,2.56641-.41455,1.02844-.22449,2.18237-.61115,3.20605-1.05627,2.04968-.86096,3.59424-2.06342,3.71765-2.31635,.18091-.68591-.00269-.75781-.28455-.76031-.27942-.00018-.6842,.09497-.80762-.27887l-.44287,1.09888Zm-2.70374,8.08514c1.34644,1.33875,1.4856,.11957,2.1322-.65015-.59338-.12683-1.18347-.28381-1.76123-.47357,.07837,.32642,.01672,.69281-.37097,1.12372Zm2.46143-1.5929c-.15381-.09937-.27441-.20569-.2887-.35925l.2887,.35925Zm-14.26282-25.79053c.03296,.05707,.05835,.07031,.08386,.12799,.02002-.41168,.04016-.82404,.06116-1.25482-.13147,.24133-.20874,.59369-.14502,1.12683Zm-1.70581,4.14984l1.75793-.38763c-.00354-.36255-.00732-.73279-.01099-1.11151-.73669,.46936-1.37537,.89471-1.74695,1.49915Zm-2.30603,12.16998c1.16821-.10083,2.01208,.40607,2.91541,.77979,.90186,.37592,1.78613,.62225,2.9082,.05054,.63-.19434,.60632-.74774,.52979-1.31995-.25049-.55176-.47083-1.1571-.68188-1.80334-.34119,.13586-.70813,.16034-1.10522,.08923,.0061,.74652-.34558,1.4552-1.85864,1.87555,1.11743-1.57782,.40063-1.65466-.59912-1.70123-.99829-.0307-2.33203-.0058-2.3114-1.13281-1.91943-.01056-.7594,2.86847,.20288,3.16223Zm127.52429-28.35419c.15771,.16229,.59741,.55219,1.16992,1.02319l-.41321,1.70703c-2.19312,.6825-5.56067-1.51056-5.67419,2.18719-1.19824-.18958-2.47363-1.37036-3.57141-2.30157,.44287-.14142,.8761-.24164,1.28821-.23969,2.41309-6.76331,4.95679,2.62396,7.20068-2.37616Zm-24.10291,8.79858c.12329-.2453-.00232-.6438-.00232-.6438-2.06897,6.4173-5.10388,9.47131-7.53479,10.55536,1.30054,1.39801,4.07629,1.52789,5.44434,1.66699l.07129,2.31989-1.3219-1.15826-.68506,2.50513c1.08325,1.01544,2.21399,.09021,3.56177,.59796-.10693-.3916,1.46289-3.97101,1.60547-5.4964l-2.82654-.14252c.8562,.21796,3.47449-1.7182,4.33167-2.80902-.47986-.93109-3.16357-1.30432-2.33252,.82935-.95996-1.2439,1.24438-2.46301-.94263-3.16614,.86804-2.35724,4.14941-2.57178,5.74744-2.56769l1.47083,2.16754c1.83301,.13379-.62622-3.25366,1.69275-2.82941-1.70081,1.54297,1.72888,2.30756,.26892,3.35608,.97852,.57935,1.35461,2.40332,2.82776,1.3465-.39404-3.73981,2.72205,.95038,2.45093-2.39453,1.36108,.47144,.14062,2.30548,1.99768,1.78949,.94824-2.65247,.18433-3.71301-.95923-5.9549-2.06091,.38947-.29797,3.95789-2.02527,4.22644,.23425-1.7746,.45642-3.55188,.66272-5.33881-.81628-.22845-1.22559-.06348-1.45728,.27155,.43335-.54193,.58936-1.36987,.55298-2.36676-.01672-.56116-.01624-1.04987-.00232-1.47748-1.57104,.8988-2.99756,1.64319-3.77747,.84692l-.38708-1.18091c-1.10986-.65906-1.57886,.6123-1.55859,1.62531-1.33948,.9068-1.92151,3.18561-2.99695,1.979l-.00854-1.27539c-1.55444,1.28485-1.68713,1.50464-3.86804,2.71851Zm-59.59985,23.42157c1.05725,2.04858,2.15967,3.95306,3.68262,5.03925,1.52087,1.10175,3.48682,1.36298,6.09802,.09387l-.33118,.43878c1.82129,.86957,2.88623-.48224,3.96362-1.82623,1.08643-1.35242,2.19653-2.69257,4.39648-1.90344-.96094,2.18982-.89514,2.0213-1.32373,6.30035,.44006-.6167,.875-1.23114,1.29602-1.85474,.40344,2.45099,1.70154,.60004,3.00085,.17871l-.03369,3.1416c-1.09375-.45679-3.21692,.05884-2.92993,.64465,.31604-.4574-3.96387-2.38666-5.38977-1.02209,.82263,1.81171,4.20557-.27368,3.67334,3.32996,.98694-1.79022,1.84253-.03528,3.10242-1.25336-.95557,1.80762,.61316,2.62793,.02759,4.37921,.77087-.526,1.52356-1.05823,2.26331-1.59467,.33643,.5838-3.14417,2.77679-.19177,4.22272,.65857-1.3493,3.81848-1.23779,3.05176-3.21246l.30774,.57446c2.0282-.34198-.34412-3.0896,2.34387-2.92029-.3938-.98615-1.10168-1.48187-1.80359-.94733-.48096,.71759-.01855,2.09943-1.3186,2.95282-1.25574-1.26654,1.77234-.50793-.2699-2.68585-.98962-1.08136-3.25208,2.6123-3.38745-.7135l1.98376-.31042c-.75293-1.97528,.58203-2.39587-.11255-3.9527,.76147-1.16791,2.71753,.59454,3.06531-1.56488-.09863-1.44812-1.88599-3.43536,.3197-3.19385,2.64392,2.26373,6.42944-.14313,7.74829-1.23096l.75305-1.82343c-.65588-1.12537-2.43921,1.30316-2.29761-.60974l1.83118-1.39435,.18457,.81042c.75061-.15436,1.07117-1.27155,1.48755-1.97986,.01379,1.67609-1.7124,1.81494-.49402,3.67371,1.14062-.05945,1.63281,.60876,2.33765-.19025-.12671,.23199-.20129,.50568-.04565,.77454,2.35242-.06055,.82739-3.11279,1.00391-3.98907,.70862-3.50092-3.09229-1.47656-3.80542-3.64545,1.69788-1.25903,3.40881-2.47949,5.08252-3.76593-.16357,.87543-.33484,1.7511,.23816,2.47601,1.81616,.24188,.77515,1.52222,2.6604,.47839-1.45728-2.63428,1.604-2.87378,2.1864-5.09418,1.17847,.78064,1.42676,.94788,.05298,1.66071,1.03235,1.67798,2.55725,.06494,3.29541-.11279,.16357-.6283,.68701-1.2121,.90222-1.80927-.99426-.58765-1.30847-1.79736-.49939-3.14423l-.11707-.39954c-2.19568,.51813-6.15881,.14362-6.50464,2.52191l-.08167-1.03674c-3.00073-.41858-3.39246,5.58868-6.05359,2.74664-.53308-1.36243-.60254-.08777-1.47119-2.00916l-.96436,2.27893-.06104-1.02856-2.64087,1.77655-.09277-.39594c-.53735,2.40924-.95959,4.30286-1.29773,5.81891,.37927,.83813,.58716,1.05469,.40881,1.87903-.27173,.62512-.59363,.84766-.95532,.88043,0,0-.00122,.0036,.00195,.0105l-.00427-.00946c-.82361,.07947-1.84131-.90979-2.93396-1.00269l2.59338-1.43042c-.42798-1.52094-1.33142-2.89185-3.08655-3.2937,.50977-.29749,.22852-1.50861-.50378-1.37262,.09619,.40277-1.33252,1.70312-.18579,2.54919-1.14966,.84277-3.17712,.76593-5.22009,1.01813-2.04919,.24207-4.10107,.80383-5.46802,2.93018,2.07275-2.74707-2.94543-1.08209-.16528-2.87671-3.00171-1.49896-.90479,3.00378-3.22388,3.44971-.49414-.77161,1.22351-.31836,1.08826-2.1701-1.95178,.21259-3.08667,1.67102-4.26733,3.16742-1.17078,1.47272-2.39709,2.97992-4.28357,3.08972l-.65466-1.8418c-.5918,.42328-1.25769,.87982-1.96143,1.32532Zm-6.6604,3.6662c-.68713,.29047-1.38416,.58508-2.09229,.8844,.07373,.02612,.14026,.02014,.21777,.03894-.66821,.57837-1.35657,1.15118-2.07056,1.69995,1.35962,.70612,2.52527,2.76007,.53406,3.88257,.12805-.81207-.49463-1.77466,.16711-2.27521-1.39331-1.06567-4.11511-2.25757-3.46594,.69727,2.55518-2.76343,.61353,3.76422,2.67346,1.66791-1.07495,1.95471-2.24719,1.09515-3.37,1.90802,1.19299-1.57092-.17859-3.61932-1.64941-4.51147-.73682,.42847-2.51709-.24109-3.79822,.27728,.09241,1.84155-1.20325,2.67816,.77966,3.4729-.81714,.36267-2.1333,.49609-3.22827-.73633,.59851-.16901,1.5415-.17755,1.61133-.8374-.46289-1.79541-1.35754-1.94452-1.65173-2.77808-.41602-.00934-.83252-.04559-1.24011-.09045,.06165,.18768,.09558,.41522,.08655,.68372-.60095,.34625-1.23376,.711-1.88074,1.01361,2.11487-.12866,.58862,1.0943,.19824,2.08417,.75476-1.95233-1.12976-.70544-1.84778-.93756,.18372,.87579,.40503,1.77246,.66577,2.66675-.57397,.3811-1.10779-.27332-1.51367-.72729-.40564-.47473-.71484-.76923-.98962,.32239,1.48035,1.17896,2.65479,1.70911,3.81738,2.01196,1.16565,.27954,2.34485,.3385,3.92114,.30548-.29785-.64557-.5769-1.28473-.83875-1.94635,1.75366-.23566,2.09045,.55371,2.52686,1.51752,.42407,.95807,.94202,2.09418,2.87988,2.21649,.86182-.71637,2.26208-.67078,3.46594-.89343,1.20435-.21722,2.19006-.67432,2.16382-2.26013-.20239,.49182,.36218,1.17261,1.15076,1.54108,.77991,.35767,1.77686,.39362,2.29224-.38763,1.06177-2.97034,4.64978-3.90021,3.33508-5.04358-.97363,.09796-2.1405,1.87579-3.14783,.06592,.61902-.25781,1.22913-.53162,1.8302-.82465-.4834-.46893-.95447-.91931-1.4198-1.40778,.69897,.49731,.43774-1.03784-.11255-3.30096Zm-11.66602-22.19806l.02734-.05371c-.00464,.0188,.00012,.034,.00464,.04883l-.03198,.00488Z"/><path class="i" d="M248.26328,43.58377c.02808-.89154,1.17432-1.53046,.07861-2.66016,.99988,1.38556-1.776,1.5296-.07861,2.66016Z"/><path class="i" d="M250.50669,44.07169c-.15747-.38867-.58154-.88739-.13525-1.27484l-1.08459,1.27728,1.21985-.00244Z"/><path class="i" d="M258.52476,52.6713c-.0293-1.53583-.00085-2.43274,1.15967-3.10962,2.81067,3.1051-1.12354,2.21332,.59912,5.74341,2.25293-1.10938,.77832-4.51355,2.22485-5.96417-1.83093-.83124-5.73108,.69611-3.98364,3.33038Z"/><polygon class="i" points="260.62998 57.61264 261.22361 56.04752 260.97288 55.92667 260.37864 57.49216 260.62998 57.61264"/><path class="i" d="M216.67051,43.2161c-.77637-1.04486-.7926,.46112-.99976,.94989,.34229-.11017,.94434-.06616,.99976-.94989Z"/><path class="i" d="M17.1699,68.92221c-2.31201,2.79767-4.54138,5.6662-6.78467,8.50641,1.96594-2.42456,3.83679-4.60706,6.78467-8.50641Z"/><path class="i" d="M192.27878,66.81552c1.80164-2.3429,1.80896-4.84644,3.9115-6.65527-4.35254-.59814-2.24451,5.81995-6.15076,4.86218l2.23926,1.79309Z"/><path class="i" d="M188.28684,57.20176c1.52881,1.96204-.46667,3.48633,.70178,4.8985,1.30408-1.36133-.34644-2.45093,1.18079-3.0177l-1.88257-1.8808Z"/><polygon class="i" points="218.47507 86.85062 218.34214 88.38749 218.72275 87.64035 218.47507 86.85062"/><polygon class="i" points="178.59385 64.59537 178.60972 63.9711 177.0814 63.85788 178.59385 64.59537"/><path class="i" d="M178.62058,63.33817l-.01086,.63293,.01086-.63293Z"/><polygon class="i" points="220.05967 91.98612 221.44346 91.80594 221.45322 90.51023 220.05967 91.98612"/><path class="i" d="M203.86912,85.81113l.63354-1.2179c-.1272,.23926-1.96375,.06714-.63354,1.2179Z"/><polygon class="i" points="170.87827 67.17588 170.11179 68.57828 170.33384 68.73923 171.09812 67.34104 170.87827 67.17588"/><path class="i" d="M199.0532,95.89402c1.55652,1.32007-1.81177,1.49158,.39209,2.23718,1.16602-.91791,.1947-1.52625-.39209-2.23718Z"/><path class="i" d="M178.54478,91.68058c-.16589,.07837-.31213,.2218-.39221,.49109,.16663-.16772,.29333-.33643,.39221-.49109Z"/><path class="i" d="M178.54478,91.68058c.53467-.25269,1.37585,.14569,1.51196-.52039-1.02905-.45557-1.13477-.05121-1.51196,.52039Z"/><path class="i" d="M172.55613,94.90024l.54382-.10071c-.11865,1.07446,.0625,.84167,.20203-.0423,.49219-.29388,.21729-.82312,.11145-1.22144,.005-.26141,.01013-.52582,.01575-.81104-.05334,.30389-.10181,.57935-.14282,.81299-.80798,.34973-1.25916,.65698-.73022,1.36249Z"/><path class="i" d="M140.79478,73.14878c1.4137,.35773,1.8783,.56067,2.2041,1.98846,1.40759,.07709,.48755-2.27856,1.07019-3.07666-.6792,.36951-1.12659,.39703-1.59241,.46002-.47522,.07635-.95447,.16687-1.68188,.62817Z"/><path class="i" d="M144.06907,72.06058c.15125-.07892,.29492-.15692,.46326-.26874-.22119,.02405-.35645,.13049-.46326,.26874Z"/><polygon class="i" points="186.53928 106.04587 186.33262 108.616 186.6251 108.13413 186.53928 106.04587"/><path class="i" d="M138.85386,72.8577c.22986,.0498,.57031-.10706,.85681,.34308-.27539-1.44122-1.09033-.37714-.85681-.34308Z"/><path class="i" d="M152.18479,98.89469c.45691,.79144,1.49292-.08746,2.08069,.06525-.76208,.06702-2.14209-2.33447-2.08069-.06525Z"/><path class="i" d="M136.52561,79.37625c.23352,.06042,.72852,.98547,.74585,2.20392,.25146-.75537,.29639-3.36273-.74585-2.20392Z"/><path class="i" d="M148.70457,99.64298l.39844,.4068c.34766-.41132,.68494-.84729,1.021-1.2677-.46973,.29047-.94067,.58746-1.41943,.8609Z"/><path class="i" d="M159.94529,118.7833c1.13953-2.19727-3.96716-3.14539-1.54077-5.47034-4.23083-.57025,1.04187,2.26019-1.79199,2.86139,1.78345,.05475,3.28088,1.888,3.33276,2.60895Z"/><path class="i" d="M156.61252,116.17435c-.26721-.01825-.54126,.00922-.82495,.08514,.33508-.01263,.60022-.0437,.82495-.08514Z"/><path class="i" d="M130.48276,108.98947c.26025-.17194,.43872-.36145,.60266-.5625-.20032,.13574-.3949,.30609-.60266,.5625Z"/><path class="i" d="M147.63511,119.93552c.75854-1.04346,1.48792-2.08478,2.16809-3.15057-.6781,1.06885-2.20654,1.79572-3.46863,2.57306-1.28174,.74957-2.30994,1.55579-1.95837,2.81708,.82971,.1286,1.69763-.06244,2.41907-.44067,.71106-.39105,1.27112-.97296,1.53259-1.59985l-.69275-.19904Z"/><path class="i" d="M128.97349,81.71122c.11389-.1969,.18616-.35333,.30017-.57758-.13464,.26984-.23413,.47339-.38232,.71796l.08215-.14038Z"/><path class="i" d="M128.82102,81.97116l.07031-.11957-.07031,.11957Z"/><path class="i" d="M135.26816,107.7247c.8064,.14343,1.45081,.02771,2.12134-.50153-.3396-.44757-2.30505-.78467-2.12134,.50153Z"/><path class="i" d="M130.26353,80.48404c-.26685,.22339-.53149,.47888-.78918,.76746,.29004-.32672,.5509-.56396,.88208-.85425l-.0929,.08679Z"/><path class="i" d="M135.83042,76.49967l.43091-.24103c-.29382,.08679-.60876,.21716-.92114,.24536l-.43152,.25372c.3197-.07715,.62708-.16418,.92175-.25806Z"/><path class="i" d="M100.68931,113.61252c1.47791,1.70502,4.28955,.81708,4.1239,.08307-1.125-.7597-2.10791-1.63855-3.1416-2.49158-.59888,2.18994,.85474,.724,2.33423,2.58722-1.10632-.00397-2.18591-.08221-3.31653-.17871Z"/><path class="i" d="M99.8148,14.6948c.51868-.62262,1.50391-.58826,2.34912-.17828,.84033,.39667,1.51648,1.16241,1.36829,1.80304-.63208,.37036-2.51245,.44989-1.72266,1.51202,1.19995-.84406,2.43628-1.61407,3.68982-2.31586,.65662,.81464,.68616,1.44562,.38599,1.88507-.3009,.43945-.95654,.72675-1.75122,.95148-1.59277,.41644-3.72021,.81195-4.67407,1.28027,1.53113,.47058,2.75513,.38873,4.01367,.32709,1.2489-.04919,2.59802-.07019,4.09656,.87592-.75415-.83319-1.04211-1.92371-1.30481-2.83453,.39111-1.12134,1.32935-1.07922,2.35754-.54974,1.03564,.52271,2.09753,1.49768,3.01282,2.0755-.67664-1.79443,.37183-2.11096,1.67126-2.37604,.02722,.00623,.05408,.01031,.07324,.00732,.15759,.02332,.29541-.02502,.41895-.10297l.43921-.09619-.21497-.16119c.14197-.23737,.24951-.5705,.29907-1.10065l-.17566-.05505c-1.71631-.57147-2.24731-3.05328-3.49048-3.71753-.1731,2.10913-1.27527,1.7121-2.7627,.96234-1.47314-.77924-3.30945-1.86212-4.3584-1.5191-.70447-.06323-1.38892-.09277-2.06726-.11243l-.70715-.13177c-.00403-.43323,.33252-.94482,1.68555-1.41357-.58923,.25061-1.61462,.14862-2.47693,.20392-.87378,.03125-1.57849,.22748-1.6261,.85529-2.17542-.23651-4.21558-.24982-6.25122-.12347-.15344-.15979-.29932-.36224-.37927-.65826-.26465,.27606-.34241,.49719-.35742,.71027-.276,.01562-.55151,.05322-.82739,.07886-.271,.02045-.55151,.05701-.85657,.13568l-1.78308,.39197-3.56409,.78528-1.78088,.39331-.89026,.19684-.44507,.09845c-.15881,.05859-.32898,.14471-.49304,.2157l-3.96826,1.78943-3.9646,1.78931-.9906,.44727-.49512,.22363-.51013,.35016-2.04199,1.42053c-2.72107,1.91083-5.44324,3.74719-8.15576,5.71484,1.68152-.85724,3.23523-.78101,4.91467-1.43213-1.98779,4.52911,2.69324-1.29193,2.29871,1.95599-.92822,1.72662-2.44702,2.44678-3.46716,2.42767-.09998,1.58197,1.35071,1.90796,1.44458,3.64478,1.90393-.39026,2.75049-2.3183,3.69336-4.3988,.92078-2.03601,1.95691-4.45044,3.77698-4.65149-.10437,1.7995-1.11597,3.83911,1.14233,2.48932l-.56897,.65533c1.802-1.86249,2.52429-1.23151,3.0321-.86713,.52454,.36346,.83826,.46014,2.10303-2.48535l-.19226,2.53802c.42468-.67444,.94653-1.27991,1.51965-1.828,.5509-.49152,1.10632-.80908,1.68665-1.13477,1.151-.62427,2.30969-1.05823,3.16028-1.47479l-.1615,.49652c2.50488-2.07751,3.23987-2.41687,3.93396-2.54315,.68811-.06628,1.36328-.0282,4.02478-.82758-.98694,.94073-1.94727,1.92566-2.87842,2.96436,1.43713,.77997,2.47717-2.11389,3.67798-1.91187-.19409,.43396-.31555,2.00244-1.57153,2.54565,2.30652-1.57892,4.77563-2.89001,7.49475-3.7226,2.19763-1.21808,.14026-1.57703,.16211-2.47412Z"/><path class="i" d="M107.57029,20.83554c.26843,.30664,.60193,.5835,1.02881,.79083-.34949-.33429-.69214-.57397-1.02881-.79083Z"/><path class="i" d="M58.30857,26.49826l2.28015-1.76935c-.73743,.40118-1.4906,.93005-2.28015,1.76935Z"/><path class="i" d="M117.00217,22.66251c-.19519-1.854,1.48621-.86096,2.09204-1.45477-.9823-1.00305-1.99353-1.96216-3.06299-2.83948-.41223,.78302-1.18384,1.36987-1.50403,2.12793l1.26233,1.04773,1.21265,1.11859Z"/><path class="i" d="M115.87034,16.16104c-.39844,.44714-1.00305,.65411-1.63184,.79785,.61206,.47131,1.22449,.90179,1.79272,1.40936,.29883-.57562,.41699-1.30029-.16089-2.20721Z"/><path class="i" d="M91.12485,63.0817l-.19617-.245-.69836,.39819c.3053-.06573,.60156-.11572,.89453-.1532Z"/><path class="i" d="M89.12986,53.51755c-.18372,1.97607,1.28223,.80652,1.78662,.49438-.53064-.21735-.62244-.44336-.75342-.57532-.13281-.12134-.29968-.22083-1.0332,.08093Z"/><path class="i" d="M82.19248,74.91074c-.30176,.29974-.60608,.63428-.89954,.98169l-.09839,.39417c.32288-.47205,.66003-.94244,.99792-1.37585Z"/><path class="i" d="M45.99302,46.84873c-.28577,.29218-.56775,.56689-.84583,.87604,.422-.34741,.66797-.6181,.84583-.87604Z"/><path class="i" d="M61.86716,31.70108c-2.66492,.56146-2.05676-.53162-.95422-2.10522,1.07849-1.60846,2.65967-3.43335,1.54919-4.57098-.87354,.98737-1.7251,2.08191-2.56189,3.14862l.03369-1.05243-3.33594,2.89465c1.11853,.90326,1.63867,.61127,1.91284,2.24939-2.2417,1.36566-2.73645,1.19696-3.13354,.75189-.40442-.43988-.69031-1.17114-2.70337-.79468-1.68555,1.36877-3.3208,2.8869-4.97192,4.31506l.21533-.73846c-.41504,.37744-.52136,.69989-.55908,1.03723-2.76733,2.44647-5.53064,4.84155-8.22156,7.32184l-2.03052,1.89136-1.01257,.94507-.40137,.38245-.28003,.27826-2.22791,2.23767c-.94434,2.38879,2.67908,1.14124,2.83899,3.87231,.49268-.43536,1.10132-.85962,1.73047-1.26306,.31104-.20563,.62256-.41162,.92627-.61249l.43713-.3103c.14587-.10852,.24683-.1839,.48645-.38593,1.63953-1.37518,2.69055-2.73492,1.9718-4.02802,.1261,.42072,.39722,1.24359,1.2522,.97766,.14929-1.17029,.32605-2.36279,.53027-3.57739l-2.29773,.92664c.27722-1.80817,2.19702-3.9939,4.27869-5.6405,2.07849-1.66046,4.25818-2.77979,5.14929-2.5481-3.35046,3.76849-.10059,4.83875-5.82654,7.47467,.63074,.44183,2.18457,.85559,1.33142,2.07043,2.55298-2.62506,5.27319-4.68341,7.90503-6.93524,2.6748-2.18427,5.2605-4.54797,7.96912-8.2124Z"/><path class="i" d="M19.27366,70.06382l-.15747-.21442c.03845,.15833,.09253,.25293,.15747,.21442Z"/><path class="i" d="M20.62656,69.25327l-.36731-3.61481-2.3551,2.59576,1.21204,1.61517c-.13416-.57886,.03992-2.1618,.92261-1.92859l.58777,1.33246Z"/><path class="i" d="M20.96848,62.59464c-.73511,1.86334,.96777,3.50201,2.4198,3.61139-.44592,1.92401-2.38245-1.23962-1.49158,1.34363,1.20251,1.20532,1.98987-.90747,2.1156-1.4566l-3.04382-3.49841Z"/><polygon class="i" points="31.64683 54.47538 31.91868 55.54197 33.02708 54.90671 31.64683 54.47538"/><path class="i" d="M31.91868,55.54197l-1.10327,.62878c.54944,.48248,1.08691,.95374,1.56921,1.1889l-.46594-1.81769Z"/><path class="i" d="M27.94968,57.86264c-.50867,.22357-1.02722,.52014-1.59412,.95093l1.59412-.95093Z"/><path class="i" d="M29.40256,57.34879l-.23767-.19958-1.21521,.71344c.49963-.20667,.97144-.36511,1.45288-.51385Z"/><path class="i" d="M30.81541,56.17075c-1.2572-1.09772-2.59302-2.22467-3.61975-.66565l1.96924,1.6441,1.65051-.97845Z"/><path class="i" d="M79.49912,71.9332c-.25659,.57825-.50354,1.14807-.73499,1.71783l-.02856,.35242c.23181-.5672,.47485-1.14099,.73206-1.71631l.03149-.35394Z"/><path class="i" d="M77.05137,71.75241c-.16211,.49585-.2887,.98065-.40332,1.46948,.14331-.34119,.27612-.79291,.40332-1.46948Z"/><path class="i" d="M75.05332,87.79612c-.09473-.99921-.05969-1.73395-.00513-2.33411,.04614-.59381,.0957-1.04071-.15869-1.3208-.04736-.96045-.02979-2.1145,.07043-2.95825,.09583-.84045,.27673-1.37262,.42993-.99353-.0752,1.93311-.2981,1.42932-.15869,3.23608,.20703-2.32733,.26465-.89264,.2771-3.72827,.44543-2.10034,.63574-4.25732,1.13977-6.47534-.37366,.9035-.82751,.83563-1.35669,1.12012-.51538,.27649-1.10486,.89825-1.34277,2.90607-.0802,1.76477,.07715,3.65344,.26672,5.70544,.18713,2.02667,.39844,4.31525,.60669,6.57001,.13074,1.05328,.22742,1.5249,.23132-1.72742Z"/><path class="i" d="M75.11265,92.64945c-.00732,.24811-.00256,.04724,.0282-.38348,.1001-1.7533-.03503,.31445-.0282,.38348Z"/><path class="i" d="M64.801,63.8248c.08777,.6297-.53503,2.00311,.01855,2.76788l1.04504-1.72723c-.33691,.15326-.67749-.42847-1.0636-1.04065Z"/><path class="i" d="M66.34482,64.09549l-.48022,.76996c.15918-.06915,.3092-.28778,.48022-.76996Z"/><path class="i" d="M64.61375,63.53769l.18726,.28711c-.02209-.13232-.06714-.2475-.18726-.28711Z"/><path class="i" d="M23.51011,60.655c-.69153-.78662-.95752,.32062-1.09167,.87329,.34216-.20135,.97192-.32227,1.09167-.87329Z"/><path class="i" d="M1.34476,88.71885l-1.17181,.04938c.56305,.11896,.84656,.17633,1.17181-.04938Z"/><path class="i" d="M14.28269,117.06412c.13855,.15125,.22827,.30634,.29712,.47003-.0459-.14368-.14111-.29871-.29712-.47003Z"/><path class="i" d="M14.57981,117.53415c.29675,.96478-1.79285,1.32623-1.17578,2.64172l-.25769-.32184-.12012,1.34644c.58496-.85406,2.10339-2.39136,1.55359-3.66632Z"/></g><path class="h" d="M83,120.9418c-1.83099-4.26048-8.54205-7.74416-11.13348-9.76537-2.59143-2.02121-1.57534-11.20091-1.53876-15.31361,.03658-4.1127-5.15882-10.90136-7.18432-13.01736"/><path class="h" d="M107.06435,39.56493c2.72171-3.75454,2.27704-11.30282,2.68597-14.56373,.40893-3.26092,8.81387-7.08927,12.36506-9.16405,3.5512-2.07477,6.72141-10.01378,7.50158-12.83715"/><path class="h" d="M206.78985,115.43819c-4.59908-.59385-11.01479,3.40778-14.07396,4.60872s-10.44197-4.34825-13.96282-6.47411c-3.52085-2.12586-12.00905-1.11169-14.8616-.44607"/><path class="f" d="M69.91382,15.28246c-.41382,9.15934-1.58618,16.14823,0,17.65379"/><path class="f" d="M188.41124,32.9418c-3.32276,4.66804-12.73627,8.22992,0,8.99722"/><path class="f" d="M121.11291,116.9418c1.4498,3.11155,5.55714,5.48577,0,5.99722"/><line class="g" x1="3.5" y1="67.4418" x2="6.5" y2="69.4418"/><line class="g" x1="90.84066" y1="32.28246" x2="93.84066" y2="34.28246"/><line class="g" x1="206.84066" y1="86.28246" x2="209.84066" y2="88.28246"/><line class="g" x1="262.84066" y1="41.28246" x2="265.84066" y2="43.28246"/><g><path class="e" d="M71.83274,56.51432c.41895-.90625,.89551-1.5166,1.43066-1.83105,.53418-.31348,1.15137-.4707,1.84863-.4707,.67383,0,1.24316,.10449,1.70898,.31348,.46484,.20996,.83691,.48926,1.11523,.83789,.2793,.34863,.47656,.75586,.59375,1.2207,.11523,.46484,.17383,.96484,.17383,1.49902v.47168c0,.15137-.01172,.30859-.03516,.4707-.02344,.20898-.08105,.58691-.17383,1.13379-.09375,.5459-.20312,1.19141-.33105,1.93555s-.26758,1.5293-.41895,2.35449-.29102,1.61035-.41797,2.35352c-.12891,.74512-.24414,1.39551-.34961,1.9541-.10352,.55762-.17969,.94141-.22656,1.15039-.04688,.23242-.10449,.57031-.17383,1.01172-.07031,.44238-.13965,.94727-.20898,1.51758-.07031,.56934-.12891,1.17969-.1748,1.83105-.04688,.65137-.06934,1.30176-.06934,1.95312,0,.62793,.02246,1.22656,.06934,1.7959,.0459,.57031,.13379,1.07031,.26172,1.5,.12793,.43066,.29004,.77344,.48828,1.0293,.19727,.25586,.44727,.38281,.74902,.38281,.20996,0,.51758-.16797,.9248-.50586,.40723-.33594,.83691-.7373,1.29004-1.20312,.4541-.46484,.90137-.95898,1.34375-1.48242,.44141-.52246,.80176-.95898,1.08105-1.30762,1.51074-1.86035,2.90039-3.74902,4.16797-5.66797,1.2666-1.91797,2.44629-3.85352,3.54004-5.80664,.41797-.76758,.73828-1.54688,.95898-2.33691,.2207-.79102,.48242-1.50586,.78516-2.14551,.30176-.63965,.72656-1.16211,1.27344-1.56934,.54492-.40625,1.36523-.61035,2.45898-.61035,.58008,0,1.17383,.19727,1.77832,.59277s1.02246,.96484,1.25586,1.70898c-.06934,.86035-.1748,1.74414-.31348,2.65039-.14062,.90723-.26758,1.83203-.38477,2.77344-.11621,.94141-.2207,1.87793-.31348,2.80762-.09277,.93066-.13965,1.83691-.13965,2.7207,0,1.37207,.13965,2.64551,.41797,3.81934,.2793,1.17383,.79102,2.16797,1.53516,2.98145,.90723-1.13867,1.80859-2.42871,2.70312-3.87109,.89453-1.44141,1.77344-2.94141,2.63379-4.49902s1.67871-3.13379,2.45801-4.72656,1.50586-3.10938,2.18066-4.55176c.0459-.11621,.0752-.22656,.08691-.33105s.01758-.21484,.01758-.33105v-.31445c0-.7207,.20312-1.46484,.61035-2.23242,.40723-.7666,.88965-1.46484,1.44824-2.09277,.55762-.62793,1.13281-1.13867,1.72656-1.53418,.5918-.39551,1.08594-.59277,1.48145-.59277,.97754,0,1.74414,.26758,2.30176,.80176,.55859,.53516,.83789,1.24414,.83789,2.12793,0,.2793-.05273,.62793-.15723,1.0459-.10449,.41895-.27344,.83691-.50586,1.25586l-11.75391,20.71777-.87207,1.70898c-.37305,.72168-.73828,1.41895-1.09863,2.09277-.36035,.6748-.75586,1.26758-1.18652,1.7793-.42969,.51172-.90625,.91895-1.42969,1.2207-.52344,.30273-1.12207,.45312-1.7959,.45312-.90723,0-1.71582-.25586-2.4248-.76758-.70898-.51074-1.31934-1.13867-1.83008-1.88281-.51172-.74414-.9375-1.55273-1.27344-2.42383-.33789-.87207-.58789-1.65723-.75-2.35449l-1.29102-5.58105c-.06934,0-.31348,.24414-.73242,.73242-.41797,.48828-.94141,1.11621-1.56934,1.88379s-1.31348,1.61035-2.05762,2.52832c-.74414,.91895-1.4707,1.80273-2.17969,2.65137-.70996,.84863-1.36035,1.61621-1.95312,2.30176-.59375,.68652-1.05273,1.16797-1.37793,1.44727-.32617,.2793-.66895,.55859-1.02832,.83691-.36133,.2793-.71582,.52344-1.06445,.73242-.34863,.20996-.67969,.38379-.99414,.52344s-.57617,.20898-.78516,.20898c-1.53418,0-2.80664-.36035-3.81836-1.08105s-1.81445-1.66211-2.40723-2.8252c-.59277-1.16211-1.00586-2.45898-1.23828-3.88867s-.34863-2.86523-.34863-4.30762c0-1.27832,.06445-2.56934,.19141-3.87109,.12793-1.30273,.2793-2.58691,.4541-3.85449s.36035-2.49414,.55762-3.67969,.36719-2.29004,.50586-3.31348c.02344-.18555,.04102-.40137,.05273-.64551s.01758-.49316,.01758-.75v-.90625c0-.37207,.00488-.71582,.01758-1.0293,.01074-.31348,.05176-.52832,.12109-.64551Z"/><path class="e" d="M141.21458,89.68424c-1.44238,0-2.42969-.31348-2.96387-.94141-.53516-.62793-.80273-1.48828-.80273-2.58105,0-.58105,.05762-1.20898,.17383-1.88379,.11719-.67383,.26758-1.37207,.4541-2.09277,.3252-1.23242,.69141-2.45898,1.09863-3.67969,.40625-1.2207,.81348-2.45312,1.2207-3.69727,.40625-1.24316,.80273-2.4873,1.18555-3.73145,.38379-1.24414,.72656-2.49414,1.0293-3.75,.02344-.11621,.03516-.2666,.03516-.45312,0-.3252-.08203-.58105-.24414-.76758-.16406-.18555-.4082-.2793-.73242-.2793-.51172,0-1.06445,.10547-1.65723,.31445s-1.08691,.44141-1.48242,.69727c-1.55762,1.04688-2.9248,2.08105-4.09863,3.10449s-2.24902,2.09277-3.22559,3.20898c-.97754,1.11621-1.90137,2.30762-2.77246,3.5752-.87305,1.26758-1.78516,2.65625-2.73828,4.16797-.81445,1.51172-1.41895,2.7959-1.81445,3.85352-.39453,1.05859-.76172,1.91309-1.09766,2.56348-.33789,.65137-.71582,1.12207-1.13477,1.41309-.41797,.29004-1.0459,.43555-1.88281,.43555-.92969,0-1.58691-.26758-1.9707-.80176-.38379-.53516-.57617-1.23242-.57617-2.09277,0-.67383,.10547-1.42969,.31445-2.26758l11.50977-46.10938c.07031-.2793,.18555-.58105,.34961-.90723,.16211-.3252,.38281-.62695,.66211-.90625s.61035-.51172,.99414-.69824c.38379-.18555,.82031-.27832,1.30859-.27832,.37109,0,.7666,.01758,1.18555,.05176,.41797,.03516,.7959,.10449,1.13281,.20996,.33789,.10449,.61621,.27344,.83789,.50586,.2207,.23242,.33105,.53516,.33105,.90625,0,.09375-.02344,.28516-.06934,.5752-.04688,.29102-.11719,.62305-.20898,.99414-1.25586,5.0459-2.59961,10.30176-4.0293,15.76562-1.42969,5.46484-2.87695,10.98633-4.3418,16.56738,1.41797-1.74414,2.89453-3.34277,4.42969-4.7959,1.53418-1.45312,3.10938-2.70312,4.72559-3.74902,1.61621-1.04688,3.29004-1.86621,5.02246-2.45898,1.73242-.59375,3.52832-.88965,5.38867-.88965,1.18555,0,2.10352,.37793,2.75586,1.13379,.65039,.75586,.97656,1.71484,.97656,2.87695,0,.53516-.07031,1.05859-.20898,1.56934-.2793,1.07031-.59375,2.12207-.94238,3.15723-.34863,1.03418-.70996,2.0752-1.08105,3.12109-.37305,1.04688-.74414,2.11035-1.11621,3.19141s-.69824,2.19238-.97656,3.33105c-.37207,1.46484-.62793,2.85449-.76758,4.16797-.13965,1.31445-.23242,2.36621-.27832,3.15625-.04688,.6748-.15234,1.32617-.31445,1.95312-.16309,.62793-.40137,1.18066-.71484,1.65723-.31445,.47656-.70996,.86035-1.18555,1.15137-.47754,.29004-1.04102,.43555-1.69238,.43555Z"/><path class="e" d="M153.70969,81.31314c.34766-1.34766,.7666-2.91797,1.25488-4.70801,.48828-1.79102,1.00586-3.68555,1.55176-5.68555,.54688-2,1.09961-4.0459,1.65723-6.13867s1.08105-4.12695,1.56934-6.10352c.02344-.09277,.10547-.25,.24414-.4707,.13965-.22168,.33691-.44238,.59375-.66309,.25488-.2207,.58008-.41309,.97656-.5752,.39453-.16309,.85938-.24414,1.39453-.24414,.39453,0,.7793,.04004,1.15039,.12207,.37305,.08105,.70312,.20312,.99414,.36621,.29102,.16211,.52344,.37793,.69824,.64453,.1748,.26758,.26172,.57617,.26172,.9248v.22656c0,.08203-.0127,.15723-.03516,.22656l-.97656,3.69727c-1.09277,4.13867-2.20312,8.29004-3.33105,12.45215s-2.22656,8.33594-3.2959,12.52148c-.04688,.13867-.11621,.31348-.20996,.52246-.0918,.20996-.2207,.41895-.38281,.62793-.16309,.20898-.36133,.38379-.59375,.52344s-.51172,.20898-.83594,.20898c-.60547,0-1.14062-.12207-1.60547-.36621s-.85938-.55273-1.18555-.92383c-.32617-.37207-.57031-.7793-.73242-1.2207s-.24414-.86035-.24414-1.25586v-.31445c0-.0918,.02344-.19727,.07031-.31348l1.01172-4.08105Zm9.10254-36.09961c.11621-.48828,.3252-1.08105,.62793-1.77832s.83789-1.3252,1.60449-1.88379c.37207-.20898,.8252-.40137,1.36035-.5752,.53516-.1748,.91797-.26172,1.15039-.26172s.4707,.08203,.71484,.24414c.24414,.16309,.45898,.33691,.64648,.52344,.23145,.23242,.45312,.48828,.66211,.76758,.58105,.0459,.95898,.25586,1.13379,.62695,.1748,.37305,.26074,.81445,.26074,1.32617,0,.37207-.03418,.70898-.10352,1.01074-.07031,.30273-.12891,.54688-.1748,.73242-.13965,.48828-.40723,.93652-.80176,1.34277-.39648,.40723-.84961,.75586-1.36133,1.04688s-1.0459,.51758-1.60352,.67969c-.55859,.16309-1.04688,.24414-1.46484,.24414-.53516,0-.94824-.0918-1.23828-.27832-.29102-.18652-.6582-.58105-1.09961-1.18652-.25586-.34863-.40039-.62109-.43555-.81934-.03516-.19727-.05273-.36621-.05273-.50586,0-.25586,.01758-.48242,.05273-.67969s.0752-.38965,.12207-.57617Z"/><path class="e" d="M168.81907,75.73307c.30273-1.25586,.70312-2.51172,1.20312-3.76758,.5-1.25488,1.12207-2.49902,1.86719-3.73145,.74316-1.23242,1.62695-2.43555,2.65039-3.61035,1.02344-1.17383,2.2207-2.2959,3.5918-3.36523,.92969-.74414,1.91309-1.44824,2.94727-2.11035,1.03516-.66309,2.08789-1.23828,3.15723-1.72656s2.14551-.87793,3.22559-1.16895c1.08203-.29004,2.14551-.43555,3.19141-.43555,.76758,0,1.44727,.06445,2.04102,.19141,.5918,.12891,1.15625,.30859,1.69141,.54102,.23242-.81348,.85352-3,1.86523-6.55762s2.25-8.50977,3.71484-14.8584c.25586-.62695,.61523-1.15039,1.08203-1.56934,.46484-.41797,1.02148-.62793,1.67383-.62793,.46484,0,.91797,.04102,1.35938,.12207,.44141,.08203,.83789,.24414,1.18555,.48828,.34961,.24414,.62891,.57617,.83789,.99414,.20898,.41895,.31445,.96582,.31445,1.63965l-7.01172,28.00781c-.20898,.79102-.40625,1.85449-.5918,3.19141-.1875,1.33691-.36133,2.75-.52344,4.2373-.16406,1.48828-.29102,2.95996-.38477,4.41211-.0918,1.4541-.13867,2.70312-.13867,3.75,0,1.30273-.15234,2.59277-.45312,3.87109-.14062,.55859-.28516,1.0293-.43555,1.41309-.15234,.38379-.35547,.69727-.61133,.94141s-.57617,.41895-.95898,.52344-.86719,.15625-1.44727,.15625c-.67383,0-1.19727-.06934-1.57031-.20898-.37109-.13965-.65039-.33105-.83594-.5752-.1875-.24414-.29688-.52344-.33203-.83691-.03516-.31445-.05859-.65137-.06836-1.01172-.01367-.36035-.03516-.73242-.07031-1.11621s-.13477-.75-.29688-1.09863c-.2793,.18652-.66211,.43066-1.15039,.73242-.48828,.30273-.98242,.61035-1.48242,.92383-.5,.31445-.9707,.60547-1.41309,.87207-.44238,.26758-.7666,.45996-.97656,.57617-.53516,.30176-1.13965,.62207-1.81348,.95898-.6748,.33691-1.40137,.65137-2.17969,.94141-.7793,.29102-1.59375,.5293-2.44141,.71484-.84961,.18652-1.7041,.2793-2.56445,.2793-1.0459,0-2.06348-.17383-3.05078-.52344-.98926-.34863-1.87305-.88281-2.65137-1.60449-.7793-.71973-1.40137-1.63281-1.86621-2.7373s-.69727-2.40137-.69727-3.88965c0-.53418,.0293-1.06348,.08691-1.58691,.05762-.52246,.16895-1.10938,.33105-1.76074Zm6.03516-.2793c-.1875,.69727-.2793,1.37207-.2793,2.02344,0,.67383,.05664,1.30762,.17383,1.90039,.11621,.59277,.33203,1.11035,.64551,1.55176,.31348,.44238,.73242,.79688,1.25488,1.06445,.52344,.26758,1.2041,.40039,2.04102,.40039,.46484,0,.96484-.08105,1.5-.24414,.53516-.16211,1.06348-.36621,1.58691-.61035,.52246-.24414,1.01074-.49902,1.46484-.7666,.45312-.26758,.84277-.50586,1.16895-.71582,.88281-.58008,1.70312-1.15039,2.45898-1.70898,.75488-.55762,1.43555-1.16211,2.04004-1.81348,.60449-.65039,1.13379-1.37793,1.58691-2.17969,.45312-.80273,.81836-1.72656,1.09766-2.77246,.23242-.93066,.43555-1.7793,.61133-2.54688,.17383-.7666,.33008-1.5166,.4707-2.24902,.13867-.73242,.26758-1.48242,.38281-2.25,.11719-.76758,.23242-1.61621,.34961-2.5459-.11719-.13965-.27344-.27344-.4707-.40137-.19922-.12793-.49414-.19141-.89062-.19141-.92969,0-1.95215,.15625-3.06836,.4707-1.11523,.31348-2.26172,.76172-3.43555,1.34277s-2.3252,1.29004-3.45312,2.12695c-1.12793,.83789-2.17383,1.77344-3.13867,2.80859-.96484,1.03418-1.80859,2.16797-2.5293,3.40039s-1.24414,2.53418-1.56836,3.90625Z"/></g><g><path class="d" d="M41.45676,119.74771c-.5498,0-1.09473-.18164-1.54297-.5332-.71387-.55957-1.06836-1.46191-.92676-2.35742l9.90918-62.88867c.73633-4.68164,6.72656-24.2373,6.98145-25.06738,.30469-.99414,1.19336-1.69531,2.23145-1.76172l126-8c.23633-.01367,.47461,.00391,.70605,.05566l49,11c.70605,.1582,1.30859,.61523,1.65234,1.25195,.34375,.6377,.39453,1.3916,.13965,2.06934l-26,69c-.39258,1.04102-1.4375,1.69141-2.53613,1.61035l-37.84863-2.98828-92.40039,3.97461-34.39746,14.43945c-.31152,.13086-.64062,.19531-.96777,.19531ZM60.15305,32.02018c-1.96094,6.46289-5.80078,19.44043-6.31738,22.72461l-9.20801,58.46094,30.67188-12.87598c.27344-.11523,.56445-.18066,.86035-.19336l93-4c.10059-.00195,.20312-.00195,.30371,.00586l36.12695,2.85156,24.32324-64.5498-45.84473-10.29199-123.91602,7.86816Z"/><path class="j" d="M41.45676,120.74771c-.7793,0-1.54688-.26465-2.16016-.74609-.99805-.7832-1.49512-2.04785-1.29688-3.30078l9.9082-62.8877c.75391-4.79395,6.75879-24.37402,7.01367-25.20605,.42383-1.38184,1.67871-2.37305,3.12402-2.46582l126-8c.34277-.01758,.6709,.00586,.9873,.07812l49.00098,11c.98828,.22168,1.83203,.86035,2.31348,1.75293s.55273,1.94727,.19531,2.89551l-26,69.00098c-.54395,1.44141-2.00879,2.38379-3.54492,2.25488l-37.79297-2.9834-92.16113,3.96387-34.23242,14.37012c-.43164,.18164-.88672,.27344-1.35449,.27344ZM184.2634,20.13443c-.03223,0-.06445,.00098-.09668,.00293L58.17258,28.13736c-.61914,.03906-1.15723,.46387-1.33887,1.05664-.0625,.20312-6.21777,20.27539-6.94922,24.92969l-9.90918,62.88867c-.08594,.53809,.12793,1.08008,.55566,1.41504,.41992,.33105,1.01367,.41113,1.50586,.20312l34.56348-14.50879,.17871-.00781,92.46094-3.97754,37.91016,2.99316c.65527,.05078,1.28906-.34863,1.52148-.96582l26-69c.15234-.40625,.12207-.85938-.08398-1.24219-.20703-.38184-.56738-.65625-.99121-.75098l-49-11c-.10645-.02344-.21875-.03613-.33301-.03613ZM43.36106,114.82193l9.48633-60.23242c.60254-3.82812,5.39453-19.71387,6.34863-22.85938l.20117-.66406,124.75098-7.9209,47.10742,10.5752-24.99414,66.3291-36.87695-2.91016c-.06641-.00488-.13574-.00488-.20508-.00293l-92.97656,3.99902c-.17773,.00781-.35059,.04688-.51465,.11621l-32.32715,13.57031ZM60.90891,32.97428c-2.5791,8.52441-5.64551,19.13184-6.08496,21.92578l-8.92969,56.68945,29.01855-12.18164c.38281-.16113,.78809-.25293,1.2041-.27051l93-4c.15625-.00391,.29199-.00195,.42383,.00781l35.37891,2.79297,23.65234-62.77051-44.58203-10.00879-123.08105,7.81543Z"/></g></g></g></svg>