<?xml version="1.0" encoding="UTF-8"?><svg id="b" xmlns="http://www.w3.org/2000/svg" viewBox="0 0 154.56105 112.63359"><defs><style>.d{fill:#bf1b20;}.d,.e,.f{stroke:#201d1e;stroke-miterlimit:10;}.e{fill:#fcb014;}.f{fill:#018ad5;}</style></defs><g id="c"><g><g><path class="f" d="M78,39.23852l-5.3022,6.36932c0,.04685-.05733,.06952-.08937,.03534l-14.78779-15.77364c-.03548-.03784,.00069-.09852,.05085-.08532l11.12851,3.45429,4,4"/><polygon class="f" points="41.90659 .73852 49.1978 3.23852 49.1978 38.23852 41.6978 45.73852 41.90659 .73852"/><polygon class="e" points="115.6978 .73852 115.6978 96.6506 73.6978 96.6506 57.6978 79.73852 41.90659 96.6506 .5 96.6506 .5 .73852 41.90659 .73852 41.6978 45.73852 57.6978 29.73852 72.6978 45.73852 72.6978 .73852 115.6978 .73852"/><polygon class="f" points="125.6978 89.6623 115.6978 96.6506 115.6978 .73852 125.6978 4.73852 125.6978 89.6623"/><path class="f" d="M41.97442,96.62492l18.38249-6.96123,.00636-.00427,3.32729-3.56347c.00609-.00652,.00606-.01665-.00008-.02314l-5.98034-6.32125c-.00669-.00708-.01797-.00704-.02462,.00008l-15.72945,16.84594c-.0122,.01307,.00161,.03366,.01833,.02732Z"/><g><path class="d" d="M99.55568,88.87432c-1.10254,.33984-1.93164,.33301-2.48828-.02148-.55664-.35352-.96387-.94922-1.2207-1.78418-.13672-.44434-.24023-.9375-.30957-1.48047-.07031-.54297-.11914-1.11182-.14648-1.70605-.04102-1.01904-.0498-2.04297-.02539-3.07129,.02246-1.0293,.04395-2.06641,.06152-3.11328,.01855-1.0459,.02832-2.09033,.02832-3.13184,.00098-1.0415-.03125-2.07715-.0957-3.1084-.00977-.09424-.03613-.2124-.08008-.35498-.07617-.24902-.19922-.42432-.36719-.5293-.16797-.10352-.37695-.11816-.625-.0415-.39258,.12012-.78906,.33105-1.19336,.63086-.40332,.29883-.72656,.59375-.96875,.88232-.94434,1.1665-1.74512,2.27783-2.40234,3.33643-.65625,1.05908-1.22656,2.12939-1.71094,3.21289-.48242,1.08203-.90918,2.21094-1.27734,3.38477-.36816,1.17432-.73926,2.45166-1.11133,3.83105-.2666,1.34717-.42676,2.47168-.47949,3.37207-.05371,.90283-.13281,1.64258-.23633,2.21875-.10449,.57715-.2832,1.02588-.53418,1.34668-.25195,.32129-.69727,.57959-1.33691,.77637-.71094,.21924-1.27637,.16943-1.69531-.14941-.41992-.31885-.72949-.80566-.93262-1.46387-.1582-.51465-.25684-1.11768-.29395-1.80762l-2.05469-37.95312c-.01172-.23047,.00586-.48828,.05371-.77539,.04688-.28809,.14453-.5708,.29297-.85059,.14746-.27832,.3457-.53418,.59473-.76562,.25-.2334,.56152-.40723,.93457-.52197,.28418-.0874,.5918-.16699,.91797-.23926,.3291-.0708,.63477-.10693,.91699-.10645s.53516,.06396,.75879,.18945c.22266,.12598,.37891,.33154,.4668,.61475,.02148,.07227,.04883,.22412,.08203,.45654,.0332,.23389,.05762,.50293,.07422,.80908,.22754,4.15283,.43848,8.48633,.63086,12.99805,.19336,4.51416,.38672,9.07666,.58008,13.68701,.67383-1.6665,1.42676-3.23584,2.25684-4.7085,.83105-1.47266,1.74121-2.79834,2.73047-3.97754,.98926-1.18115,2.0752-2.20215,3.26074-3.06201,1.18359-.86182,2.48633-1.51123,3.90918-1.94922,.90625-.27881,1.69727-.20605,2.37402,.21875,.67383,.42383,1.14941,1.08057,1.42285,1.96924,.12598,.40918,.19629,.8252,.20996,1.24951,.03809,.8833,.0459,1.76172,.02246,2.63379-.02246,.87305-.05371,1.75391-.0918,2.64014-.03809,.8877-.07129,1.78857-.10156,2.70215-.0293,.91504-.01758,1.83984,.03711,2.77588,.06055,1.20752,.19238,2.33057,.39551,3.36719,.20117,1.0376,.37891,1.86328,.5293,2.47852,.12305,.52686,.19531,1.04834,.21875,1.56738,.02441,.51758-.02832,.99561-.15625,1.43457-.12695,.43799-.33984,.82422-.63477,1.1582-.2959,.33496-.69336,.57764-1.19043,.73096Z"/><path class="d" d="M105.5967,49.79863c-.02539-.40039-.00488-.90234,.06152-1.50684s.32812-1.20996,.7832-1.81738c.23438-.24756,.53613-.50146,.9043-.75928,.36719-.25977,.64062-.41748,.81836-.47217s.37891-.04834,.60352,.01807c.22559,.06738,.43066,.15088,.61719,.24854,.23242,.12305,.46094,.26709,.68652,.43115,.45508-.10059,.79395-.03076,1.01465,.2124s.39062,.56055,.51172,.95215c.08789,.28418,.14062,.55029,.1582,.79736,.01758,.24756,.03027,.44775,.03906,.60059,.00879,.40674-.09082,.81152-.29688,1.21582-.20703,.40381-.47168,.77734-.79395,1.12012-.32324,.34229-.67773,.6416-1.06641,.89746-.3877,.25488-.74219,.43262-1.06152,.53125-.40918,.12598-.74707,.15234-1.0127,.07715-.2666-.07324-.63965-.28857-1.11914-.64746-.27832-.20605-.45215-.38037-.52637-.52344-.07324-.14307-.12598-.26758-.1582-.37402-.06055-.19531-.10059-.37256-.12012-.53223-.02051-.15967-.03418-.31543-.04297-.46924Zm1.53906,29.73779c-.05078-1.11377-.10059-2.41113-.14941-3.89551-.04785-1.48291-.09766-3.05371-.15137-4.71094-.05371-1.65771-.1123-3.35156-.17773-5.08203-.06641-1.73145-.14551-3.41016-.2373-5.03467-.00391-.07666,.02051-.21631,.07617-.41797,.05371-.20166,.15332-.41699,.29688-.646,.14355-.22949,.34668-.45264,.61133-.66992,.26367-.2168,.59961-.38867,1.00879-.51465,.30176-.09277,.60449-.15332,.9082-.17773,.30371-.02539,.58594-.00977,.84668,.0459,.25977,.05566,.48828,.16602,.68457,.32812,.19629,.16406,.33594,.37988,.41699,.64551,.0166,.05273,.03516,.11133,.05371,.17383,.01953,.0625,.02832,.12207,.02637,.18164l.12402,3.05518c.13867,3.42041,.2666,6.85596,.38477,10.30176,.11816,3.44824,.25977,6.89697,.42773,10.34717-.00293,.11816-.01562,.2666-.03711,.44971-.02148,.18115-.07031,.37207-.14551,.56982-.0752,.19727-.18555,.37793-.3291,.53955-.14551,.16162-.34277,.27979-.59082,.35645-.46289,.14209-.90039,.17529-1.31348,.09814-.41309-.07666-.78809-.22021-1.12402-.42773s-.61914-.46045-.84668-.76025c-.22852-.29834-.38965-.59961-.48242-.90234-.02734-.08887-.05176-.16895-.07324-.24023-.02246-.07031-.0293-.15576-.02051-.25586l-.1875-3.35693Z"/><path class="d" d="M117.37209,71.71318c-.06445-1.03027-.05371-2.08545,.0332-3.16211,.08691-1.07764,.26855-2.17529,.54785-3.29297,.27832-1.11621,.6709-2.24414,1.17676-3.38281,.50488-1.13721,1.15723-2.27734,1.95312-3.41895,.53613-.78711,1.12207-1.55566,1.75732-2.30566,.63477-.75049,1.30273-1.4375,2.00586-2.06348,.70312-.62451,1.43359-1.1748,2.19141-1.65186s1.53711-.83887,2.33594-1.08496c.58789-.18066,1.12305-.29102,1.60547-.33301,.48438-.04199,.95703-.03662,1.41992,.01514-.01367-.67676-.05273-2.49414-.11719-5.45117-.06445-2.95752-.2832-7.03516-.6582-12.23145,.04883-.54102,.20117-1.02588,.45703-1.45605,.25781-.42773,.63477-.72021,1.13281-.87305,.35547-.10986,.71094-.18457,1.06836-.22656,.35742-.0415,.69727-.01074,1.02148,.09375s.61523,.29199,.87305,.5625c.25977,.27148,.4668,.66455,.62695,1.18018l1.23242,23.05811c.02734,.6543,.125,1.51416,.29883,2.5791,.17188,1.06641,.37109,2.18652,.59766,3.3623,.22461,1.17627,.47461,2.33057,.74414,3.46289,.27148,1.13281,.53125,2.09912,.77734,2.89893,.30664,.99512,.49414,2.01709,.56445,3.06592,.02344,.45898,.02344,.854-.00195,1.18262-.02539,.3291-.10547,.61719-.24414,.86426-.13867,.24658-.3418,.45459-.60938,.625-.26953,.17041-.625,.32422-1.07031,.46094-.51562,.15869-.93164,.22803-1.25,.20898-.31641-.01855-.57422-.09961-.77344-.24219-.20117-.14355-.34961-.33057-.45117-.5625-.10156-.23242-.19727-.48438-.29102-.75586-.09375-.27295-.19922-.55273-.31641-.8374s-.2793-.5415-.48633-.77002c-.16797,.20801-.4043,.48486-.70703,.83057-.30078,.34619-.60742,.69775-.91406,1.05566-.30859,.35693-.60156,.69092-.875,.99854-.27539,.30811-.47852,.53223-.61133,.66943-.33789,.35742-.72461,.74463-1.16016,1.16113-.43555,.41553-.91797,.82666-1.44531,1.23193-.52734,.40625-1.0918,.78027-1.69727,1.12158-.60547,.34229-1.23633,.61377-1.89453,.81592-.79883,.24658-1.61914,.35352-2.45508,.31934-.83789-.03418-1.64014-.23535-2.40479-.60254-.76562-.36621-1.45508-.91846-2.07031-1.65381-.61621-.73389-1.09863-1.6709-1.44922-2.80859-.125-.40918-.22754-.81982-.30664-1.23291-.0791-.41406-.13281-.88867-.16113-1.4248Zm4.54688-1.6333c.02148,.57715,.10938,1.11475,.2627,1.61182,.15918,.5166,.35205,.9873,.58057,1.41211,.22852,.42627,.51562,.77148,.85938,1.03418,.34375,.26416,.74609,.43701,1.20898,.51807s1.01367,.02344,1.6543-.17334c.35547-.10938,.71875-.28857,1.08984-.54102,.36914-.24951,.72656-.5293,1.06836-.83887,.34375-.31055,.65625-.62012,.93945-.93164,.28516-.31104,.52539-.58447,.72461-.82227,.53906-.65234,1.03125-1.27979,1.47656-1.88525,.44727-.60352,.82422-1.22559,1.13477-1.86621,.30859-.63916,.54102-1.31934,.69922-2.03955,.1582-.71973,.2207-1.51221,.1875-2.37744-.04102-.7666-.08594-1.46338-.13281-2.09082s-.10352-1.2373-.16992-1.82959c-.06641-.59375-.14453-1.19678-.23633-1.81006-.0918-.61426-.20312-1.29004-.33203-2.02881-.12305-.07861-.27344-.14453-.45508-.19531-.18164-.05127-.42188-.03027-.72461,.0625-.71094,.21875-1.45703,.5791-2.23633,1.08203s-1.54883,1.11426-2.30859,1.83496c-.76172,.7207-1.47461,1.53467-2.13867,2.43945-.66602,.90527-1.24414,1.86719-1.73828,2.88477-.49414,1.01904-.87305,2.0835-1.1333,3.19434-.26172,1.1123-.35449,2.23047-.28027,3.35596Z"/></g></g><g><path d="M2.36184,109.23027l-.19092-1.22314c-.04492-.28809-.11426-.69141-.20801-1.20947l-.91504-4.96582-.33154-1.6748c.47168,.00879,.85352,.01318,1.14551,.01318,.32959,0,.71143-.00439,1.14551-.01318,.10107,.72217,.18164,1.25195,.2417,1.58838l.47168,2.6792c.09717,.57568,.20605,1.27832,.32568,2.10693l.18457-.93066,.6665-3.0708,.45898-2.37305c.51221,.00879,.94629,.01318,1.30176,.01318,.38525,0,.81738-.00439,1.2959-.01318l.35449,2.79834,.49023,3.56299,.21826-.97705c.04102-.16846,.08398-.33936,.12891-.51221s.13867-.51611,.28076-1.03027l.68408-2.55225,.31934-1.28955c.45215,.00439,.82617,.00635,1.12109,.00635,.33252,0,.70459-.00195,1.11572-.00635l-2.17529,7.72363-.34766,1.34961c-.56104-.00879-1.05127-.01318-1.47021-.01318-.44141,0-.9292,.00439-1.46436,.01318l-.12891-.91064-.49268-3.1709c-.02637-.19043-.0498-.38623-.07031-.58789s-.04932-.51514-.08691-.94092l-.19629,1.03027c-.04883,.23047-.09912,.46338-.15137,.69824l-.9043,3.88184c-.56494-.00879-1.03418-.01318-1.4082-.01318-.39648,0-.86621,.00439-1.40869,.01318Z"/><path d="M12.93215,109.23027l.21729-3.62939,.1001-2.64551,.02783-1.17676c.00732-.34082,.01123-.66895,.01123-.9834l-.00586-.63818c.58789,.00879,1.02783,.01318,1.32031,.01318,.22803,0,.625-.00439,1.19043-.01318-.08838,1.27197-.146,2.39502-.17139,3.37012h3.05371c.01855-.36426,.03613-.85596,.05273-1.47559,.0166-.61914,.02539-1.04199,.02539-1.26855,0-.11963-.00391-.32861-.01123-.62598l1.32764,.01318c.13818,0,.53076-.00439,1.17676-.01318-.13379,2.27783-.21875,3.97168-.25586,5.08154-.03711,1.11035-.05566,2.44092-.05566,3.9917l-1.22461-.01318c-.18359,0-.62158,.00439-1.31396,.01318,.09326-1.05469,.15723-2.28223,.19092-3.68262h-3.05664l-.09424,3.68262-1.30273-.01318c-.16504,0-.56592,.00439-1.20215,.01318Z"/><path d="M20.88332,109.23027l.46631-.95703,2.90186-6.47461,.30908-.72461c.08936-.2124,.21484-.51807,.37598-.91699,.6582,.00879,1.13867,.01318,1.44189,.01318,.52686,0,1.01514-.00439,1.46387-.01318l.81885,2.77197,1.66504,5.33057,.3252,.9707c-.64746-.00879-1.04053-.01318-1.1792-.01318-.31445,0-.77686,.00439-1.38721,.01318-.16455-.73096-.40137-1.59082-.71143-2.5791h-2.82422c-.3252,.77979-.66162,1.63965-1.00928,2.5791-.69629-.00879-1.12354-.01318-1.28076-.01318-.28418,0-.74316,.00439-1.37598,.01318Zm4.34424-4.51318h1.74268c-.43311-1.56201-.67041-2.42236-.71143-2.58154-.24658,.65039-.45605,1.18359-.62793,1.59912l-.40332,.98242Z"/><path d="M32.5215,109.23027c.18604-2.15381,.29736-4.52441,.33447-7.1123l-2.3877,.07275,.02783-.73779c.01514-.39404,.02637-.82617,.03369-1.2959,1.06201,.00879,2.2998,.01318,3.71289,.01318l1.38574-.00635h1.34619l.729-.00684-.03369,.65088c-.01465,.34912-.0249,.63818-.03076,.86621-.00537,.22852-.0083,.40039-.0083,.5166-.7998-.04834-1.45947-.07275-1.979-.07275h-.39209c-.05664,.78271-.1001,1.50586-.12988,2.16943-.0415,.95117-.07373,1.87451-.09619,2.77002s-.03369,1.62012-.03369,2.17285c-.61328-.00879-1.00928-.01318-1.18896-.01318-.16064,0-.59033,.00439-1.28955,.01318Z"/><path d="M40.15432,109.23027l.21729-3.62939,.1001-2.64551,.02783-1.17676c.00732-.34082,.01123-.66895,.01123-.9834l-.00586-.63818c.58789,.00879,1.02783,.01318,1.32031,.01318,.22803,0,.625-.00439,1.19043-.01318-.08838,1.27197-.146,2.39502-.17139,3.37012h3.05371c.01855-.36426,.03613-.85596,.05273-1.47559,.0166-.61914,.02539-1.04199,.02539-1.26855,0-.11963-.00391-.32861-.01123-.62598l1.32764,.01318c.13818,0,.53076-.00439,1.17676-.01318-.13379,2.27783-.21875,3.97168-.25586,5.08154-.03711,1.11035-.05566,2.44092-.05566,3.9917l-1.22461-.01318c-.18359,0-.62158,.00439-1.31396,.01318,.09326-1.05469,.15723-2.28223,.19092-3.68262h-3.05664l-.09424,3.68262-1.30273-.01318c-.16504,0-.56592,.00439-1.20215,.01318Z"/><path d="M48.10598,109.23027l.46631-.95703,2.90186-6.47461,.30908-.72461c.08936-.2124,.21484-.51807,.37598-.91699,.6582,.00879,1.13867,.01318,1.44189,.01318,.52686,0,1.01514-.00439,1.46387-.01318l.81885,2.77197,1.66504,5.33057,.3252,.9707c-.64746-.00879-1.04053-.01318-1.1792-.01318-.31445,0-.77686,.00439-1.38721,.01318-.16455-.73096-.40137-1.59082-.71143-2.5791h-2.82422c-.3252,.77979-.66162,1.63965-1.00928,2.5791-.69629-.00879-1.12354-.01318-1.28076-.01318-.28418,0-.74316,.00439-1.37598,.01318Zm4.34424-4.51318h1.74268c-.43311-1.56201-.67041-2.42236-.71143-2.58154-.24658,.65039-.45605,1.18359-.62793,1.59912l-.40332,.98242Z"/><path d="M60.07668,109.23027l-.20801-.81104-1.36963-4.67285-1.07812-3.58936c.5083,.00879,.96045,.01318,1.35645,.01318,.24268,0,.62402-.00439,1.14355-.01318,.08643,.39453,.15381,.69385,.20215,.89795,.06787,.26611,.19531,.74707,.38232,1.44336l.82666,3.14648c.08203,.32812,.18359,.75586,.30322,1.28369l.25781-.76514,1.95654-5.08203c.03369-.09277,.07178-.19922,.11475-.31934,.04297-.11963,.11133-.32129,.20459-.60498,.54297,.00879,.979,.01318,1.30811,.01318,.20605,0,.61377-.00439,1.22412-.01318-.38135,.8418-.81348,1.82568-1.29541,2.95117l-1.93457,4.54688c-.18701,.44287-.39648,.96826-.62842,1.5752-.62842-.00879-1.07715-.01318-1.34668-.01318-.25049,0-.72363,.00439-1.41943,.01318Z"/><path d="M66.26467,109.23027c.09326-1.14307,.16211-2.10059,.20508-2.87158s.08643-1.7959,.12939-3.07422,.06494-2.12598,.06494-2.54248l-.00586-.58496c.88281,.00879,1.9502,.01318,3.20312,.01318,1.15576,0,2.1748-.00439,3.05713-.01318l-.01123,.21875c-.00342,.05273-.0127,.24512-.02783,.57617l-.03369,.72217c-.00732,.15479-.01123,.31152-.01123,.47021-.72168-.03516-1.32764-.05322-1.81787-.05322-.53857,0-.90234,.00146-1.09131,.00342-.18896,.00244-.4834,.01221-.88379,.02979l-.06787,1.52881c.44141,.01367,.95605,.02002,1.54346,.02002,.20947,0,.7666-.01514,1.67236-.04639-.0376,.56738-.07324,1.24316-.10645,2.02734-.64697-.00879-1.14404-.01318-1.4917-.01318-.51611,0-1.09375,.01562-1.73291,.04639l-.06641,1.61523h.64453c.19043,0,.58496-.00635,1.18311-.02002l1.16064-.0332c.17188-.00439,.45996-.02197,.86328-.05322-.04492,.65625-.08203,1.33398-.11182,2.03418-.91309-.00879-1.91357-.01318-3.00195-.01318l-2.46875,.00635-.79639,.00684Z"/><path d="M75.88918,109.23027c.21582-3.55859,.32324-6.29688,.32324-8.21582l-.00537-.85742c.65479,.00879,1.09277,.01318,1.31396,.01318,.10107,0,.50342-.00439,1.20703-.01318-.06738,.99707-.12207,1.94092-.16309,2.83154-.05273,1.24072-.09033,2.40088-.11279,3.47998s-.03369,1.99951-.03369,2.76172l-1.1499-.01318c-.22412,0-.68408,.00439-1.37939,.01318Z"/><path d="M81.82766,109.23027c.08301-1.01025,.13916-1.81885,.16943-2.42627,.04492-.90381,.09033-2.07373,.13525-3.50977,.03418-1.09863,.05078-1.88525,.05078-2.35938v-.77783c.4375,.01318,.81543,.02002,1.1333,.02002,.30664,0,.7085-.01025,1.20605-.03027,.49707-.01953,.96436-.02979,1.40234-.02979,.50098,0,.93994,.03564,1.31787,.10645,.37744,.0708,.72998,.21729,1.05713,.43848,.32715,.22168,.60107,.51221,.82178,.87109s.38916,.77881,.50488,1.25928c.11572,.48096,.17383,.97656,.17383,1.48584,0,.50098-.04492,.98291-.13477,1.4458-.08936,.46289-.21484,.88086-.37549,1.25293-.16113,.37207-.34912,.69238-.56396,.96045-.21533,.26807-.46094,.49756-.73779,.68799-.20605,.14209-.41357,.25244-.62305,.33252-.20947,.07959-.49561,.14404-.8584,.19287-.40381,.05322-.8623,.07959-1.37451,.07959l-2.2666-.02002c-.21338,0-.55908,.00684-1.03809,.02002Zm2.42578-2.00098c.20557,.02246,.42041,.0332,.64453,.0332,.38135,0,.72168-.03955,1.02051-.11963,.29932-.07959,.56201-.25,.78809-.51172,.22607-.26123,.39355-.59717,.50195-1.00684,.1084-.41016,.1626-.83008,.1626-1.25977,0-.52734-.08057-.97168-.24121-1.33252-.16113-.36133-.375-.61279-.64258-.75488-.26758-.1416-.63135-.2124-1.09131-.2124-.26904,0-.5874,.01318-.95361,.03955l-.18896,5.125Z"/><path d="M94.9131,99.98418c.59863,0,1.1748,.09521,1.72803,.28564,.55371,.19092,1.03809,.49512,1.45312,.91406,.41553,.41895,.72607,.90088,.93164,1.4458s.30859,1.17236,.30859,1.88135c0,.74414-.11328,1.42773-.33936,2.05029-.22656,.62256-.55273,1.15137-.979,1.58545-.42676,.43457-.93555,.75244-1.52637,.9541-.59082,.20117-1.20605,.30225-1.8457,.30225-.63232,0-1.23828-.09863-1.81787-.2959-.58008-.19727-1.08398-.51611-1.51221-.95703s-.73193-.93164-.91162-1.47266c-.17969-.54053-.26953-1.14062-.26953-1.80127,0-.97021,.18994-1.82227,.56982-2.55566,.37939-.7334,.94238-1.30615,1.68848-1.71826,.74658-.41211,1.58691-.61816,2.52197-.61816Zm-.10107,2.00049c-.43018,0-.81885,.12549-1.16699,.37598-.34766,.25-.61523,.59814-.80225,1.04346s-.28027,.92285-.28027,1.43262c0,.46973,.08496,.89941,.25537,1.28955,.16992,.38965,.4292,.69434,.77686,.91357,.34766,.21973,.71631,.3291,1.10547,.3291,.41504,0,.79541-.12305,1.1416-.36865,.3457-.24609,.60986-.5918,.79102-1.03711,.18164-.44531,.27197-.91162,.27197-1.39941,0-.47412-.08398-.91162-.25244-1.3125-.16797-.40088-.41504-.7124-.74023-.93408-.32568-.22168-.69238-.33252-1.1001-.33252Z"/><path d="M99.81252,109.23027l.11182-1.396,.21875-4.73291,.06201-1.90771v-1.03662c.58057,.00879,1.09375,.01318,1.53955,.01318,.31836,0,.76611-.00439,1.34326-.01318l2.39502,5.16016,.33008,.75781c.04199-.74463,.08545-1.78857,.12939-3.13184,.04443-1.34326,.06641-2.27197,.06641-2.78613,.45947,.00879,.82764,.01318,1.104,.01318,.12695,0,.49316-.00439,1.09863-.01318l-.13477,1.98096-.25244,5.50342-.03369,1.58887c-.48633-.00879-.94141-.01318-1.36426-.01318-.35205,0-.83838,.00439-1.45996,.01318-.19385-.43457-.33789-.74902-.43115-.94434l-.94141-1.89502c-.31006-.62061-.5957-1.21484-.85742-1.78223-.17188-.35889-.34912-.75391-.53223-1.18359l-.12061,3.15186-.05762,2.65332c-.46338-.00879-.81641-.01318-1.05908-.01318-.20557,0-.59033,.00439-1.1543,.01318Z"/><path d="M108.80764,109.23027c.09326-1.14307,.16211-2.10059,.20508-2.87158s.08643-1.7959,.12939-3.07422,.06494-2.12598,.06494-2.54248l-.00586-.58496c.88281,.00879,1.9502,.01318,3.20312,.01318,1.15576,0,2.1748-.00439,3.05713-.01318l-.01123,.21875c-.00342,.05273-.0127,.24512-.02783,.57617l-.03369,.72217c-.00732,.15479-.01123,.31152-.01123,.47021-.72168-.03516-1.32764-.05322-1.81787-.05322-.53857,0-.90234,.00146-1.09131,.00342-.18896,.00244-.4834,.01221-.88379,.02979l-.06787,1.52881c.44141,.01367,.95605,.02002,1.54346,.02002,.20947,0,.7666-.01514,1.67236-.04639-.0376,.56738-.07324,1.24316-.10645,2.02734-.64697-.00879-1.14404-.01318-1.4917-.01318-.51611,0-1.09375,.01562-1.73291,.04639l-.06641,1.61523h.64453c.19043,0,.58496-.00635,1.18311-.02002l1.16064-.0332c.17188-.00439,.45996-.02197,.86328-.05322-.04492,.65625-.08203,1.33398-.11182,2.03418-.91309-.00879-1.91357-.01318-3.00195-.01318l-2.46875,.00635-.79639,.00684Z"/></g></g></g></svg>