<?xml version="1.0" encoding="UTF-8"?><svg id="b" xmlns="http://www.w3.org/2000/svg" xmlns:xlink="http://www.w3.org/1999/xlink" viewBox="0 0 331.5 143.5"><defs><style>.i{fill:#fff;}.j{filter:url(#h);}.k{mask:url(#f);}.l{fill:#e20821;}.m{fill:#fcd720;filter:url(#d);}</style><filter id="d" filterUnits="userSpaceOnUse"><feOffset dx="1.5" dy="1.5"/><feGaussianBlur result="e" stdDeviation="0"/><feFlood flood-color="#000" flood-opacity="1"/><feComposite in2="e" operator="in"/><feComposite in="SourceGraphic"/></filter><filter id="h" x="19" y="2" width="285" height="128" color-interpolation-filters="sRGB" filterUnits="userSpaceOnUse"><feFlood flood-color="#fff" result="bg"/><feBlend in="SourceGraphic" in2="bg"/></filter><mask id="f" x="19" y="2" width="285" height="128" maskUnits="userSpaceOnUse"><g class="j"><rect class="i" x="19" y="2" width="285" height="128"/></g></mask></defs><g id="c"><g><ellipse class="m" cx="165" cy="71" rx="167.52012" ry="64.72922" transform="translate(-10.43701 32.42727) rotate(-10.88223)"/><g class="k"><g><g><path d="M84.2627,124.79932l-8.86963-49.71045-22.96924,49.71045h-5.41406l-11.95068-64.47656h-9.60352l.92236-6.5625h31.45312l-.92236,6.5625h-9.2168l8.03955,45.52783h.25781l23.87695-52.50049h3.93164l9.18652,52.50049h.25781l20.57764-45.52783h-9.02344l.92236-6.5625h24.04102l-.92236,6.5625h-9.41016l-29.68604,64.47656h-5.47852Z"/><path d="M139.1792,117.08887h8.70117l-.92236,6.5625h-29.9707l.92236-6.5625h9.66797l14.90625-106.06689h-9.66797l.92236-6.5625h21.26953l-8.47363,60.29346h.25781c2.39648-4.21094,5.22705-7.46533,8.49414-9.76221,3.26514-2.29688,7.21973-3.44531,11.86035-3.44531,5.97168,0,10.11523,1.92822,12.43115,5.7832,2.31543,3.85596,2.96973,9.36621,1.96338,16.5293l-6.07568,43.23096h9.3457l-.92236,6.5625h-29.64746l.92236-6.5625h8.70117l6.34033-45.11768c.646-4.59375,.31689-7.91553-.98389-9.9668-1.30225-2.05078-3.43506-3.07617-6.3999-3.07617-2.14941,0-4.23389,.54736-6.25684,1.64062-2.02295,1.09473-3.89453,2.78906-5.61328,5.08643-1.71973,2.29639-3.24121,5.24951-4.56445,8.85889-1.32422,3.60986-2.34277,7.95703-3.05762,13.04346l-4.1499,29.53125Z"/><path d="M207.64209,117.08887h9.66797l-.92236,6.5625h-30.9375l.92236-6.5625h9.66797l7.97754-56.76611h-9.66797l.92236-6.5625h21.26953l-8.8999,63.32861Zm6.3501-86.46143c-1.11816,0-2.10596-.23193-2.96338-.69727-.85986-.46387-1.58105-1.13428-2.16699-2.00977-.58594-.87451-.98975-1.89941-1.21094-3.07617-.22168-1.17529-.22852-2.50195-.021-3.97852,.19971-1.42139,.5874-2.73389,1.16553-3.9375,.57715-1.20215,1.271-2.2417,2.08154-3.11719,.80957-.87451,1.72314-1.55859,2.7373-2.05078,1.01367-.49219,2.05811-.73828,3.1333-.73828,1.07324,0,2.05029,.2334,2.93115,.69727,.87891,.46533,1.61328,1.13574,2.19922,2.00977,.58594,.87549,.98975,1.90088,1.21094,3.07666,.22168,1.17627,.22852,2.50146,.021,3.97803s-.60107,2.81738-1.17725,4.01953c-.57812,1.20361-1.27002,2.229-2.07568,3.07617-.80762,.84863-1.71826,1.51758-2.73193,2.00977-1.01514,.49219-2.05957,.73828-3.13281,.73828Z"/><path d="M275.84717,117.08887h9.66797l-.92236,6.5625h-21.26855l1.39502-9.92627h-.25781c-1.44873,2.35205-2.9375,4.30713-4.46582,5.86523-1.53076,1.55908-3.09326,2.81787-4.6875,3.77344-1.59619,.95654-3.21631,1.62695-4.85889,2.01025-1.64453,.38184-3.28271,.57373-4.91455,.57373-4.08301,0-7.57764-.97119-10.4834-2.91162-2.90771-1.94092-5.22363-4.56592-6.94971-7.87549-1.72656-3.30811-2.84863-7.17725-3.36426-11.60742-.51562-4.42969-.42041-9.15918,.28662-14.19092,.73779-5.25049,2.05322-10.18506,3.9502-14.80713,1.89551-4.62061,4.23096-8.62598,7.00635-12.01758,2.77441-3.38965,5.90088-6.07031,9.37988-8.03906,3.47656-1.96826,7.1709-2.95312,11.08203-2.95312,3.78027,0,6.94922,.99854,9.50488,2.99414,2.55518,1.99707,4.4375,4.79932,5.65039,8.4082h.25781l7.29736-51.92578h-10.3125l.92236-6.5625h21.91309l-15.82861,112.62939Zm-37.99219-28.21924c-.87646,6.23438-1.25049,11.33447-1.11865,15.29932,.12891,3.96533,.65771,7.08252,1.58594,9.35107,.92578,2.27051,2.20117,3.82861,3.82227,4.67578,1.62109,.84863,3.46289,1.27197,5.52539,1.27197,3.26465,0,6.06641-.90234,8.40479-2.70752,2.33691-1.80469,4.32666-4.18359,5.96582-7.13623,1.64014-2.95361,2.95801-6.30225,3.9585-10.04932,.99805-3.74512,1.77148-7.55957,2.31689-11.44336,.78418-5.57764,1.04834-10.29492,.79639-14.15039-.25391-3.85498-.92334-6.9585-2.01074-9.31055-1.08789-2.35059-2.53711-4.04639-4.34473-5.08545-1.81055-1.03857-3.87402-1.55908-6.19434-1.55908-2.0625,0-4.0332,.41016-5.90918,1.23047-1.87793,.82031-3.61963,2.36621-5.22754,4.63477-1.60791,2.27002-3.04688,5.40137-4.31689,9.39258-1.27002,3.99316-2.35498,9.1875-3.25391,15.58594Z"/></g><g><path class="l" d="M82.7627,123.29932l-8.86963-49.71045-22.96924,49.71045h-5.41406l-11.95068-64.47656h-9.60352l.92236-6.5625h31.45312l-.92236,6.5625h-9.2168l8.03955,45.52783h.25781l23.87695-52.50049h3.93164l9.18652,52.50049h.25781l20.57764-45.52783h-9.02344l.92236-6.5625h24.04102l-.92236,6.5625h-9.41016l-29.68604,64.47656h-5.47852Z"/><path class="l" d="M137.6792,115.58887h8.70117l-.92236,6.5625h-29.9707l.92236-6.5625h9.66797l14.90625-106.06689h-9.66797l.92236-6.5625h21.26953l-8.47363,60.29346h.25781c2.39648-4.21094,5.22705-7.46533,8.49414-9.76221,3.26514-2.29688,7.21973-3.44531,11.86035-3.44531,5.97168,0,10.11523,1.92822,12.43115,5.7832,2.31543,3.85596,2.96973,9.36621,1.96338,16.5293l-6.07568,43.23096h9.3457l-.92236,6.5625h-29.64746l.92236-6.5625h8.70117l6.34033-45.11768c.646-4.59375,.31689-7.91553-.98389-9.9668-1.30225-2.05078-3.43506-3.07617-6.3999-3.07617-2.14941,0-4.23389,.54736-6.25684,1.64062-2.02295,1.09473-3.89453,2.78906-5.61328,5.08643-1.71973,2.29639-3.24121,5.24951-4.56445,8.85889-1.32422,3.60986-2.34277,7.95703-3.05762,13.04346l-4.1499,29.53125Z"/><path class="l" d="M206.14209,115.58887h9.66797l-.92236,6.5625h-30.9375l.92236-6.5625h9.66797l7.97754-56.76611h-9.66797l.92236-6.5625h21.26953l-8.8999,63.32861Zm6.3501-86.46143c-1.11816,0-2.10596-.23193-2.96338-.69727-.85986-.46387-1.58105-1.13428-2.16699-2.00977-.58594-.87451-.98975-1.89941-1.21094-3.07617-.22168-1.17529-.22852-2.50195-.021-3.97852,.19971-1.42139,.5874-2.73389,1.16553-3.9375,.57715-1.20215,1.271-2.2417,2.08154-3.11719,.80957-.87451,1.72314-1.55859,2.7373-2.05078,1.01367-.49219,2.05811-.73828,3.1333-.73828,1.07324,0,2.05029,.2334,2.93115,.69727,.87891,.46533,1.61328,1.13574,2.19922,2.00977,.58594,.87549,.98975,1.90088,1.21094,3.07666,.22168,1.17627,.22852,2.50146,.021,3.97803s-.60107,2.81738-1.17725,4.01953c-.57812,1.20361-1.27002,2.229-2.07568,3.07617-.80762,.84863-1.71826,1.51758-2.73193,2.00977-1.01514,.49219-2.05957,.73828-3.13281,.73828Z"/><path class="l" d="M274.34717,115.58887h9.66797l-.92236,6.5625h-21.26855l1.39502-9.92627h-.25781c-1.44873,2.35205-2.9375,4.30713-4.46582,5.86523-1.53076,1.55908-3.09326,2.81787-4.6875,3.77344-1.59619,.95654-3.21631,1.62695-4.85889,2.01025-1.64453,.38184-3.28271,.57373-4.91455,.57373-4.08301,0-7.57764-.97119-10.4834-2.91162-2.90771-1.94092-5.22363-4.56592-6.94971-7.87549-1.72656-3.30811-2.84863-7.17725-3.36426-11.60742-.51562-4.42969-.42041-9.15918,.28662-14.19092,.73779-5.25049,2.05322-10.18506,3.9502-14.80713,1.89551-4.62061,4.23096-8.62598,7.00635-12.01758,2.77441-3.38965,5.90088-6.07031,9.37988-8.03906,3.47656-1.96826,7.1709-2.95312,11.08203-2.95312,3.78027,0,6.94922,.99854,9.50488,2.99414,2.55518,1.99707,4.4375,4.79932,5.65039,8.4082h.25781l7.29736-51.92578h-10.3125l.92236-6.5625h21.91309l-15.82861,112.62939Zm-37.99219-28.21924c-.87646,6.23438-1.25049,11.33447-1.11865,15.29932,.12891,3.96533,.65771,7.08252,1.58594,9.35107,.92578,2.27051,2.20117,3.82861,3.82227,4.67578,1.62109,.84863,3.46289,1.27197,5.52539,1.27197,3.26465,0,6.06641-.90234,8.40479-2.70752,2.33691-1.80469,4.32666-4.18359,5.96582-7.13623,1.64014-2.95361,2.95801-6.30225,3.9585-10.04932,.99805-3.74512,1.77148-7.55957,2.31689-11.44336,.78418-5.57764,1.04834-10.29492,.79639-14.15039-.25391-3.85498-.92334-6.9585-2.01074-9.31055-1.08789-2.35059-2.53711-4.04639-4.34473-5.08545-1.81055-1.03857-3.87402-1.55908-6.19434-1.55908-2.0625,0-4.0332,.41016-5.90918,1.23047-1.87793,.82031-3.61963,2.36621-5.22754,4.63477-1.60791,2.27002-3.04688,5.40137-4.31689,9.39258-1.27002,3.99316-2.35498,9.1875-3.25391,15.58594Z"/></g></g></g></g></g></svg>