<?xml version="1.0" encoding="UTF-8"?><svg id="b" xmlns="http://www.w3.org/2000/svg" viewBox="0 0 403.00098 83.94971"><defs><style>.d{fill:#fff;}.e{fill:#eb2a2e;}.f{fill:#00954a;}.g{fill:#313b96;}.h{fill:#f9ec2b;}</style></defs><g id="c"><g><g><path class="e" d="M96.70703,58.34131h-5.25977l-.56934-35.60596-9.20996,35.60596h-5.36328l-.94824-48.69238h5.08691l.22461,34.07812,8.6748-34.07812h5.63965l.58691,33.71289,8.33008-33.71289h5.03613l-12.22852,48.69238Z"/><path class="e" d="M122.55664,36.58594h-9.77832l-2.36328,21.75537h-5.20801l5.29492-48.69238h5.19043l-2.03516,18.79932h9.7793l2.05273-18.79932h5.19043l-5.27734,48.69238h-5.20801l2.3623-21.75537Z"/><path class="e" d="M146.30176,47.58008h-10.02051l-3.03516,10.76123h-5.34668l14.29688-48.69238h5.77832l4.10449,48.69238h-4.93262l-.84473-10.76123Zm-.63867-8.10449l-1.46582-19.59668-6.10547,19.59668h7.57129Z"/><path class="e" d="M162.75098,58.34131h-5.20898l4.41504-40.55469h-7.41602l.87988-8.1377h19.91992l-.87988,8.1377h-7.3125l-4.39746,40.55469Z"/><path class="e" d="M198.80664,36.58594h-9.77832l-2.36328,21.75537h-5.20801l5.29492-48.69238h5.19043l-2.03516,18.79932h9.7793l2.05273-18.79932h5.19043l-5.27734,48.69238h-5.20801l2.3623-21.75537Z"/><path class="e" d="M222.55273,47.58008h-10.02051l-3.03516,10.76123h-5.34668l14.29688-48.69238h5.77832l4.10449,48.69238h-4.93262l-.84473-10.76123Zm-.63867-8.10449l-1.46582-19.59668-6.10547,19.59668h7.57129Z"/><path class="e" d="M240.64062,58.34131h-5.55371l-4.53613-48.69238h5.19141l3.20801,36.83496,10.46875-36.83496h5.15625l-13.93457,48.69238Z"/><path class="e" d="M250.67383,58.34131l5.27832-48.69238h18.74707l-.87988,8.1377h-13.53906l-1.20703,11.06055h13.08984l-.87891,8.13721h-13.09082l-1.58594,13.21924h14.71094l-.89648,8.1377h-19.74805Z"/><path class="e" d="M282.05664,58.34131l5.29492-48.69238h5.19043l-5.27734,48.69238h-5.20801Z"/><path class="e" d="M300.22754,58.34131l5.29492-48.69238h6.81152c1.89746,0,3.11035,.05566,3.63965,.16602,1.0459,.19922,1.98047,.60938,2.80273,1.229,.82129,.62012,1.56934,1.48975,2.24219,2.60742,.67188,1.11816,1.25293,2.46338,1.74121,4.03564,.48926,1.57227,.86523,3.38232,1.12988,5.43066s.39648,4.29004,.39648,6.72559c0,5.24805-.52051,9.90381-1.56055,13.9668-1.04102,4.06348-2.34863,7.29053-3.92383,9.68213-1.20703,1.85986-2.76562,3.23291-4.67383,4.11816-1.08105,.48779-2.74219,.73096-4.98438,.73096h-8.91602Zm6.05371-7.83838h2.63867c1.9082,0,3.29102-.22705,4.14746-.68115,.85645-.45361,1.6416-1.30029,2.35449-2.54102,1.02246-1.79346,1.88477-4.18506,2.58691-7.17432,.70117-2.98926,1.05176-6.50977,1.05176-10.56201,0-3.4541-.29004-6.05029-.87109-7.78857-.58008-1.73828-1.2959-2.89502-2.14746-3.47119-.59766-.39844-1.66113-.59766-3.19043-.59766h-3.01758l-3.55273,32.81592Z"/><path class="e" d="M326.40332,39.24316c0-2.87842,.22461-5.91211,.67285-9.10107,.58594-4.27295,1.48047-7.98193,2.68164-11.12646,1.20117-3.14404,2.7168-5.62988,4.54492-7.45703,1.82812-1.82666,3.90918-2.73975,6.24316-2.73975,3.12695,0,5.65332,1.87109,7.58008,5.61279,1.92578,3.74268,2.88867,8.70264,2.88867,14.88037,0,5.13721-.62695,10.1084-1.87988,14.91309-1.25391,4.80518-2.95508,8.50293-5.10547,11.09375s-4.58203,3.88623-7.29492,3.88623c-2.35742,0-4.33496-1.02979-5.93262-3.08936-1.59863-2.05908-2.73145-4.61084-3.39746-7.65576-.66699-3.04443-1.00098-6.1167-1.00098-9.2168Zm5.13965-.19922c0,3.34375,.52832,6.14453,1.58691,8.40283,1.05762,2.25879,2.44922,3.38818,4.17383,3.38818,1.40234,0,2.75098-.89111,4.04395-2.67383,1.29395-1.78223,2.36328-4.48389,3.20801-8.10449,.84473-3.62012,1.26758-7.146,1.26758-10.57861,0-3.83057-.53516-6.83643-1.60352-9.01758-1.06934-2.18066-2.43262-3.27197-4.08789-3.27197-2.54102,0-4.60742,2.28125-6.2002,6.84229-1.59277,4.56201-2.38867,9.56592-2.38867,15.01318Z"/><path class="e" d="M371.56934,58.34131h-4.84668l-6.83008-32.71631-3.55273,32.71631h-4.8457l5.27734-48.69238h4.86328l6.84668,32.5835,3.53613-32.5835h4.8291l-5.27734,48.69238Z"/><path class="e" d="M375.98047,58.34131l5.27832-48.69238h18.74707l-.87988,8.1377h-13.53906l-1.20703,11.06055h13.08984l-.87891,8.13721h-13.09082l-1.58594,13.21924h14.71094l-.89648,8.1377h-19.74805Z"/></g><ellipse class="h" cx="34" cy="59.57959" rx="16" ry="7.5"/><ellipse class="f" cx="13" cy="42.07959" rx="13" ry="8"/><path class="g" d="M39.95117,15.76685c-5.97852-3.45178-13.62354-1.40332-17.0752,4.57532-.87793,1.52063-1.39624,3.14905-1.58838,4.78882,.39917-.03229,.8031-.05139,1.2124-.05139,6.90356,0,12.5,4.70099,12.5,10.5,0,1.22546-.26282,2.39667-.72217,3.49005,4.10962-.19391,8.03882-2.39984,10.24878-6.22748,3.45166-5.97864,1.40332-13.62354-4.57544-17.07532Z"/><path class="e" d="M52,36.07959c-6.0752,0-11,4.92487-11,11,0,.37659,.01929,.7486,.05627,1.11542,1.29419-.70282,2.81262-1.11542,4.44373-1.11542,4.69434,0,8.5,3.35785,8.5,7.5,0,1.24402-.34863,2.41449-.95618,3.44733,5.58508-.52625,9.95618-5.22455,9.95618-10.94733,0-6.07513-4.9248-11-11-11Z"/><rect class="e" x="75" y="61.07959" width="325" height="13"/><g><path class="d" d="M77.04297,69.27881l1.3916-.10303-.01465,.29297c0,.32568,.09375,.62305,.28223,.89355,.18848,.27002,.5,.47852,.93457,.62598s.95117,.22119,1.55078,.22119c.84961,0,1.49805-.14746,1.94531-.44238,.44629-.29492,.66992-.63184,.66992-1.01123,0-.26416-.11914-.50537-.35547-.72412-.24121-.21436-.90039-.50537-1.97754-.87305-.83594-.28711-1.40527-.50732-1.70996-.66064-.47754-.24902-.83008-.52002-1.05762-.81299-.22656-.29297-.34082-.62744-.34082-1.00293,0-.43262,.15039-.82324,.44922-1.17188,.2998-.34863,.73828-.61475,1.31543-.79883,.57715-.18359,1.22754-.27588,1.95215-.27588,.86426,0,1.59375,.11523,2.18848,.34473,.59375,.22998,1.02441,.53662,1.29297,.91943,.26758,.3833,.40137,.74902,.40137,1.09766,0,.03418-.00195,.0918-.00684,.17236l-1.36914,.08594c0-.2373-.02637-.42334-.08008-.55713-.09668-.23389-.24609-.43115-.44922-.5918-.20215-.16113-.48145-.29004-.83594-.38818-.35547-.09766-.75293-.14648-1.19238-.14648-.77246,0-1.37402,.13818-1.80371,.41406-.32812,.21045-.49219,.49023-.49219,.83887,0,.20654,.06738,.3916,.20215,.5542,.13574,.16309,.37891,.32275,.73242,.47998,.25098,.11084,.84668,.33105,1.78906,.66064,.7627,.26807,1.28906,.479,1.5791,.63184,.38672,.20312,.68359,.44922,.8916,.73828,.20703,.28955,.31152,.61768,.31152,.98535,0,.45605-.17578,.87646-.52539,1.26123-.35059,.38525-.83496,.68311-1.45312,.89355s-1.3252,.31592-2.12207,.31592c-1.20312,0-2.18457-.20752-2.94531-.62354-.76074-.41553-1.14355-1.16309-1.14844-2.24365Z"/><path class="d" d="M94.66895,68.47461c0-1.50146,.54688-2.7168,1.6416-3.64551,1.09375-.92871,2.41992-1.39355,3.98047-1.39355,1.32324,0,2.40137,.34229,3.23438,1.02588,.83398,.68359,1.25,1.6001,1.25,2.74902,0,.81982-.20996,1.58008-.62988,2.28125-.31445,.5249-.70996,.97754-1.18848,1.35889-.47852,.38086-.99023,.6748-1.53613,.88184-.72461,.27588-1.49219,.41357-2.30371,.41357-.84961,0-1.62402-.16064-2.32129-.48242-.69824-.32178-1.22754-.771-1.58691-1.34766-.36035-.57617-.54004-1.18994-.54004-1.84131Zm1.39844,.05762c0,.49414,.12891,.94775,.3877,1.36182,.25781,.41357,.64355,.7373,1.15527,.9707,.51172,.23389,1.05078,.35059,1.61621,.35059,.54492,0,1.06445-.10254,1.55664-.30762,.49316-.20459,.93359-.49023,1.32227-.85596s.69629-.81592,.9209-1.3501c.22363-.53418,.33594-1.06006,.33594-1.57715,0-.83887-.2959-1.50732-.88672-2.00537-.5918-.49805-1.32227-.74707-2.19141-.74707-1.11133,0-2.0918,.37646-2.94141,1.12939-.85059,.75244-1.27539,1.7627-1.27539,3.03076Z"/><path class="d" d="M121.2207,69.0376l1.40527,.15527c-.44434,.97314-1.0918,1.7085-1.94141,2.20605-.85059,.49805-1.80371,.74707-2.86133,.74707-1.29004,0-2.3125-.31201-3.06836-.93652-.75586-.62402-1.13379-1.51855-1.13379-2.68311,0-1.51709,.57422-2.77148,1.72363-3.76318,1.02441-.88525,2.29688-1.32764,3.81836-1.32764,1.125,0,2.03711,.23975,2.73438,.71826,.69824,.479,1.10254,1.12256,1.21387,1.93066l-1.3252,.09766c-.14062-.60889-.42871-1.06396-.86621-1.36475-.4375-.30029-1.00098-.45068-1.69141-.45068-1.2998,0-2.34961,.45752-3.15137,1.37305-.69531,.78906-1.04395,1.72559-1.04395,2.80957,0,.86572,.26855,1.52637,.80469,1.98242,.53613,.45557,1.2334,.68359,2.09375,.68359,.73438,0,1.39844-.18945,1.99219-.56885s1.02637-.91553,1.29688-1.60889Z"/><path class="d" d="M131.25488,72.00244l2.22363-8.42285h1.41309l-2.2168,8.42285h-1.41992Z"/><path class="d" d="M141.65137,72.00244l6.02051-8.42285h1.67285l1.75391,8.42285h-1.37695l-.51465-2.4248h-4.2959l-1.70215,2.4248h-1.55762Zm3.86816-3.29199h3.51367l-.41309-2.11475c-.15918-.83887-.25781-1.5376-.29688-2.09717-.24121,.48291-.59375,1.05566-1.05762,1.71826l-1.74609,2.49365Z"/><path class="d" d="M159.85645,72.00244l2.2168-8.42285h1.41992l-1.96289,7.46924h5.5127l-.25293,.95361h-6.93359Z"/><path class="d" d="M195.15234,69.0376l1.40527,.15527c-.44434,.97314-1.0918,1.7085-1.94141,2.20605-.85059,.49805-1.80371,.74707-2.86133,.74707-1.29004,0-2.3125-.31201-3.06836-.93652-.75586-.62402-1.13379-1.51855-1.13379-2.68311,0-1.51709,.57422-2.77148,1.72363-3.76318,1.02441-.88525,2.29688-1.32764,3.81836-1.32764,1.125,0,2.03711,.23975,2.73438,.71826,.69824,.479,1.10254,1.12256,1.21387,1.93066l-1.3252,.09766c-.14062-.60889-.42871-1.06396-.86621-1.36475-.4375-.30029-1.00098-.45068-1.69141-.45068-1.2998,0-2.34961,.45752-3.15137,1.37305-.69531,.78906-1.04395,1.72559-1.04395,2.80957,0,.86572,.26855,1.52637,.80469,1.98242,.53613,.45557,1.2334,.68359,2.09375,.68359,.73438,0,1.39844-.18945,1.99219-.56885s1.02637-.91553,1.29688-1.60889Z"/><path class="d" d="M205.03418,72.00244l2.22461-8.42285h4.45508c.87891,0,1.5459,.05811,2,.1748,.45312,.11719,.80957,.33643,1.06836,.6582,.25781,.32178,.3877,.72754,.3877,1.21777,0,.68604-.2832,1.25488-.84766,1.70654-.56543,.45215-1.47852,.74512-2.73828,.87939,.38574,.22559,.67773,.44775,.87598,.6665,.44434,.49365,.80176,1.00537,1.07227,1.53369l.81152,1.58594h-1.58691l-.76074-1.56836c-.27539-.56689-.58887-1.05762-.94141-1.47119-.24121-.28711-.48828-.47559-.73926-.56592-.25098-.08984-.65918-.13477-1.22363-.13477h-1.65234l-.98535,3.74023h-1.41992Zm2.64453-4.65381h1.96289c.9082,0,1.5-.00977,1.77539-.02881,.53613-.04199,.97559-.13818,1.31836-.28711,.34277-.14941,.6084-.35059,.79688-.60352s.28223-.5249,.28223-.81592c0-.24512-.06934-.4585-.20996-.64062-.13965-.18164-.32324-.30518-.55078-.37061-.22656-.06494-.61328-.09766-1.1582-.09766h-3.46387l-.75293,2.84424Z"/><path class="d" d="M223.13867,72.00244l2.22363-8.42285h7.66504l-.25391,.95947h-6.24512l-.69531,2.61963h6.08594l-.25391,.95996h-6.08496l-.76855,2.93018h6.68652l-.25293,.95361h-8.10645Z"/><path class="d" d="M240.44629,72.00244l2.2168-8.42285h3.20215c.76758,0,1.35449,.04395,1.76074,.13184,.5791,.11865,1.07422,.33057,1.48535,.63477,.41016,.30469,.71875,.68506,.92676,1.14062,.20801,.45605,.31152,.96729,.31152,1.53418,0,.67822-.12891,1.29541-.3877,1.85303-.25781,.55713-.59668,1.04785-1.01367,1.4707-.41797,.42334-.85547,.75488-1.31152,.99414s-.99609,.4165-1.61914,.53125c-.47363,.08838-1.05566,.13232-1.74609,.13232h-3.8252Zm1.67383-.95361h1.68066c.75781,0,1.43164-.05566,2.02148-.16699,.36621-.06885,.68066-.17041,.94141-.3042,.34277-.17236,.6543-.40039,.93457-.68359,.36719-.37549,.66016-.80371,.87988-1.28418,.21973-.48096,.33008-1.02783,.33008-1.64062,0-.68164-.14941-1.20557-.44922-1.57129s-.68066-.60791-1.14453-.72705c-.34277-.08789-.87695-.13184-1.60156-.13184h-1.87598l-1.7168,6.50977Z"/><path class="d" d="M258.76758,72.00244l2.22363-8.42285h1.41309l-2.2168,8.42285h-1.41992Z"/><path class="d" d="M272.83008,72.00244l1.96289-7.46338h-3.48438l.25293-.95947h8.36035l-.25293,.95947h-3.45605l-1.96289,7.46338h-1.41992Z"/><path class="d" d="M298.52637,69.27881l1.3916-.10303-.01465,.29297c0,.32568,.09375,.62305,.28223,.89355,.18848,.27002,.5,.47852,.93457,.62598s.95117,.22119,1.55078,.22119c.84961,0,1.49805-.14746,1.94531-.44238,.44629-.29492,.66992-.63184,.66992-1.01123,0-.26416-.11914-.50537-.35547-.72412-.24121-.21436-.90039-.50537-1.97754-.87305-.83594-.28711-1.40527-.50732-1.70996-.66064-.47754-.24902-.83008-.52002-1.05762-.81299-.22656-.29297-.34082-.62744-.34082-1.00293,0-.43262,.15039-.82324,.44922-1.17188,.2998-.34863,.73828-.61475,1.31543-.79883,.57715-.18359,1.22754-.27588,1.95215-.27588,.86426,0,1.59375,.11523,2.18848,.34473,.59375,.22998,1.02441,.53662,1.29297,.91943,.26758,.3833,.40137,.74902,.40137,1.09766,0,.03418-.00195,.0918-.00684,.17236l-1.36914,.08594c0-.2373-.02637-.42334-.08008-.55713-.09668-.23389-.24609-.43115-.44922-.5918-.20215-.16113-.48145-.29004-.83594-.38818-.35547-.09766-.75293-.14648-1.19238-.14648-.77246,0-1.37402,.13818-1.80371,.41406-.32812,.21045-.49219,.49023-.49219,.83887,0,.20654,.06738,.3916,.20215,.5542,.13574,.16309,.37891,.32275,.73242,.47998,.25098,.11084,.84668,.33105,1.78906,.66064,.7627,.26807,1.28906,.479,1.5791,.63184,.38672,.20312,.68359,.44922,.8916,.73828,.20703,.28955,.31152,.61768,.31152,.98535,0,.45605-.17578,.87646-.52539,1.26123-.35059,.38525-.83496,.68311-1.45312,.89355s-1.3252,.31592-2.12207,.31592c-1.20312,0-2.18457-.20752-2.94531-.62354-.76074-.41553-1.14355-1.16309-1.14844-2.24365Z"/><path class="d" d="M318.94141,72.00244l.85547-3.25781-3.26758-5.16504h1.52148l1.56445,2.45898c.34277,.53613,.67676,1.11084,1,1.72363,.35742-.521,.84473-1.08984,1.46387-1.70654l2.49219-2.47607h1.69531l-5.07129,5.25146-.83398,3.17139h-1.41992Z"/><path class="d" d="M333.15527,69.27881l1.3916-.10303-.01465,.29297c0,.32568,.09375,.62305,.28223,.89355,.18848,.27002,.5,.47852,.93457,.62598s.95117,.22119,1.55078,.22119c.84961,0,1.49805-.14746,1.94531-.44238,.44629-.29492,.66992-.63184,.66992-1.01123,0-.26416-.11914-.50537-.35547-.72412-.24121-.21436-.90039-.50537-1.97754-.87305-.83594-.28711-1.40527-.50732-1.70996-.66064-.47754-.24902-.83008-.52002-1.05762-.81299-.22656-.29297-.34082-.62744-.34082-1.00293,0-.43262,.15039-.82324,.44922-1.17188,.2998-.34863,.73828-.61475,1.31543-.79883,.57715-.18359,1.22754-.27588,1.95215-.27588,.86426,0,1.59375,.11523,2.18848,.34473,.59375,.22998,1.02441,.53662,1.29297,.91943,.26758,.3833,.40137,.74902,.40137,1.09766,0,.03418-.00195,.0918-.00684,.17236l-1.36914,.08594c0-.2373-.02637-.42334-.08008-.55713-.09668-.23389-.24609-.43115-.44922-.5918-.20215-.16113-.48145-.29004-.83594-.38818-.35547-.09766-.75293-.14648-1.19238-.14648-.77246,0-1.37402,.13818-1.80371,.41406-.32812,.21045-.49219,.49023-.49219,.83887,0,.20654,.06738,.3916,.20215,.5542,.13574,.16309,.37891,.32275,.73242,.47998,.25098,.11084,.84668,.33105,1.78906,.66064,.7627,.26807,1.28906,.479,1.5791,.63184,.38672,.20312,.68359,.44922,.8916,.73828,.20703,.28955,.31152,.61768,.31152,.98535,0,.45605-.17578,.87646-.52539,1.26123-.35059,.38525-.83496,.68311-1.45312,.89355s-1.3252,.31592-2.12207,.31592c-1.20312,0-2.18457-.20752-2.94531-.62354-.76074-.41553-1.14355-1.16309-1.14844-2.24365Z"/><path class="d" d="M352.7959,72.00244l1.96289-7.46338h-3.48438l.25293-.95947h8.36035l-.25293,.95947h-3.45605l-1.96289,7.46338h-1.41992Z"/><path class="d" d="M366.5752,72.00244l2.22363-8.42285h7.66504l-.25391,.95947h-6.24512l-.69531,2.61963h6.08594l-.25391,.95996h-6.08496l-.76855,2.93018h6.68652l-.25293,.95361h-8.10645Z"/><path class="d" d="M383.87598,72.00244l2.2168-8.42285h1.74609l1.07227,5.45801c.13965,.71631,.23145,1.40381,.27441,2.06299,.29492-.56689,.78809-1.33496,1.47852-2.3042l3.72363-5.2168h1.77441l-2.2168,8.42285h-1.39746l1.1084-4.09668c.25586-.9458,.62305-2.00684,1.10059-3.18311-.30371,.54785-.68066,1.1377-1.12988,1.76953l-3.95605,5.51025h-1.36914l-1.06445-5.40088c-.09668-.49414-.16699-1.0708-.20996-1.72949-.12109,.73926-.23926,1.3252-.35547,1.7583l-1.41211,5.37207h-1.38379Z"/></g></g></g></svg>