<?xml version="1.0" encoding="UTF-8"?><svg id="b" xmlns="http://www.w3.org/2000/svg" viewBox="0 0 298.72181 109.12303"><defs><style>.d{fill:#ff9600;}.e{fill:#02b236;}.f{fill:#fceb00;}.g{fill:#ff031c;}.h{fill:#194db2;}</style></defs><g id="c"><g><path class="h" d="M201.27976,108.01123l-22.88865-19.91695c-1.11689-.97188-2.64048-1.33194-4.07427-.96285l-29.38303,7.5639c-3.61064,.92947-6.71975-2.68475-5.26125-6.11599l11.86916-27.92308c.57917-1.36255,.4508-2.92284-.3433-4.1724l-16.27356-25.60755c-1.99972-3.1467,.47683-7.2205,4.19084-6.89369l30.2242,2.65954c1.47483,.12978,2.91909-.47448,3.8621-1.61584L192.52742,1.63609c2.37474-2.87423,7.01445-1.77776,7.85133,1.85546l6.81042,29.56676c.33232,1.44275,1.3533,2.6296,2.73021,3.17376l28.21733,11.15159c3.4674,1.37033,3.85834,6.12178,.66155,8.04042l-26.01513,15.61373c-1.26945,.76189-2.0827,2.09966-2.17474,3.57733l-1.88616,30.2823c-.23177,3.72114-4.62987,5.56123-7.44247,3.1138Z"/><g><path class="g" d="M16.57823,35.76095c1.38478,4.93373,2.40404,10.70566,3.99037,15.68716,.76198,2.3928,4.11657,2.51979,5.08077,.20107,2.11594-5.08846,4.83507-10.531,6.91523-14.50804,1.11836-2.13819,4.27309-1.87799,4.99972,.42301,1.24152,3.93148,2.46683,7.00745,4.53764,11.24188,1.05937,2.16623,4.18807,1.98795,5.00066-.2824,2.14423-5.99099,4.58673-11.62496,7.55959-17.45112,.52057-1.02021,1.63235-1.60195,2.76843-1.45654,3.01342,.38569,6.29865,.93495,9.37407,1.3784,1.8393,.26521,2.87382,2.24581,2.03523,3.90416-7.0087,13.85995-16.36479,36.07829-20.04973,44.95669-.76748,1.84915-3.19917,2.26232-4.53086,.76734-2.29961-2.58157-4.82223-5.81353-7.30442-9.59585-1.18892-1.81166-3.90568-1.6001-4.7677,.388-1.81591,4.18806-3.96702,9.19798-5.40928,12.56369-.79966,1.86613-3.29724,2.23773-4.5844,.66766C13.56086,74.11601,2.53409,50.22812,.05655,38.22482c-.32436-1.57148,.78351-3.07139,2.37968-3.23569,3.68057-.37885,7.59629-.81724,11.24968-1.18921,1.31442-.13383,2.53529,.68897,2.89232,1.96103Z"/><path class="d" d="M98.18885,34.88936c-.46878,4.62279-.78873,9.24554-.99525,13.86806-.07521,1.68344,1.40215,3.02814,3.07078,2.79298,.57293-.08074,1.15154-.15273,1.73889-.21732,1.3559-.14909,2.39203-1.27787,2.42072-2.64164,.10566-5.02232,.27551-9.99489,.50956-14.96016,.06473-1.37314,1.15009-2.49023,2.52187-2.57917,2.959-.19184,5.98263-.4846,8.99104-.69051,1.65035-.11296,3.01107,1.25792,2.89721,2.90822-.42565,6.16971-.67393,12.39179-.67393,18.54053,0,8.36062,.45855,16.63998,1.37477,24.98471,.16203,1.47573-.8749,2.80903-2.34806,2.99294-3.21202,.401-6.42364,1.01725-9.63517,1.46739-1.56153,.21887-2.98995-.94152-3.08774-2.51528-.25967-4.17913-.42412-8.35101-.52827-12.48505-.04255-1.689-1.58709-2.91395-3.24745-2.60134-.73589,.13855-1.46863,.29468-2.21002,.46841-1.25034,.29298-2.13445,1.42384-2.10654,2.70775,.10585,4.86939,.28951,9.70131,.64861,14.62389,.10614,1.45494-.93743,2.73441-2.38623,2.905-3.21645,.37873-6.53005,.93557-9.79568,1.28468-1.57111,.16796-2.94834-1.05611-2.98809-2.63568-.08287-3.29262-.1505-6.55239-.1505-9.87243,0-12.8404,.59702-25.85694,1.60457-38.38647,.10924-1.35848,1.21547-2.41277,2.57646-2.48429,2.95603-.15534,5.97607-.35505,8.98134-.48208,1.66178-.07024,2.98492,1.35208,2.81712,3.00686Z"/><path class="f" d="M174.24789,44.73889c0-3.31417,.07414-6.62834,.16229-9.94251,.03597-1.35261,1.06723-2.47374,2.41126-2.63003,3.18833-.37076,6.24583-.5156,9.36955-.80902,1.67178-.15703,3.1052,1.20122,2.98379,2.87597-.36923,5.09345-.52256,10.17532-.52256,15.18925,0,9.88509,.66442,19.77018,1.64495,29.42361,.14752,1.45239-.8731,2.75344-2.31768,2.96406-3.03672,.44275-6.09432,.81048-9.09045,1.24832-1.5438,.22561-2.96136-.89661-3.09116-2.4514-.97355-11.66165-1.54999-23.72239-1.54999-35.86827Z"/><path class="e" d="M250.89476,60.1849c0-8.52886,.57161-16.38265,1.01405-24.26001,.06804-1.21142,.92755-2.24313,2.11326-2.50056,6.37481-1.38402,12.01808-2.03866,17.0155-2.03866,18.68153,0,27.68424,8.96852,27.68424,19.73086,0,13.81753-14.91923,30.53933-43.1151,34.54002-1.49472,.21209-2.87932-.8226-3.09669-2.31656-1.24518-8.5581-1.61526-16.10272-1.61526-23.15509Zm24.55739,4.69397c2.92618-2.79,5.51431-5.97882,5.51431-9.46661,0-.99676-.22537-1.99294-.6749-2.9897-1.80054-4.08573-6.9768-5.18176-12.26574-5.18176-.65583,0-1.33404,.01993-2.01458,.05091-1.40587,.064-2.53924,1.17646-2.60505,2.58225-.17935,3.83103-.33247,7.77383-.33247,11.71624,0,2.40483,.04793,4.80941,.14378,7.18637,.0774,1.91939,2.07933,3.17034,3.82734,2.37377,3.02392-1.37801,5.35219-3.12715,8.40731-6.27147Z"/></g><path class="f" d="M168.83262,40.51036h0c-.61771,.69681-1.65049,.84079-2.43523,.33951l-6.27447-4.00802c-.83405-.53278-1.11683-1.61815-.64879-2.49017l.6862-1.27847c.58976-1.0988,2.06247-1.33687,2.9684-.47986l5.58827,5.28649c.74206,.70198,.79322,1.86615,.11561,2.63052Z"/><path class="f" d="M165.09263,30.07175l.98576-.94391c.82842-.79325,2.16637-.67325,2.84042,.25475l2.67956,3.68914c.52134,.71776,.47421,1.70132-.11336,2.36594l-.56394,.63789c-.74428,.84189-2.05388,.85369-2.81322,.02537l-3.10138-3.38312c-.69554-.75873-.65726-1.9342,.08617-2.64606Z"/><path class="f" d="M194.74972,25.66705l-2.44129,2.51818c-.62319,.64282-.71073,1.63437-.2098,2.37643l.35673,.52845c.61788,.91531,1.88491,1.10943,2.74848,.42109l3.27971-2.61419c1.15724-.92241,.85583-2.75636-.53575-3.25987l-1.19515-.43244c-.70046-.25345-1.48444-.07247-2.00293,.46235Z"/><path class="f" d="M197.96105,30.76872l-4.11426,3.08569c-.69855,.52391-.86614,1.50228-.38178,2.22882l.36031,.54047c.44756,.67133,1.3159,.91905,2.0503,.5849l6.61524-3.00993c.99962-.45483,1.2815-1.74266,.56328-2.57348l-.29379-.33985c-1.21565-1.40624-3.31222-1.63192-4.7993-.51661Z"/></g></g></svg>